<svg width="445" height="271" viewBox="0 0 445 271" fill="none" xmlns="http://www.w3.org/2000/svg">
<path d="M2.83518 270.906C44.4966 259.238 86.2555 247.922 128.112 236.958C138.521 234.223 149.132 230.979 159.998 231.186C170.499 231.394 180.286 235.826 190.22 238.881C210.105 244.973 230.833 248.613 251.322 251.895C261.582 253.779 272.004 254.563 282.421 254.233C292.642 253.534 302.686 251.14 312.167 247.142C320.619 243.766 328.998 240.447 337.633 237.712C345.462 235.185 353.347 232.79 360.994 229.734C368.555 226.927 375.712 223.076 382.27 218.286C388.767 213.246 394.243 206.941 398.387 199.728C402.667 192.372 406.125 184.395 411.613 177.794C416.607 171.664 423.413 168.118 429.322 163.121C432.07 160.969 434.294 158.185 435.816 154.992C437.17 151.918 438.231 147.108 435.505 144.487C432.779 141.865 427.035 141.96 423.523 142.299C419.222 142.769 415.032 144 411.138 145.939C394.856 153.823 385.672 170.344 371.623 181.151C368.222 183.816 364.462 185.957 360.463 187.507C357.719 188.544 358.89 193.165 361.671 192.052C377.843 185.998 387.282 170.985 399.686 159.65C406.162 153.728 414.028 148.334 422.809 147.09C424.736 146.863 426.681 146.863 428.608 147.09C429.736 147.111 430.852 147.341 431.901 147.768C432.834 148.372 432.633 149.504 432.468 150.503C431.69 153.818 429.846 156.763 427.236 158.858C421.748 163.875 415.034 167.119 409.985 172.664C404.387 178.812 400.637 186.356 396.612 193.617C392.925 200.753 388.017 207.143 382.123 212.477C375.932 217.528 369.021 221.561 361.634 224.435C346.322 230.79 330.223 234.789 314.875 241.069C305.582 244.841 296.27 248.33 286.245 249.311C276.149 250.092 265.999 249.642 256.005 247.972C245.87 246.463 235.772 244.521 225.71 242.578C215.649 240.635 205.843 238.523 196.092 235.769C186.342 233.016 177.323 228.942 167.554 227.282C157.785 225.623 147.559 227.282 137.808 229.659C117.428 234.676 97.1587 240.296 76.889 245.746C56.6194 251.197 36.5875 256.61 16.4642 262.155L1.5912 266.304C1.30171 266.387 1.03091 266.528 0.794252 266.719C0.557598 266.91 0.359726 267.147 0.211935 267.416C-0.0865427 267.961 -0.162913 268.606 -0.000376264 269.208C0.162161 269.811 0.550291 270.323 1.07863 270.63C1.60697 270.938 2.23224 271.017 2.81689 270.849L2.83518 270.906Z" fill="white"/>
<path d="M244.425 218.022C258.969 215.457 273.567 212.892 288.331 212.741C295.374 212.741 302.417 213.269 309.46 213.307C316.423 213.379 323.37 212.632 330.169 211.082C336.463 209.689 342.564 207.497 348.335 204.556C352.872 202.161 356.933 197.955 355.652 192.278C354.372 186.601 349.414 182.131 344.895 179.17C340.31 176.387 335.28 174.471 330.041 173.512C316.832 170.759 303.039 171.966 289.794 173.079C276.549 174.191 263.158 175.474 249.84 174.04C237.693 172.758 225.582 168.986 215.85 161.14C207.38 154.332 200.776 145.467 193.074 137.81C189.044 133.639 184.477 130.06 179.5 127.173C173.492 124.045 166.906 122.277 160.182 121.987C145.894 120.987 130.161 120.421 116.825 126.607C114.136 127.833 116.459 131.907 119.13 130.662C130.673 125.325 143.991 126.061 156.34 126.513C162.703 126.448 169.017 127.665 174.926 130.097C179.335 132.24 183.406 135.057 187 138.452C194.538 145.317 200.776 153.54 208.167 160.537C216.181 168.212 225.948 173.675 236.559 176.417C261.804 182.999 287.599 176.417 313.119 176.643C323.729 176.643 335.437 177.85 344.219 184.527C347.877 187.261 354.097 193.466 349.707 197.993C347.839 199.649 345.685 200.929 343.359 201.765C333.464 206.127 322.836 208.446 312.076 208.592C304.447 208.724 296.837 208.026 289.209 208.045C273.732 208.045 258.402 210.799 243.181 213.496C240.291 214.005 241.516 218.55 244.388 218.041L244.425 218.022Z" fill="white"/>
<path d="M116.312 126.607C89.0728 139.564 60.5891 149.824 30.2212 149.937C21.8092 150.123 13.4329 148.756 5.48776 145.901C2.70708 144.864 1.51797 149.409 4.26206 150.447C18.6594 155.878 34.2458 155.086 49.2103 153.276C64.8902 151.248 80.2577 147.18 94.9451 141.167C102.976 137.98 110.861 134.416 118.727 130.681C121.398 129.399 119.075 125.344 116.422 126.607H116.312Z" fill="white"/>
<path d="M432.432 144.223C434.401 139.562 436.854 135.135 439.75 131.021C442.695 127.022 446.317 122.609 444.634 117.196C443.116 112.274 437.993 111.161 433.658 111.633C428.546 111.921 423.631 113.766 419.535 116.932C415.547 120.289 413.004 125.287 408.467 127.984C408.02 128.333 407.712 128.839 407.603 129.406C407.494 129.974 407.591 130.562 407.876 131.061C408.16 131.559 408.613 131.932 409.147 132.109C409.681 132.286 410.259 132.254 410.772 132.02C415.272 129.361 417.962 124.797 421.748 121.232C425.826 117.702 431.07 115.931 436.384 116.291C438.561 116.404 440.39 117.385 440.5 119.799C440.646 122.722 438.469 125.212 436.841 127.343C433.568 131.81 430.805 136.651 428.609 141.771C427.383 144.506 431.334 146.901 432.56 144.147L432.432 144.223Z" fill="white"/>
<path d="M360.391 176.964C364.214 173.72 367.251 169.684 370.873 166.214C374.495 162.743 379.453 160.424 383.679 157.368C385.856 155.784 388.307 154.671 390.466 153.087C392.446 151.704 394.505 150.444 396.631 149.315C400.496 147.058 403.856 143.986 406.491 140.3C407.829 138.448 408.964 136.449 409.876 134.34C410.717 132.454 411.87 130.059 411.028 127.909C409.4 123.797 402.558 124.024 399.101 124.646C394.001 125.72 389.181 127.9 384.959 131.04C380.697 134.057 377.386 138.074 373.599 141.658C369.318 145.694 364.049 148.391 359.732 152.427C355.496 156.394 351.929 161.06 349.176 166.232C348.954 166.758 348.926 167.35 349.096 167.896C349.267 168.442 349.624 168.905 350.102 169.199C350.58 169.492 351.145 169.596 351.692 169.491C352.239 169.386 352.73 169.079 353.073 168.628C355.214 164.608 357.886 160.913 361.013 157.651C364.396 154.401 368.071 151.489 371.989 148.957C375.591 146.169 378.957 143.071 382.051 139.696C385.371 136.293 389.24 133.511 393.484 131.473C395.41 130.509 397.444 129.793 399.54 129.342C400.703 129.11 401.886 129.009 403.07 129.04C403.619 129.04 406.107 129.154 406.455 129.738C407.004 130.719 405.083 133.793 404.625 134.755C403.554 136.69 402.264 138.488 400.784 140.111C397.994 142.867 394.787 145.135 391.289 146.825C389.46 147.882 387.795 149.409 385.929 150.597C384.063 151.786 381.831 153.144 379.837 154.577C375.794 157.481 371.367 159.443 367.708 162.951C364.049 166.459 361.049 170.495 357.226 173.72C354.957 175.606 358.214 178.963 360.464 177.039L360.391 176.964Z" fill="white"/>
<path d="M383.295 131.473C377.718 131.089 372.145 132.282 367.178 134.925C362.33 137.452 358.58 142.224 354.811 146.146C346.392 154.61 338.715 163.824 331.87 173.682C330.206 176.191 334.175 178.548 335.822 176.059C342.118 166.988 349.17 158.5 356.896 150.692C360.336 147.09 363.738 142.771 367.873 139.96C372.502 137.05 377.909 135.729 383.313 136.188C386.24 136.49 386.222 131.775 383.313 131.473H383.295Z" fill="white"/>
<path d="M359.914 16.3893C362.943 15.8638 365.996 15.4987 369.061 15.2954C370.049 15.2954 369.903 15.2954 370.067 16.4648C370.268 18.049 370.323 19.5767 370.415 21.1421C370.598 24.0088 371.531 26.8001 371.805 29.6102C373.013 42.2842 375.738 54.7129 378.062 67.2172L379.104 64.539L370.415 68.5939C367.726 69.8387 370.049 73.9125 372.72 72.6677L381.428 68.6128C381.825 68.3319 382.127 67.9297 382.291 67.4629C382.455 66.9961 382.473 66.4881 382.343 66.0101C381.025 58.8936 379.696 51.7896 378.354 44.6983C377.563 41.1694 376.952 37.5999 376.525 34.0046C376.344 30.6732 375.94 27.3586 375.318 24.0842C374.44 19.9539 375.958 10.2221 369.628 10.5616C366.354 10.7313 363.042 11.3537 359.786 11.7309C356.877 12.0704 356.859 16.8043 359.786 16.4459L359.914 16.3893Z" fill="white"/>
<path d="M368.989 96.488C371.645 95.3233 374.113 93.7459 376.306 91.8107C377.025 90.9798 377.5 89.955 377.675 88.8562C377.85 87.7574 377.718 86.63 377.294 85.6057C376.489 83.2482 375.465 80.985 374.422 78.703C373.892 77.4771 373.599 76.8169 373.142 75.5345C372.959 75.0441 372.794 74.5537 372.648 74.0634L372.483 73.3844C372.3 72.7243 372.483 73.6485 372.483 73.3844C372.469 72.7637 372.224 72.1724 371.798 71.7333C371.372 71.2943 370.798 71.0413 370.196 71.0269C369.591 71.0318 369.012 71.2818 368.585 71.7229C368.157 72.1639 367.914 72.7607 367.909 73.3844C368.232 75.5435 368.88 77.6372 369.83 79.5894C370.288 80.721 370.782 81.8526 371.276 82.9842L371.989 84.625C372.099 84.9268 372.227 85.2097 372.355 85.5114L372.501 85.8698C372.811 86.6065 373.055 87.3702 373.233 88.1518C373.233 88.3216 373.233 88.265 373.233 87.9444C373.242 88.0573 373.242 88.1709 373.233 88.2839C373.123 88.7554 373.398 87.7369 373.233 88.2839C373.068 88.8308 373.379 87.8878 373.233 88.2839L373.068 88.5479C373.251 88.3216 373.288 88.265 373.178 88.397C373.068 88.529 372.904 88.6988 372.757 88.8308L372.465 89.0948C372.629 88.944 372.648 88.944 372.465 89.0948C372.007 89.4155 371.532 89.7361 371.038 90.019C369.629 90.8677 368.184 91.6409 366.757 92.4519C364.177 93.9042 366.483 97.9779 369.062 96.5257L368.989 96.488Z" fill="white"/>
<path d="M245.504 115.612C261.711 118.319 278.114 119.581 294.532 119.384C310.996 119.063 327.461 116.574 343.925 116.763C350.749 116.763 357.865 117.083 364.268 114.311C367.305 112.99 369.409 111.482 369.573 107.898C369.793 103.636 369.775 99.3547 370.012 95.0735C370.433 86.6242 370.872 78.0994 371.604 69.7256C372.263 62.0495 372.83 54.3358 371.256 46.7163C371.154 45.7394 370.847 44.7969 370.358 43.9537C369.868 43.1106 369.208 42.3866 368.421 41.8316C366.226 40.5679 363.555 41.3035 361.213 41.5298C357.164 41.6716 353.112 41.3298 349.139 40.5114C345.149 39.9365 341.13 39.5965 337.102 39.4929C320.637 39.0214 304.356 41.8316 287.928 42.4728C273.549 43.0386 259.206 44.0193 244.827 44.1702C236.522 44.2645 228.198 43.9816 219.892 44.1702C215.959 44.2645 211.166 44.1702 207.782 46.6597C204.398 49.1493 203.958 52.8081 203.739 56.5801C203.739 57.7872 203.647 59.0131 203.647 60.239C203.647 60.8642 203.888 61.4638 204.317 61.906C204.746 62.3481 205.328 62.5965 205.934 62.5965C206.541 62.5965 207.122 62.3481 207.551 61.906C207.98 61.4638 208.221 60.8642 208.221 60.239C208.221 59.0885 208.221 57.9569 208.221 56.8064L208.331 55.4485C208.326 55.1045 208.369 54.7615 208.459 54.4301C208.577 53.679 208.761 52.9405 209.008 52.2234C209.008 52.2234 209.008 52.2234 209.227 51.7897C209.227 51.6199 209.776 50.9598 209.593 51.1861C209.84 50.8725 210.137 50.6046 210.471 50.394L211.349 49.9225C210.819 50.1866 211.77 49.7905 211.989 49.7151C213.701 49.2011 215.475 48.9408 217.258 48.9418C223.972 48.5646 230.722 48.9418 237.381 48.9418C249.382 48.9418 261.365 48.5646 273.347 47.8291C280.811 47.3764 288.275 47.3198 295.721 46.8106C303.441 46.2825 311.124 45.3018 318.844 44.6983C326.577 44.0148 334.348 43.9077 342.096 44.3777C345.956 44.6417 349.743 45.3018 353.585 45.811C357.109 46.2354 360.67 46.2354 364.195 45.811C365.86 45.6601 366.409 45.5281 366.811 47.169C367.55 50.4067 367.9 53.7258 367.854 57.0516C367.854 64.8974 366.866 72.7809 366.409 80.6267C365.951 88.4724 365.366 96.6954 365.183 104.73C365.183 106.22 365.585 108.087 364.396 109.03C362.859 109.986 361.157 110.627 359.384 110.916C356.25 111.641 353.045 111.982 349.834 111.934C342.517 111.934 335.199 111.934 327.882 112.387C320.052 112.877 312.259 113.651 304.447 114.122C289.129 115 273.765 114.508 258.529 112.651C254.596 112.18 250.699 111.614 246.785 110.991C243.912 110.52 242.668 115.065 245.577 115.537L245.504 115.612Z" fill="white"/>
<path d="M216.088 95.7147C214.198 87.5294 212.307 79.3568 210.417 71.1966C209.381 67.174 208.605 63.085 208.093 58.9565C207.764 55.7503 207.307 51.1484 209.026 48.2628C209.923 46.754 213.197 46.3768 214.771 45.8865L245.34 36.9091L290.874 23.5373L333.517 11.0142L347.932 6.78959C350.305 6.28615 352.635 5.59251 354.902 4.71498H355.213L352.396 3.07416L360.811 37.4372L362.037 42.4351C362.212 43.0202 362.601 43.5122 363.121 43.8069C363.642 44.1016 364.253 44.176 364.826 44.0143C365.399 43.8526 365.888 43.4674 366.191 42.9404C366.493 42.4133 366.584 41.7857 366.446 41.1903L358.031 6.82731L356.841 1.7351C356.69 1.12027 356.309 0.592309 355.781 0.267031C355.253 -0.0582477 354.621 -0.15429 354.024 -2.89256e-05L335.73 5.37508L293.526 17.8416L246.639 31.5905L214.204 41.1149C212.374 41.6241 210.545 42.0579 208.862 42.6237C202.331 44.6983 203.008 54.8827 203.666 60.2578C204.951 68.5229 206.68 76.7081 208.844 84.7759L211.679 97.0538C212.374 100.015 216.783 98.77 216.088 95.809V95.7147Z" fill="white"/>
<g opacity="0.7">
<path opacity="0.7" d="M316.045 108.747C315.954 107.611 315.954 106.469 316.045 105.333C316.155 101.241 316.283 97.1481 316.777 93.0743C317.198 88.996 318.165 84.9975 319.649 81.1925C320.412 79.2868 321.362 77.4667 322.485 75.7608C322.96 75.0629 323.619 74.5726 324.15 73.8748C324.7 73.149 325.354 72.5131 326.089 71.9888C328.638 70.3845 331.623 69.6763 334.595 69.9707C338.84 70.2913 342.773 71.9888 346.834 73.1392C360.902 77.1187 376.104 74.5349 390.739 71.8945L416.973 67.1794C420.644 66.2366 424.471 66.1272 428.187 66.8588C431.489 67.9154 434.371 70.046 436.401 72.9318C440.773 79.1078 442.589 86.8203 441.45 94.3756C440.225 101.987 437.396 109.23 433.163 115.593C425.278 128.154 411.96 141.488 397.874 146.128C395.602 146.978 393.189 147.356 390.774 147.24C388.359 147.123 385.991 146.514 383.806 145.449C380.147 143.374 377.55 139.677 374.348 136.848C359.713 123.948 336.589 127.682 320.655 115.31C318.955 114.169 317.574 112.589 316.649 110.727C316.358 110.1 316.154 109.433 316.045 108.747V108.747Z" fill="#E2AF4A"/>
</g>
<g opacity="0.6">
<path opacity="0.6" d="M339.188 40.964C339.099 40.4371 338.964 39.9195 338.785 39.4174C338.211 37.5557 337.533 35.7295 336.755 33.948C335.971 32.1497 334.929 30.4838 333.663 29.0067C332.995 28.2511 332.253 27.5686 331.449 26.9698C331.12 26.7246 330.699 26.5926 330.333 26.3663C329.941 26.1263 329.515 25.9483 329.071 25.8382C327.507 25.4856 325.879 25.5901 324.37 26.14C322.295 27.0139 320.3 28.0742 318.406 29.3085C311.6 33.0805 303.277 34.1178 295.3 34.9665L280.976 36.5696C278.942 36.6673 276.943 37.16 275.086 38.0218C273.56 38.9176 272.345 40.2826 271.61 41.9258C263.835 58.8999 292.154 69.3106 303.679 68.7071C305.401 68.7374 307.096 68.2597 308.564 67.3303C309.519 66.4578 310.339 65.4403 310.997 64.3127C317.875 54.5621 330.096 53.5813 337.688 44.6228C338.396 43.8981 338.907 42.994 339.169 42.0013C339.23 41.6589 339.237 41.3084 339.188 40.964V40.964Z" fill="#146033"/>
</g>
<g opacity="0.85">
<path opacity="0.85" d="M374.257 52.8081C375.191 51.7051 375.906 50.4235 376.361 49.0361C376.978 47.7517 377.303 46.3391 377.312 44.9057C376.964 40.5302 361.872 33.005 357.884 33.7783C357.004 33.9952 356.2 34.4587 355.56 35.1173C351.792 38.6442 348.481 51.6199 354.719 54.3923C356.395 54.9751 358.174 55.1746 359.933 54.977L367.909 54.6941C370.04 54.8596 372.164 54.2889 373.946 53.0721C374.056 52.9934 374.161 52.9051 374.257 52.8081V52.8081Z" fill="#AA809A"/>
</g>
<g opacity="0.7">
<path opacity="0.7" d="M271.609 171.626C258.108 166.742 244.424 162.932 231.363 154.897C218.301 146.863 206.154 137.603 191.116 131.813C176.078 126.023 156.778 124.269 142.674 131.568C127.325 139.527 122.989 155.124 121.91 169.156C121.471 174.814 121.416 180.849 124.435 186.13C126.813 190.26 130.947 193.674 135.191 196.786C156.376 212.08 180.098 223.247 205.184 229.734C215.128 232.656 225.413 234.166 235.753 234.223C246.217 234.034 256.956 231.432 264.475 225.849C271.152 220.889 275.012 213.911 282.476 209.667C285.037 208.215 287.964 207.14 290.397 205.556C292.035 204.577 293.458 203.259 294.578 201.686C295.698 200.112 296.49 198.317 296.904 196.413C297.318 194.508 297.345 192.536 296.984 190.621C296.623 188.705 295.882 186.887 294.806 185.281C290.562 178.699 281.89 174.304 272.689 172.079" fill="#EBD9C3"/>
</g>
</svg>
