<svg width="366" height="436" viewBox="0 0 366 436" fill="none" xmlns="http://www.w3.org/2000/svg">
<g opacity="0.8" clip-path="url(#clip0_254_110)">
<path d="M231.738 197.205C224.308 194.999 216.48 194.499 208.832 195.744C203.067 196.695 194.812 198.491 193.06 205.058C191.517 210.763 195.25 216.82 200.07 219.549C206.431 223.071 214.195 222.895 221.1 224.832C228.829 226.962 235.453 230.889 242.253 234.991C249.053 239.094 256.274 242.193 262.933 246.577C274.307 254.148 282.386 265.805 287.819 278.271C294.97 294.646 297.511 312.659 300.087 330.213C300.49 332.995 304.714 331.816 304.311 329.034C300.297 301.636 295.548 272.02 275.394 251.366C270.742 246.667 265.428 242.68 259.621 239.534C253.154 236.013 246.652 232.579 240.343 228.741C234.029 224.805 227.139 221.888 219.926 220.095C213.757 218.651 205.485 219.056 200.455 214.619C199.277 213.682 198.358 212.456 197.787 211.06C197.216 209.663 197.012 208.142 197.196 206.643C197.984 203.122 202.278 201.959 205.31 201.15C213.607 198.951 222.348 199.104 230.564 201.59C231.124 201.746 231.723 201.673 232.229 201.385C232.735 201.098 233.107 200.621 233.263 200.058C233.418 199.495 233.345 198.893 233.059 198.385C232.773 197.876 232.298 197.503 231.738 197.346V197.205Z" fill="white"/>
<path d="M239.029 79.4632C238.703 78.458 238.663 77.3813 238.914 76.3545C239.165 75.3278 239.696 74.3919 240.449 73.6527C242.096 72.2793 245.163 72.8604 247.178 72.6491C252.581 71.9315 257.941 70.9146 263.232 69.6029C272.993 67.4372 282.51 66.0814 292.254 68.8458C301.542 71.4341 309.937 76.5756 317.736 82.122C321.661 84.9216 325.342 88.0733 329.337 90.7673C333.333 93.4613 337.311 95.4333 341.114 98.0745C345.081 100.658 348.379 104.152 350.736 108.269C351.728 110.654 352.061 113.264 351.7 115.823C351.595 118.711 351.542 121.616 351.525 124.521C351.381 135.974 351.966 147.425 353.277 158.803C354.644 169.914 357.238 180.795 358.903 191.853C359.726 197.452 358.097 202.893 357.413 208.439C356.73 213.985 356.221 219.197 355.958 224.603C355.628 230.778 355.746 236.968 356.309 243.126C356.94 249.43 358.062 255.698 359.025 261.984C360.936 274.538 362.53 287.251 361.058 299.946C360.743 302.746 365.124 302.728 365.44 299.946C368.139 275.929 359.691 252.722 360.182 228.811C360.305 222.86 360.795 216.926 361.479 211.01C361.812 208.122 362.18 205.287 362.723 202.435C363.396 199.552 363.661 196.588 363.512 193.631C362.986 187.909 361.514 182.221 360.48 176.569C359.376 170.495 358.324 164.42 357.588 158.275C356.189 146.173 355.604 133.99 355.836 121.81C355.836 116.334 356.992 110.646 354.259 105.628C351.726 101.446 348.347 97.8468 344.339 95.0636C340.449 92.1759 336.102 89.9926 332.071 87.3514C327.743 84.5166 323.799 81.1007 319.576 78.1074C311.356 72.2793 302.471 67.0146 292.674 64.4087C287.477 62.9941 282.079 62.4761 276.709 62.8768C270.511 63.5487 264.368 64.6548 258.325 66.1871C255.223 66.8738 252.121 67.5605 248.966 67.9478C246.109 68.3528 242.815 67.9478 240.081 68.793C235.244 70.3601 233.579 76.0649 234.735 80.5725C234.813 80.8511 234.944 81.1118 235.121 81.3395C235.298 81.5673 235.519 81.7578 235.769 81.9C236.02 82.0423 236.296 82.1335 236.582 82.1686C236.867 82.2036 237.157 82.1818 237.434 82.1044C237.712 82.0269 237.971 81.8953 238.198 81.7171C238.425 81.5389 238.614 81.3176 238.756 81.0658C238.897 80.814 238.988 80.5367 239.023 80.2496C239.058 79.9626 239.036 79.6714 238.959 79.3928L239.029 79.4632Z" fill="white"/>
<path d="M234.98 80.819C235.103 82.015 235.629 83.133 236.47 83.9884C237.34 84.7984 238.412 85.3579 239.572 85.6083C241.731 86.2456 243.994 86.449 246.231 86.2069C246.805 86.1889 247.352 85.9639 247.774 85.5731C248.182 85.1535 248.414 84.5925 248.422 84.006C248.418 83.4237 248.185 82.8665 247.775 82.4548C247.366 82.043 246.811 81.8096 246.231 81.805C245.339 81.8841 244.442 81.8841 243.55 81.805H242.902C242.902 81.805 242.463 81.805 242.779 81.805C243.094 81.805 242.779 81.805 242.674 81.805C242.236 81.805 241.78 81.629 241.342 81.5233L240.133 81.1712C239.953 81.0647 239.758 80.9875 239.554 80.9423C239.554 80.9423 239.905 81.1359 239.694 80.9423L239.519 80.8366C239.519 80.8366 239.905 81.1712 239.694 80.9599C239.641 80.8968 239.582 80.838 239.519 80.7838C239.256 80.5197 239.73 81.1007 239.519 80.8894L239.379 80.6781C239.379 80.5725 239.099 80.0971 239.256 80.4669C239.414 80.8366 239.256 80.5725 239.256 80.4669C239.256 80.3612 239.256 80.0443 239.256 80.7486C239.256 80.1648 239.026 79.605 238.615 79.1923C238.204 78.7795 237.647 78.5476 237.066 78.5476C236.485 78.5476 235.927 78.7795 235.517 79.1923C235.106 79.605 234.875 80.1648 234.875 80.7486L234.98 80.819Z" fill="white"/>
<path d="M279.092 110.1C267.823 112.794 258.517 103.955 253.505 94.7994C252.226 92.4576 250.438 89.5172 250.754 86.8056C251.122 83.5658 254.382 83.1608 257.01 83.7947C262.426 85.1153 266.369 89.8517 271.591 91.7181C276.814 93.5845 282.615 93.1619 287.662 95.8207C292.709 98.4794 295.075 103.322 299.001 106.896C301.131 108.59 303.086 110.496 304.837 112.583C306.315 114.718 307.633 116.96 308.78 119.292C311.575 124.275 314.819 128.99 318.472 133.378C322.467 138.282 325.447 143.939 327.234 150.017C328.826 156.284 329.887 162.675 330.407 169.121C330.705 171.903 335.103 171.938 334.788 169.121C333.386 156.021 331.458 143.308 323.326 132.55C319.188 127.475 315.478 122.062 312.233 116.369C310.883 113.667 309.268 111.107 307.413 108.727C305.38 106.28 302.716 104.484 300.526 102.177C298.335 99.8704 296.635 97.3173 294.374 95.134C292.165 93.0959 289.565 91.5321 286.733 90.5384C283.724 89.5505 280.624 88.8663 277.48 88.4959C274.28 88.0284 271.218 86.869 268.507 85.0976C263.512 81.8578 257.676 77.2622 251.332 79.6393C244.988 82.0163 246.074 89.4291 248.44 94.4121C254.224 106.438 265.966 117.672 280.266 114.238C283 113.587 281.844 109.343 279.092 109.995V110.1Z" fill="white"/>
<path d="M231.335 201.731C241.553 204.798 252.256 205.897 262.881 204.97C272.537 203.949 283.736 200.85 290.746 193.684C294.034 189.978 296.119 185.353 296.722 180.425C297.598 175.53 298.317 170.6 299.123 165.67C299.755 160.594 299.098 155.439 297.213 150.686C296.232 148.046 295.396 145.354 294.707 142.622C294.023 139.593 293.69 136.494 293.147 133.431C291.935 127.677 290.102 122.074 287.679 116.721C286.102 112.865 284.349 109.114 279.477 110.065C276.726 110.611 277.882 114.855 280.651 114.309C281.948 114.062 282.404 115.418 282.877 116.404C283.578 118.024 284.209 119.661 284.945 121.281C286.921 125.777 288.305 130.512 289.064 135.367C289.765 140.423 290.885 145.412 292.411 150.281C293.953 154.912 295.601 159.507 294.829 164.455C294.164 168.646 293.48 172.854 292.797 177.045C292.113 181.235 291.359 186.007 288.503 189.493C285.376 192.87 281.478 195.433 277.146 196.959C272.786 198.726 268.214 199.91 263.547 200.48C253.081 201.52 242.515 200.497 232.439 197.47C232.162 197.392 231.872 197.37 231.586 197.405C231.301 197.44 231.025 197.532 230.774 197.674C230.268 197.961 229.896 198.439 229.74 199.001C229.585 199.564 229.658 200.166 229.944 200.674C230.23 201.183 230.705 201.557 231.265 201.713L231.335 201.731Z" fill="white"/>
<path d="M90.0456 149.665C92.6821 148.778 95.3755 148.072 98.1073 147.552C100.194 147.011 102.351 146.791 104.504 146.9C106.099 147.094 107.343 147.922 107.326 149.665C107.179 150.706 106.811 151.703 106.245 152.587C105.679 153.471 104.93 154.223 104.048 154.789C100.543 157.623 96.8455 160.071 93.393 162.871C89.825 165.693 86.7407 169.084 84.2622 172.907C82.7375 175.302 86.5405 177.52 88.0302 175.125C92.394 168.206 99.4217 163.857 105.766 158.997C108.938 156.549 112.022 153.362 111.672 149.031C111.321 144.699 107.851 142.622 103.908 142.393C101.549 142.418 99.199 142.696 96.898 143.22C94.1619 143.754 91.4632 144.466 88.8188 145.351C86.155 146.231 87.2941 150.475 89.993 149.594L90.0456 149.665Z" fill="white"/>
<path d="M84.4026 172.555C77.5852 181.359 71.1534 191.113 69.8215 202.488C68.9628 209.724 68.8225 217.014 68.3143 224.268C67.7687 231.323 66.667 238.324 65.0195 245.204C63.2892 251.774 62.0184 258.458 61.2165 265.206C60.7664 272.289 61.0542 279.4 62.0753 286.423C63.8278 300.773 65.1948 315.141 66.1061 329.58C67.0174 344.018 67.5958 358.826 68.104 373.475C68.5947 387.156 70.0143 401.648 66.1412 415.012C64.3886 420.717 61.532 426.51 56.2218 429.573C53.912 431.043 51.1694 431.67 48.454 431.35C45.7385 431.029 43.2154 429.78 41.3077 427.812C37.049 423.569 34.4378 417.618 31.5811 412.406C28.3915 406.578 25.272 400.697 22.4854 394.657C16.763 382.208 12.9574 368.956 11.1991 355.357C9.03441 341.219 7.86315 326.945 7.69402 312.641C7.79917 298.256 11.0764 284.169 11.5847 269.819C12.0754 255.733 10.1125 241.647 8.07958 227.807C6.04664 213.968 4.224 199.635 4.34667 185.408C4.55957 171.34 6.03771 157.32 8.76307 143.52C11.3919 129.803 14.9671 116.298 18.9453 102.917C20.9257 96.2257 23.0287 89.57 25.1844 82.9143C26.2534 79.6041 27.3224 76.3114 28.409 73.0012C29.1885 69.9405 30.558 67.0631 32.4399 64.5319C36.5233 59.8131 43.7262 57.4889 49.4745 55.7281C55.7286 53.7281 62.2026 52.5041 68.7524 52.0834C75.1999 51.6175 81.6802 51.9963 88.0304 53.2102C92.0086 54.0202 97.9322 56.0803 98.861 60.6759C100.053 66.5568 93.0777 69.0923 88.5036 68.9691C85.1562 68.9691 81.879 68.1239 78.5491 67.8774C75.2696 67.6853 71.9805 68.0181 68.805 68.8634C65.5108 69.7757 62.2744 70.887 59.1135 72.1913C56.5414 73.1102 54.0692 74.2901 51.7353 75.7128C49.4449 77.1592 47.5241 79.1252 46.1272 81.4529C44.8487 84.1738 43.7425 86.9732 42.8149 89.8341C41.7644 92.3876 40.2151 94.7035 38.2585 96.6451C36.3019 98.5867 33.9777 100.114 31.4234 101.138L34.1223 102.67C32.1419 96.8419 35.1738 91.1195 39.7655 87.5099C45.3736 83.1256 52.3487 83.0199 59.0434 84.3933C66.0535 85.802 72.7658 88.3727 79.7584 89.8869C85.384 91.1195 91.0798 92.0527 96.6003 93.7078C101.965 95.047 106.896 97.7515 110.919 101.561C112.356 103.057 115.756 106.579 114.424 108.868C113.319 110.629 109.99 110.629 108.149 110.629C100.421 110.259 92.6395 109.026 84.9284 108.216C77.6729 107.459 69.8741 105.91 62.6887 107.847C50.2982 111.192 43.4107 125.454 46.32 137.639C46.4794 138.199 46.8519 138.674 47.3569 138.96C47.8619 139.247 48.4589 139.323 49.0189 139.171C58.2489 135.544 67.5958 132.18 77.0595 129.081C81.7329 127.567 86.4063 126.123 91.0798 124.75C94.5849 123.694 99.0188 121.757 102.822 122.461C107.378 123.289 105.906 128.395 104.014 131.106C101.578 134.274 98.4939 136.88 94.9704 138.748C88.2757 142.622 80.7924 144.893 74.1503 148.837C66.0561 153.711 59.4203 160.688 54.9424 169.033C54.7135 169.454 54.6264 169.938 54.6942 170.413C54.762 170.887 54.981 171.327 55.3185 171.666C55.656 172.005 56.0938 172.225 56.5663 172.294C57.0388 172.362 57.5205 172.274 57.9393 172.044C64.4237 169.28 69.9091 164.737 75.2368 160.212C79.9512 156.232 84.8057 151.496 90.7293 149.383C93.3581 148.45 92.2189 144.101 89.5551 145.14C83.4738 147.305 78.5141 151.707 73.642 155.827C68.0865 160.529 62.4959 165.353 55.7311 168.153L58.7279 171.164C63.1326 162.909 69.8302 156.119 78.0058 151.619C85.5242 147.534 93.9715 145.14 100.912 140.016C106.309 136.037 114.669 126.599 107.764 120.102C104.942 117.443 100.754 117.654 97.2487 118.341C92.3416 119.38 87.4871 121.07 82.7026 122.567C70.9606 126.194 59.3588 130.302 47.8972 134.892L50.5962 136.424C49.9157 133.427 49.8876 130.318 50.5137 127.31C51.1398 124.301 52.4054 121.464 54.2239 118.992C58.465 113.059 64.7391 111.104 71.872 111.368C80.2316 111.668 88.6262 112.971 96.9333 113.833C100.841 114.238 104.82 114.925 108.728 115.013C111.452 115.194 114.161 114.49 116.457 113.006C122.047 108.868 117.578 101.931 113.915 98.2153C109.542 94.1217 104.233 91.171 98.458 89.6228C92.5519 87.862 86.4531 86.8408 80.4419 85.5026C72.7658 83.7419 65.37 80.7838 57.5537 79.6393C49.7374 78.4948 42.1664 79.6393 36.0326 84.9216C30.7749 89.57 27.6204 96.8243 29.9863 103.762C30.1419 104.321 30.511 104.795 31.0132 105.082C31.5153 105.369 32.11 105.445 32.6677 105.294C38.0433 103.249 42.5588 99.4144 45.4612 94.4297C46.82 91.7255 47.9628 88.917 48.8787 86.0309C49.9846 83.0449 52.1083 80.5494 54.8723 78.9878C57.507 77.5513 60.2563 76.338 63.0918 75.3606C66.3543 74.0162 69.7499 73.0246 73.2214 72.4025C80.0213 71.3637 86.8386 74.5155 93.5859 72.8427C98.5806 71.5926 103.137 67.6661 103.435 62.2782C103.733 56.8902 99.895 53.1398 95.6013 51.0621C90.3437 48.4738 84.0346 47.9103 78.1811 47.5406C64.6027 46.8555 51.0596 49.4645 38.6964 55.1471C32.7553 57.8587 28.1812 61.4506 25.7276 67.6309C23.0287 74.2514 21.1185 81.2768 18.9628 88.0909C16.8072 94.9051 14.564 102.177 12.5486 109.361C4.59203 137.48 -1.17382 166.603 0.210685 195.938C0.9117 210.975 3.62813 225.871 5.4683 240.714C6.42859 248.003 7.01355 255.338 7.22084 262.688C7.28998 270.23 6.82732 277.767 5.83633 285.244C4.92501 292.692 3.82091 300.14 3.43536 307.64C3.12628 315.277 3.36055 322.927 4.13637 330.53C5.41572 345.021 6.60745 359.829 10.2177 373.968C13.7228 387.614 19.9618 400.38 26.6565 412.705C31.7388 422.09 37.8727 437.356 50.9291 436C63.9855 434.644 69.9792 421.104 71.8544 409.589C74.2379 394.939 72.7307 379.656 72.1699 364.953C71.6091 349.74 70.9081 334.527 69.7689 319.349C69.1731 311.69 68.4896 304.048 67.6308 296.46C66.7721 288.871 65.6154 281.44 65.37 273.887C64.9144 259.008 70.6277 245.081 72.1699 230.449C72.9936 222.913 73.0987 215.341 73.7121 207.805C74.0743 201.159 75.8682 194.671 78.9697 188.789C81.676 183.937 84.7707 179.315 88.2231 174.967C89.9757 172.731 86.1376 170.53 84.4377 172.748L84.4026 172.555Z" fill="white"/>
<path d="M324.536 40.251C322.783 35.3561 319.821 30.8133 315.037 28.4011C310.809 26.4722 306.12 25.8001 301.525 26.4643C291.693 27.4503 282.247 31.7465 272.363 31.9402L274.483 34.7222C276.008 25.6015 270.382 16.2166 264.091 10.0716C256.951 3.44077 247.541 -0.166947 237.82 -5.8126e-07C225.885 -0.123254 213.898 1.97205 202.121 3.62717C197.417 4.08697 192.811 5.27484 188.469 7.14869C184.934 8.8748 181.813 11.3496 179.32 14.403C172.661 22.4145 170.102 33.9475 161.234 40.0573L164.529 41.959C165.142 34.9159 158.851 32.5565 152.98 32.2396C150.07 32.0987 147.179 32.3452 144.217 32.4861C140.204 32.6974 136.208 32.3452 132.195 32.4861C127.393 32.6797 121.487 32.7502 117.088 34.8455C113.583 36.6062 111.041 39.846 107.624 41.7653C103.33 44.2127 97.8448 42.0822 93.3934 40.9729C88.1358 39.67 82.8782 38.1205 77.4804 37.0993C74.4669 36.5087 71.4158 36.1321 68.3496 35.9724C65.7559 35.8667 61.8652 35.4617 59.4643 36.6239C57.6592 37.5394 56.0819 40.4975 55.1881 42.2583C53.7415 44.8431 52.6061 47.5916 51.8057 50.4458C51.65 51.0085 51.7231 51.6104 52.0091 52.1189C52.295 52.6274 52.7703 53.001 53.3304 53.1574C53.8905 53.3138 54.4895 53.2403 54.9956 52.9531C55.5018 52.6658 55.8736 52.1883 56.0293 51.6255C56.6887 49.2575 57.6116 46.9717 58.7808 44.8114C59.3052 43.8192 59.8905 42.8606 60.5333 41.9414C61.3745 40.7616 61.4797 40.6384 62.9343 40.5504C68.0385 40.2935 73.154 40.7199 78.1463 41.8181C82.9833 42.857 87.7327 44.2303 92.5347 45.3396C96.6706 46.3609 101.63 48.0336 105.889 47.1004C109.249 46.1025 112.313 44.2883 114.809 41.8181C116.016 40.6949 117.352 39.7197 118.788 38.9128C121.031 38.0455 123.397 37.5404 125.798 37.4162C133.053 36.5534 140.361 37.0993 147.634 36.7471C151.823 36.5534 160.533 35.6906 159.902 42.0294C159.906 42.4172 160.01 42.7973 160.205 43.1318C160.401 43.4663 160.68 43.7436 161.015 43.936C161.35 44.1284 161.729 44.2292 162.115 44.2283C162.501 44.2274 162.88 44.1249 163.214 43.931C170.558 38.8952 174.115 30.8838 178.391 23.3829C182.352 16.3399 187.522 11.2337 195.444 9.29682C200.485 8.22779 205.581 7.44011 210.708 6.9374C216.439 6.14506 222.187 5.42315 227.953 4.96535C237.329 4.24344 246.898 4.08497 255.275 9.03271C259.512 11.5984 263.109 15.1036 265.791 19.2803C268.489 23.4005 271.048 28.6124 270.172 33.6834C270.087 34.0089 270.076 34.3497 270.142 34.6798C270.207 35.01 270.346 35.3209 270.549 35.5889C270.752 35.857 271.012 36.0752 271.311 36.227C271.61 36.3789 271.94 36.4604 272.275 36.4654C281.423 36.3597 290.168 32.715 299.141 31.2887C303.209 30.4313 307.426 30.6069 311.409 31.7994C315.825 33.384 318.542 37.2753 320.172 41.5364C321.153 44.1775 325.429 43.033 324.395 40.3743L324.536 40.251Z" fill="white"/>
<path d="M214.196 188.965C202.437 192.265 189.964 191.95 178.384 188.062C166.805 184.174 156.65 176.89 149.229 167.149C142.717 158.044 138.821 147.317 137.965 136.139C137.109 124.96 139.326 113.76 144.375 103.762C149.61 93.8218 157.526 85.5643 167.216 79.9352C176.906 74.306 187.978 71.533 199.165 71.9336C210.351 72.3341 221.198 75.8922 230.465 82.2002C239.732 88.5082 247.042 97.311 251.56 107.6C255.9 117.944 257.324 129.288 255.676 140.39C254.029 151.492 249.373 161.926 242.219 170.547" stroke="white" stroke-width="5" stroke-miterlimit="10"/>
<path d="M76.1482 195.128C92.6396 196.695 109.184 195.85 125.71 195.585C126.291 195.585 126.848 195.354 127.259 194.941C127.67 194.528 127.901 193.968 127.901 193.385C127.901 192.801 127.67 192.241 127.259 191.828C126.848 191.415 126.291 191.184 125.71 191.184C109.184 191.448 92.6396 192.293 76.1482 190.726C73.3442 190.462 73.3617 194.864 76.1482 195.128Z" fill="white"/>
<path d="M320.557 42.0822C322.977 48.968 324.36 56.1789 324.658 63.4755C325.242 70.7064 325.569 77.9431 325.639 85.1857C325.639 85.7694 325.87 86.3292 326.281 86.742C326.691 87.1548 327.249 87.3866 327.83 87.3866C328.411 87.3866 328.968 87.1548 329.379 86.742C329.79 86.3292 330.02 85.7694 330.02 85.1857C329.933 77.6848 329.6 70.1664 328.969 62.6831C328.653 55.2604 327.242 47.926 324.78 40.9201C323.764 38.3142 319.523 39.4411 320.557 42.0822V42.0822Z" fill="white"/>
<g opacity="0.7">
<path opacity="0.7" d="M43.2884 254.254C40.7998 265.769 39.3978 277.144 33.6845 289.223C27.9713 301.302 20.856 312.764 17.7014 325.741C14.5468 338.718 16.2468 353.913 26.0259 362.876C36.6814 372.665 53.0501 372.137 67.2456 369.514C73.0816 368.422 79.0577 367.013 83.7545 363.404C87.3428 360.381 90.3179 356.693 92.5172 352.54C103.676 333.707 110.697 312.695 113.11 290.913C114.266 282.717 113.945 274.379 112.163 266.298C110.13 258.339 105.626 250.75 98.7037 246.366C92.5873 242.492 84.9112 241.26 79.4258 236.594C77.5155 234.974 75.9207 233.072 73.9053 231.54C67.7889 227.05 58.6933 228.3 52.8748 233.16C47.0564 238.02 44.1121 245.75 43.6039 253.339" fill="#EEDBC4"/>
</g>
<g opacity="0.7">
<path opacity="0.7" d="M180.652 57.8939C170.96 55.6568 160.849 56.0641 151.367 59.0736C148.251 59.8793 145.396 61.4806 143.077 63.722C141.556 65.5456 140.369 67.6263 139.572 69.867C133.072 85.6809 130.405 102.82 131.791 119.873C132.142 124.063 132.808 128.412 135.296 131.811C137.389 134.365 140 136.442 142.955 137.903C149.62 141.63 156.673 144.612 163.985 146.795C175.797 150.316 189.888 151.197 199.229 143.132C204.123 138.611 207.4 132.597 208.552 126.018C209.663 119.502 210.039 112.88 209.674 106.28C209.788 103.836 209.394 101.395 208.517 99.1133C206.186 94.1832 200.105 92.6337 195.601 89.5876C192.989 87.8011 190.828 85.4275 189.289 82.6554C187.749 79.8832 186.874 76.7887 186.733 73.6175C186.628 70.7122 187.136 67.7717 186.733 64.8137C186.374 63.2305 185.633 61.7603 184.576 60.5322C183.518 59.3042 182.177 58.3558 180.669 57.7706" fill="#1D2C65"/>
</g>
</g>
<defs>
<clipPath id="clip0_254_110">
<rect width="366" height="436" fill="white"/>
</clipPath>
</defs>
</svg>
