<svg width="24" height="24" viewBox="0 0 24 24" fill="none" xmlns="http://www.w3.org/2000/svg">
<path d="M7.98924 3.49944C7.8584 3.63339 7.78516 3.8132 7.78516 4.00044C7.78516 4.18768 7.8584 4.36749 7.98924 4.50144L15.2987 11.9999L7.98924 19.4969C7.8584 19.6309 7.78516 19.8107 7.78516 19.9979C7.78516 20.1852 7.8584 20.365 7.98924 20.4989C8.05283 20.5643 8.12886 20.6162 8.21285 20.6516C8.29684 20.6871 8.38707 20.7053 8.47824 20.7053C8.5694 20.7053 8.65963 20.6871 8.74362 20.6516C8.82761 20.6162 8.90364 20.5643 8.96724 20.4989L16.7402 12.5234C16.8768 12.3834 16.9532 12.1955 16.9532 11.9999C16.9532 11.8044 16.8768 11.6165 16.7402 11.4764L8.96724 3.50094C8.90364 3.43563 8.82761 3.38371 8.74362 3.34827C8.65963 3.31282 8.5694 3.29456 8.47824 3.29456C8.38707 3.29456 8.29684 3.31282 8.21285 3.34827C8.12886 3.38371 8.05283 3.43563 7.98924 3.50094V3.49944Z" fill="#EE4F51"/>
</svg>
