<svg width="400" height="407" viewBox="0 0 400 407" fill="none" xmlns="http://www.w3.org/2000/svg">
<path d="M340.813 27.6215V112.078C340.813 126.008 340.933 139.779 340.813 153.63C340.813 165.013 338.653 179.799 325.132 182.366C318.551 183.6 311.431 183.261 304.73 183.56L283.888 184.475C269.886 185.072 255.885 185.596 241.884 186.047C214.001 186.883 186.098 187.202 158.215 186.386C127.012 185.49 95.769 185.45 64.5658 184.276C61.6656 184.276 61.6656 188.654 64.5658 188.754C93.1287 189.828 121.712 189.57 150.254 190.605C178.797 191.639 207.72 191.46 236.443 190.605C250.624 190.207 264.806 189.669 278.987 189.072C293.169 188.475 307.91 188.356 322.252 187.082C327.742 186.945 332.992 184.814 337.013 181.092C340.879 176.973 343.433 171.807 344.354 166.247C345.317 159.499 345.652 152.678 345.354 145.869V27.6215C345.301 27.0642 345.041 26.5465 344.625 26.1697C344.209 25.7929 343.666 25.5841 343.104 25.5841C342.541 25.5841 341.999 25.7929 341.582 26.1697C341.166 26.5465 340.906 27.0642 340.853 27.6215H340.813Z" fill="white"/>
<path d="M65.3863 184.336C58.7656 184.057 55.9253 174.605 54.9452 169.371C53.7723 161.427 53.4571 153.382 54.0051 145.371C54.5452 129.053 55.5853 112.735 56.4054 96.4366C57.2255 80.1383 57.8855 63.4221 58.9456 46.9447C59.4457 39.104 60.2058 31.1638 61.4259 23.4027C61.9087 19.8312 62.7052 16.3086 63.8061 12.8755C64.4892 11.2061 65.5196 9.69938 66.8295 8.45437C68.1395 7.20936 69.6995 6.25421 71.4069 5.65167C72.207 5.37307 73.027 5.15417 73.8271 4.95516H73.4671C73.7134 4.93548 73.9609 4.93548 74.2072 4.95516L76.6874 4.85566C79.5677 4.85566 82.448 4.73626 85.3283 4.69646C95.4893 4.57706 105.65 4.53726 115.811 4.51736C146.481 4.43776 177.117 4.43776 207.721 4.51736C239.364 4.62349 271.02 4.76279 302.69 4.93526C319.992 5.05467 337.353 4.93526 354.695 5.43277H355.775C358.656 5.75117 358.636 1.27362 355.775 0.955212C351.389 0.646839 346.989 0.567129 342.594 0.716409C331.926 0.597008 321.259 0.510773 310.591 0.457706L266.146 0.318404L215.341 0.119402L164.436 0H119.652C108.811 0 98.0095 0 87.1685 0.199003C82.3309 -0.0638582 77.4796 0.0826036 72.667 0.636808C70.0068 1.15001 67.4975 2.25407 65.3259 3.86666C63.1544 5.47925 61.3769 7.55876 60.1257 9.95013C57.0254 16.5769 56.5454 24.6166 55.7853 31.8404C54.0051 48.3178 53.4051 64.9345 52.565 81.591L50.0047 131.7C49.5847 139.998 49.0646 148.317 49.2847 156.635C49.4847 163.898 49.9047 171.62 52.965 178.326C55.3453 183.58 59.1456 188.555 65.3463 188.814C68.2466 188.933 68.2466 184.455 65.3463 184.336H65.3863Z" fill="white"/>
<path d="M348.215 206.664C303.21 208.415 258.206 207.878 213.161 207.44C190.359 207.221 167.557 207.002 144.775 207.082C133.754 207.082 122.772 207.221 111.731 207.44C106.131 207.546 100.53 207.686 94.9297 207.858L87.0489 208.117C85.2475 208.026 83.4416 208.147 81.6683 208.475C79.3005 209.339 77.0706 210.539 75.0477 212.037C71.3873 214.385 67.867 216.933 64.3666 219.52C54.9257 226.505 45.7447 233.848 36.7438 241.41C34.5236 243.281 37.7239 246.425 39.9242 244.594C48.025 237.788 56.2858 231.141 64.7666 224.694C70.0711 220.394 75.7394 216.559 81.7083 213.231C82.1434 213.013 82.5908 212.82 83.0485 212.654C85.7688 212.422 88.4994 212.329 91.2293 212.375C96.5098 212.196 101.77 212.057 107.051 211.938C118.052 211.699 129.046 211.553 140.034 211.5C184.679 211.261 229.323 212.236 274.048 212.256C298.79 212.256 323.533 212.017 348.275 211.062C351.155 210.943 351.175 206.465 348.275 206.584L348.215 206.664Z" fill="white"/>
<path d="M36.7435 241.39C28.2027 248.594 19.7418 255.957 11.8811 263.877C9.07997 266.636 6.44829 269.56 4.00027 272.634C2.29171 274.512 1.00321 276.73 0.219889 279.141C-0.0607876 280.068 0.0226481 281.066 0.453337 281.934C0.884026 282.802 1.62986 283.475 2.54012 283.817C3.35918 284.082 4.22103 284.19 5.08037 284.136C6.78054 284.136 4.46031 284.136 5.50042 284.136C7.86065 284.136 10.2209 284.136 12.5811 284.036C44.4043 283.758 76.2475 283.718 108.071 283.599L188.739 283.28C189.299 283.228 189.819 282.969 190.198 282.555C190.577 282.141 190.787 281.601 190.787 281.041C190.787 280.482 190.577 279.942 190.198 279.528C189.819 279.114 189.299 278.855 188.739 278.803L60.7259 279.32C47.0446 279.32 33.3699 279.386 19.7018 279.519C15.9815 279.519 12.2811 279.519 8.56072 279.519C7.64063 279.519 6.72054 279.519 5.82045 279.519H5.10038C4.86035 279.519 4.64033 279.519 4.40031 279.519H4.80035C4.3003 279.519 4.22029 279.519 4.26029 279.519C3.98027 279.837 3.82025 279.021 4.26029 279.778C4.70034 280.534 4.26029 280.176 4.44031 279.897C5.04037 279.121 5.3804 277.907 5.94046 277.091C8.2456 273.887 10.8291 270.89 13.6612 268.136C22.0021 259.917 30.903 252.156 40.0039 244.574C42.2241 242.704 39.0238 239.539 36.8235 241.39H36.7435Z" fill="white"/>
<path d="M379.718 281.947C384.058 281.947 388.379 281.807 392.719 281.668C394.575 281.785 396.439 281.651 398.26 281.27C402.26 279.857 398.26 272.833 397.139 270.524L390.039 254.723L376.237 224.057C373.917 218.863 371.337 213.709 369.217 208.435C367.216 203.639 367.597 198.485 367.637 193.49C368.01 148.476 368.297 103.461 368.497 58.4471C368.577 45.7507 368.577 33.0543 368.497 20.358C368.497 15.4028 369.177 9.35314 366.496 4.89548C364.376 1.17413 359.596 1.03483 355.735 1.07463C355.175 1.12724 354.655 1.38584 354.276 1.79987C353.897 2.2139 353.688 2.75359 353.688 3.31341C353.688 3.87323 353.897 4.41292 354.276 4.82695C354.655 5.24098 355.175 5.49959 355.735 5.55219C359.156 5.55219 362.476 5.33329 363.496 9.21384C364.516 13.0944 364.036 18.0893 364.056 22.3281C364.056 32.0527 364.056 41.7839 364.056 51.5218C364.056 70.6658 363.796 89.79 363.636 108.914C363.476 128.038 363.296 147.461 363.216 166.744C363.216 176.097 363.216 185.45 363.216 194.784C363.003 198.784 363.292 202.795 364.076 206.724C365.416 210.987 367.136 215.123 369.217 219.082L382.598 248.932L389.079 263.36L392.539 271.041C394 273.55 395.015 276.29 395.539 279.141L396.199 277.549C396.325 277.396 396.479 277.27 396.655 277.177C396.83 277.085 397.022 277.029 397.219 277.012C396.887 276.973 396.552 276.973 396.219 277.012C394.999 277.012 393.779 277.131 392.539 277.171C388.299 277.31 384.058 277.39 379.818 277.449C379.258 277.502 378.737 277.761 378.359 278.175C377.98 278.589 377.77 279.128 377.77 279.688C377.77 280.248 377.98 280.788 378.359 281.202C378.737 281.616 379.258 281.874 379.818 281.927L379.718 281.947Z" fill="white"/>
<path d="M217.681 382.622C213.141 367.199 208.381 351.797 204.2 336.255C200.2 321.19 196.939 305.807 196.719 290.146C196.719 283.181 196.459 274.942 201.96 269.748C202.957 268.613 204.289 267.821 205.765 267.485C207.242 267.149 208.787 267.287 210.181 267.877C213.361 269.25 213.761 273.111 214.041 276.255C214.521 281.887 214.461 287.559 215.321 293.151C215.661 295.439 215.821 298.504 217.321 300.414C219.322 302.942 222.482 302.026 225.042 300.991C231.01 298.365 235.934 293.844 239.044 288.136C242.624 282.166 243.644 275.24 246.264 268.813C249.14 262.498 252.553 256.44 256.465 250.703C260.189 244.565 264.604 238.87 269.627 233.728C271.627 231.738 274.627 228.455 277.867 229.291C281.108 230.127 282.348 234.007 282.108 236.932C281.728 241.649 278.908 245.927 276.827 250.067C274.726 253.992 273.012 258.111 271.707 262.365C270.827 265.469 270.027 269.788 272.687 272.315C277.567 276.972 283.688 271.181 286.148 267.022C288.885 262.071 291.11 256.857 292.789 251.46C294.484 245.894 296.841 240.549 299.81 235.539C301.47 232.952 312.131 220.734 313.411 228.594C313.577 231.457 313.176 234.323 312.231 237.032C311.251 241.012 310.231 244.753 309.111 248.594C306.95 256.295 304.63 263.937 302.57 271.658C301.95 273.927 301.29 276.733 303.75 278.186C304.64 278.566 305.617 278.697 306.576 278.563C307.536 278.43 308.44 278.038 309.191 277.429C313.571 274.723 315.691 269.947 318.072 265.489C321.772 258.743 325.112 251.818 328.853 245.091C330.358 241.844 332.274 238.802 334.553 236.037C336.693 233.848 340.414 232.057 343.094 234.405C347.094 238.027 344.814 246.047 343.774 250.325C342.355 257.458 339.795 264.317 336.193 270.643C332.493 276.613 327.392 281.807 324.332 288.076C322.672 291.519 321.472 298.026 325.832 300.195C326.8 300.598 327.867 300.701 328.895 300.492C329.922 300.282 330.862 299.77 331.593 299.021C334.267 296.529 336.698 293.791 338.854 290.842C341.094 288.096 343.194 285.23 345.354 282.424C346.913 280.084 349.029 278.163 351.515 276.832C353.515 275.957 358.896 274.245 360.196 276.972C360.976 278.643 359.556 281.171 358.876 282.603C357.583 285.243 356.042 287.755 354.275 290.106C347.694 299.001 338.674 305.708 331.613 314.185C327.977 318.42 325.053 323.211 322.952 328.374C320.352 335.001 318.712 342.085 316.571 348.891C312.191 362.821 307.03 376.592 298.45 388.513C294.62 393.901 290.009 398.696 284.768 402.741C282.508 404.473 284.768 408.373 287.048 406.721C297.715 398.196 306.16 387.241 311.671 374.781C318.272 360.652 321.672 345.608 326.812 331.001C330.813 319.797 339.974 311.837 348.175 303.718C352.3 299.791 356.038 295.479 359.336 290.842C361.936 287.041 365.696 281.449 364.696 276.613C362.876 267.718 349.915 271.619 345.434 275.698C342.885 278.321 340.575 281.165 338.534 284.195C336.073 287.399 333.473 290.504 330.793 293.529C330.193 294.185 328.793 296.374 327.692 296.315C328.092 296.315 327.812 296.315 327.692 295.957C327.45 295.321 327.335 294.646 327.352 293.967C327.352 290.942 329.353 288.136 331.113 285.768C335.253 279.798 339.994 274.186 342.854 267.559C345.827 260.817 347.963 253.74 349.215 246.485C350.015 241.669 350.275 235.619 346.694 231.738C342.334 227.022 335.433 228.873 331.393 232.972C329.115 235.638 327.187 238.58 325.652 241.728C323.652 245.211 321.852 248.753 320.012 252.315C318.172 255.877 316.491 259.141 314.651 262.524C313.771 264.143 312.871 265.755 311.951 267.36C311.204 268.734 310.376 270.063 309.471 271.34C308.945 271.933 308.362 272.473 307.73 272.952C307.354 273.236 306.96 273.495 306.55 273.728C306.31 273.867 304.99 274.285 305.97 274.365C306.95 274.444 306.27 274.365 306.67 273.688C306.842 273.244 306.969 272.784 307.05 272.315C307.33 271.221 307.63 270.146 307.93 269.071C308.491 267.081 309.051 265.091 309.631 263.101C311.871 255.261 314.211 247.46 316.231 239.559C317.491 234.644 320.012 227.201 315.531 223.102C310.351 218.365 303.29 224.395 299.73 228.276C291.449 237.33 289.609 249.569 284.608 260.355C283.348 263.081 281.768 266.982 279.128 268.693C277.327 269.867 275.527 269.788 275.407 267.638C275.187 263.539 277.587 258.922 279.288 255.32C283.288 247.042 291.809 234.783 282.628 226.923C277.347 222.405 271.287 225.908 267.066 230.007C262.01 235.05 257.542 240.644 253.745 246.684C249.688 252.721 246.046 259.023 242.844 265.549C239.804 272.056 238.984 279.28 235.383 285.569C233.635 288.667 231.369 291.447 228.683 293.787C227.423 294.849 226.023 295.732 224.522 296.414C223.662 296.812 222.782 297.071 221.902 297.409C221.022 297.748 220.902 297.867 220.602 296.872C218.942 291.18 219.002 284.773 218.602 278.962C218.478 275.594 217.948 272.253 217.021 269.012C216.58 267.838 215.882 266.777 214.98 265.903C214.077 265.029 212.992 264.364 211.801 263.957C205.8 261.37 199.8 264.514 196.319 269.609C192.199 275.439 192.099 283.021 192.159 289.887C192.285 297.814 193.034 305.718 194.399 313.528C197.099 329.449 201.82 345.09 206.4 360.632L213.281 384.015C213.479 384.542 213.867 384.977 214.371 385.232C214.875 385.488 215.456 385.547 216.001 385.397C216.546 385.247 217.015 384.899 217.315 384.423C217.615 383.946 217.724 383.374 217.621 382.821L217.681 382.622Z" fill="white"/>
<g opacity="0.78">
<path opacity="0.78" d="M174.598 157.729C170.377 148.237 165.097 136.317 158.276 127.74C142.014 107.143 124.353 85.5711 99.7102 76.1981C78.5281 68.0987 53.9257 70.228 33.8636 80.8348C29.0287 83.1863 24.6851 86.4274 21.0624 90.3869C17.0818 95.4084 14.2552 101.236 12.7815 107.461C8.78113 121.71 8.18107 136.635 7.72102 151.421C7.22097 167.759 6.94095 184.197 9.54121 200.336C10.9213 208.973 13.3816 217.888 19.5422 224.117C24.8227 229.47 32.1835 232.176 39.4042 234.306C58.12 239.784 77.5639 242.401 97.07 242.067C109.551 241.848 122.152 240.415 134.514 242.246C143.435 243.559 152.135 246.564 161.156 246.883C170.177 247.201 180.138 244.116 184.599 236.315C188.419 229.649 187.319 221.39 186.099 213.828L179.658 173.431C178.758 167.779 176.818 163.819 174.278 156.814" fill="#819994"/>
</g>
<g opacity="0.7">
<path opacity="0.7" d="M339.474 278.265C324.513 282.524 309.931 287.758 293.69 289.31C277.448 290.862 261.566 290.802 244.725 295.28C227.883 299.758 209.161 309.986 199.92 324.215C189.919 339.717 193.92 354.623 200.04 366.344C202.581 371.14 205.581 375.876 211.061 378.284C215.382 380.115 220.922 380.274 226.463 380.274C254.378 379.472 281.956 373.982 308.031 364.035C318.76 360.329 329.001 355.351 338.534 349.21C348.095 342.782 356.656 334.265 360.736 325.329C364.357 317.369 364.317 309.588 369.037 301.748C370.657 299.061 372.798 296.454 374.238 293.787C378.598 285.549 375.178 277.867 367.897 275.161C360.616 272.454 350.335 274.245 340.714 278.066" fill="#EBD9C3"/>
</g>
</svg>
