<svg width="393" height="124" viewBox="0 0 393 124" fill="none" xmlns="http://www.w3.org/2000/svg">
<path d="M115.08 104.56C113.907 104.56 112.9 104.827 112.06 105.36C111.22 105.88 110.573 106.613 110.12 107.56C109.68 108.493 109.46 109.58 109.46 110.82C109.46 112.1 109.66 113.22 110.06 114.18C110.46 115.127 111.06 115.86 111.86 116.38C112.673 116.9 113.68 117.16 114.88 117.16C115.573 117.16 116.207 117.107 116.78 117C117.367 116.893 117.92 116.753 118.44 116.58V117.6C117.947 117.787 117.407 117.933 116.82 118.04C116.233 118.147 115.547 118.2 114.76 118.2C113.32 118.2 112.113 117.893 111.14 117.28C110.18 116.667 109.453 115.807 108.96 114.7C108.48 113.593 108.24 112.3 108.24 110.82C108.24 109.407 108.507 108.153 109.04 107.06C109.587 105.953 110.367 105.087 111.38 104.46C112.407 103.833 113.647 103.52 115.1 103.52C116.487 103.52 117.733 103.78 118.84 104.3L118.38 105.32C117.353 104.813 116.253 104.56 115.08 104.56ZM132.17 110.84C132.17 112.293 131.93 113.573 131.45 114.68C130.97 115.787 130.25 116.653 129.29 117.28C128.344 117.893 127.164 118.2 125.75 118.2C124.31 118.2 123.11 117.893 122.15 117.28C121.204 116.653 120.49 115.787 120.01 114.68C119.544 113.56 119.31 112.273 119.31 110.82C119.31 109.367 119.55 108.093 120.03 107C120.524 105.907 121.25 105.053 122.21 104.44C123.184 103.813 124.384 103.5 125.81 103.5C127.184 103.5 128.344 103.8 129.29 104.4C130.237 104.987 130.95 105.827 131.43 106.92C131.924 108.013 132.17 109.32 132.17 110.84ZM120.53 110.82C120.53 112.087 120.717 113.2 121.09 114.16C121.464 115.107 122.037 115.847 122.81 116.38C123.584 116.9 124.564 117.16 125.75 117.16C126.95 117.16 127.93 116.9 128.69 116.38C129.464 115.86 130.03 115.127 130.39 114.18C130.764 113.22 130.95 112.107 130.95 110.84C130.95 108.853 130.517 107.307 129.65 106.2C128.797 105.093 127.517 104.54 125.81 104.54C124.624 104.54 123.637 104.807 122.85 105.34C122.064 105.86 121.477 106.593 121.09 107.54C120.717 108.473 120.53 109.567 120.53 110.82ZM145.002 118H143.762L135.482 105.52H135.422C135.449 106.04 135.469 106.593 135.482 107.18C135.509 107.753 135.522 108.353 135.522 108.98V118H134.422V103.72H135.662L143.922 116.16H143.982C143.955 115.747 143.935 115.22 143.922 114.58C143.909 113.94 143.902 113.34 143.902 112.78V103.72H145.002V118ZM151.872 118H150.712V104.76H146.112V103.72H156.472V104.76H151.872V118ZM165.457 118H157.617V103.72H165.457V104.76H158.777V109.98H165.077V111.02H158.777V116.96H165.457V118ZM178.252 118H177.012L168.732 105.52H168.672C168.699 106.04 168.719 106.593 168.732 107.18C168.759 107.753 168.772 108.353 168.772 108.98V118H167.672V103.72H168.912L177.172 116.16H177.232C177.205 115.747 177.185 115.22 177.172 114.58C177.159 113.94 177.152 113.34 177.152 112.78V103.72H178.252V118ZM185.122 118H183.962V104.76H179.362V103.72H189.722V104.76H185.122V118ZM204.843 118H203.443L198.003 110.6L196.223 112.3V118H195.063V103.72H196.223V111.14C196.503 110.833 196.783 110.527 197.063 110.22C197.356 109.9 197.656 109.58 197.963 109.26L203.243 103.72H204.663L198.863 109.8L204.843 118ZM217.549 110.84C217.549 112.293 217.309 113.573 216.829 114.68C216.349 115.787 215.629 116.653 214.669 117.28C213.723 117.893 212.543 118.2 211.129 118.2C209.689 118.2 208.489 117.893 207.529 117.28C206.583 116.653 205.869 115.787 205.389 114.68C204.923 113.56 204.689 112.273 204.689 110.82C204.689 109.367 204.929 108.093 205.409 107C205.903 105.907 206.629 105.053 207.589 104.44C208.563 103.813 209.763 103.5 211.189 103.5C212.563 103.5 213.723 103.8 214.669 104.4C215.616 104.987 216.329 105.827 216.809 106.92C217.303 108.013 217.549 109.32 217.549 110.84ZM205.909 110.82C205.909 112.087 206.096 113.2 206.469 114.16C206.843 115.107 207.416 115.847 208.189 116.38C208.963 116.9 209.943 117.16 211.129 117.16C212.329 117.16 213.309 116.9 214.069 116.38C214.843 115.86 215.409 115.127 215.769 114.18C216.143 113.22 216.329 112.107 216.329 110.84C216.329 108.853 215.896 107.307 215.029 106.2C214.176 105.093 212.896 104.54 211.189 104.54C210.003 104.54 209.016 104.807 208.229 105.34C207.443 105.86 206.856 106.593 206.469 107.54C206.096 108.473 205.909 109.567 205.909 110.82ZM223.361 103.72C225.067 103.72 226.347 104.02 227.201 104.62C228.067 105.207 228.501 106.213 228.501 107.64C228.501 108.733 228.207 109.593 227.621 110.22C227.047 110.833 226.327 111.267 225.461 111.52L229.381 118H228.001L224.361 111.84H220.961V118H219.801V103.72H223.361ZM223.261 104.74H220.961V110.84H223.661C224.821 110.84 225.714 110.573 226.341 110.04C226.981 109.493 227.301 108.707 227.301 107.68C227.301 106.587 226.967 105.827 226.301 105.4C225.634 104.96 224.621 104.74 223.261 104.74ZM238.633 118H230.793V103.72H238.633V104.76H231.953V109.98H238.253V111.02H231.953V116.96H238.633V118ZM249.788 118L247.888 113.08H241.968L240.048 118H238.848L244.468 103.66H245.528L251.008 118H249.788ZM245.628 106.88C245.548 106.693 245.441 106.4 245.308 106C245.174 105.6 245.061 105.247 244.968 104.94C244.861 105.3 244.748 105.653 244.628 106C244.508 106.347 244.408 106.647 244.328 106.9L242.348 112.02H247.528L245.628 106.88ZM256.211 118V103.72H257.371V116.94H264.071V118H256.211ZM274.444 118L272.544 113.08H266.624L264.704 118H263.504L269.124 103.66H270.184L275.664 118H274.444ZM270.284 106.88C270.204 106.693 270.097 106.4 269.964 106C269.831 105.6 269.717 105.247 269.624 104.94C269.517 105.3 269.404 105.653 269.284 106C269.164 106.347 269.064 106.647 268.984 106.9L267.004 112.02H272.184L270.284 106.88ZM280.632 103.72C282.392 103.72 283.692 104 284.532 104.56C285.372 105.107 285.792 105.987 285.792 107.2C285.792 108.027 285.552 108.733 285.072 109.32C284.605 109.907 283.919 110.28 283.012 110.44V110.5C284.052 110.673 284.845 111.04 285.392 111.6C285.939 112.16 286.212 112.94 286.212 113.94C286.212 114.86 285.999 115.62 285.572 116.22C285.145 116.82 284.552 117.267 283.792 117.56C283.045 117.853 282.179 118 281.192 118H276.672V103.72H280.632ZM280.892 110.02C282.212 110.02 283.159 109.793 283.732 109.34C284.305 108.887 284.592 108.213 284.592 107.32C284.592 106.4 284.279 105.74 283.652 105.34C283.025 104.94 282.019 104.74 280.632 104.74H277.832V110.02H280.892ZM277.832 111.02V116.98H281.092C282.399 116.98 283.372 116.72 284.012 116.2C284.652 115.667 284.972 114.893 284.972 113.88C284.972 112.893 284.639 112.173 283.972 111.72C283.305 111.253 282.285 111.02 280.912 111.02H277.832ZM298.584 104.56C297.411 104.56 296.404 104.827 295.564 105.36C294.724 105.88 294.077 106.613 293.624 107.56C293.184 108.493 292.964 109.58 292.964 110.82C292.964 112.1 293.164 113.22 293.564 114.18C293.964 115.127 294.564 115.86 295.364 116.38C296.177 116.9 297.184 117.16 298.384 117.16C299.077 117.16 299.711 117.107 300.284 117C300.871 116.893 301.424 116.753 301.944 116.58V117.6C301.451 117.787 300.911 117.933 300.324 118.04C299.737 118.147 299.051 118.2 298.264 118.2C296.824 118.2 295.617 117.893 294.644 117.28C293.684 116.667 292.957 115.807 292.464 114.7C291.984 113.593 291.744 112.3 291.744 110.82C291.744 109.407 292.011 108.153 292.544 107.06C293.091 105.953 293.871 105.087 294.884 104.46C295.911 103.833 297.151 103.52 298.604 103.52C299.991 103.52 301.237 103.78 302.344 104.3L301.884 105.32C300.857 104.813 299.757 104.56 298.584 104.56ZM314.425 118H313.265V111.04H305.125V118H303.965V103.72H305.125V110H313.265V103.72H314.425V118ZM328.018 112.96C328.018 114.587 327.544 115.867 326.598 116.8C325.664 117.733 324.338 118.2 322.618 118.2C320.898 118.2 319.578 117.733 318.658 116.8C317.751 115.867 317.298 114.573 317.298 112.92V103.72H318.458V112.92C318.458 114.307 318.818 115.36 319.538 116.08C320.258 116.8 321.304 117.16 322.678 117.16C324.024 117.16 325.058 116.8 325.778 116.08C326.511 115.347 326.878 114.333 326.878 113.04V103.72H328.018V112.96ZM341.451 118H340.211L331.931 105.52H331.871C331.898 106.04 331.918 106.593 331.931 107.18C331.958 107.753 331.971 108.353 331.971 108.98V118H330.871V103.72H332.111L340.371 116.16H340.431C340.404 115.747 340.384 115.22 340.371 114.58C340.358 113.94 340.351 113.34 340.351 112.78V103.72H341.451V118ZM350.181 110.72H355.381V117.36C353.981 117.92 352.401 118.2 350.641 118.2C348.375 118.2 346.648 117.553 345.461 116.26C344.275 114.967 343.681 113.173 343.681 110.88C343.681 109.427 343.968 108.147 344.541 107.04C345.128 105.933 345.968 105.067 347.061 104.44C348.155 103.813 349.468 103.5 351.001 103.5C352.548 103.5 353.948 103.787 355.201 104.36L354.741 105.38C354.141 105.113 353.521 104.907 352.881 104.76C352.241 104.613 351.595 104.54 350.941 104.54C349.675 104.54 348.588 104.807 347.681 105.34C346.788 105.873 346.101 106.613 345.621 107.56C345.141 108.507 344.901 109.607 344.901 110.86C344.901 112.927 345.408 114.493 346.421 115.56C347.435 116.627 348.921 117.16 350.881 117.16C351.575 117.16 352.195 117.113 352.741 117.02C353.288 116.927 353.781 116.8 354.221 116.64V111.78H350.181V110.72ZM361.874 103.72C363.634 103.72 364.934 104 365.774 104.56C366.614 105.107 367.034 105.987 367.034 107.2C367.034 108.027 366.794 108.733 366.314 109.32C365.847 109.907 365.161 110.28 364.254 110.44V110.5C365.294 110.673 366.087 111.04 366.634 111.6C367.181 112.16 367.454 112.94 367.454 113.94C367.454 114.86 367.241 115.62 366.814 116.22C366.387 116.82 365.794 117.267 365.034 117.56C364.287 117.853 363.421 118 362.434 118H357.914V103.72H361.874ZM362.134 110.02C363.454 110.02 364.401 109.793 364.974 109.34C365.547 108.887 365.834 108.213 365.834 107.32C365.834 106.4 365.521 105.74 364.894 105.34C364.267 104.94 363.261 104.74 361.874 104.74H359.074V110.02H362.134ZM359.074 111.02V116.98H362.334C363.641 116.98 364.614 116.72 365.254 116.2C365.894 115.667 366.214 114.893 366.214 113.88C366.214 112.893 365.881 112.173 365.214 111.72C364.547 111.253 363.527 111.02 362.154 111.02H359.074ZM380.131 112.96C380.131 114.587 379.657 115.867 378.711 116.8C377.777 117.733 376.451 118.2 374.731 118.2C373.011 118.2 371.691 117.733 370.771 116.8C369.864 115.867 369.411 114.573 369.411 112.92V103.72H370.571V112.92C370.571 114.307 370.931 115.36 371.651 116.08C372.371 116.8 373.417 117.16 374.791 117.16C376.137 117.16 377.171 116.8 377.891 116.08C378.624 115.347 378.991 114.333 378.991 113.04V103.72H380.131V112.96ZM392.764 118H391.364L385.924 110.6L384.144 112.3V118H382.984V103.72H384.144V111.14C384.424 110.833 384.704 110.527 384.984 110.22C385.278 109.9 385.578 109.58 385.884 109.26L391.164 103.72H392.584L386.784 109.8L392.764 118Z" fill="white"/>
<path d="M110.78 51.19C115.22 50.71 119.12 49.12 120.77 46.48C122.39 49.12 126.32 50.71 130.76 51.19L131.51 49.27C126.47 48.85 122.39 46.81 122.12 43.9H130.43V41.95H122V39.22H119.54V41.95H111.11V43.9H119.39C119.12 46.81 115.04 48.85 110.03 49.27L110.78 51.19ZM127.46 61.72C127.46 63.4 125 64.33 120.74 64.33C116.48 64.33 114.02 63.4 114.02 61.72C114.02 60.07 116.48 59.11 120.74 59.11C125 59.11 127.46 60.07 127.46 61.72ZM132.92 54.58V52.6H108.59V54.58H119.54V57.28C114.47 57.49 111.53 59.05 111.53 61.72C111.53 64.63 114.95 66.19 120.77 66.19C126.53 66.19 129.95 64.63 129.95 61.72C129.95 59.05 127.01 57.49 121.97 57.28V54.58H132.92ZM157.308 48.04H144.228V44.92H157.308V48.04ZM159.738 39.94H157.308V43H144.228V39.94H141.798V49.99H159.738V39.94ZM162.918 54.49V52.48H138.558V54.49H149.508V57.64H141.288V59.62H157.458V66.25H159.918V57.64H151.968V54.49H162.918ZM170.805 46.06L171.165 48.13L187.335 47.38C187.245 48.64 187.065 50.02 186.735 51.61L189.165 51.79C189.915 48.1 189.915 45.4 189.915 42.91V40.6H171.465V42.61H187.485V42.91C187.485 43.75 187.485 44.59 187.455 45.52L170.805 46.06ZM174.135 57.88H171.675V65.8H190.485V63.79H174.135V57.88ZM180.945 53.59V49.69H178.485V53.59H168.615V55.57H192.885V53.59H180.945ZM221.293 39.34H218.923V59.5H221.293V39.34ZM213.733 58.81H216.073V39.88H213.733V46.93H210.163V48.94H213.733V58.81ZM211.183 52.33C208.393 52.9 205.963 53.05 202.183 53.05V49.15H208.903V47.23H202.183V43.54H209.983V41.56H199.813V55.03H201.523C205.813 55.03 208.333 54.91 211.423 54.31L211.183 52.33ZM206.263 63.61V57.28H203.803V65.62H222.073V63.61H206.263ZM231.011 56.26C235.301 55.39 239.111 53.11 240.791 49.66C242.441 53.11 246.251 55.39 250.511 56.26L251.501 54.25C246.341 53.35 242.021 50.02 242.021 45.61H250.661V43.63H242.021V39.97H239.531V43.63H230.861V45.61H239.531C239.531 50.02 235.211 53.35 230.051 54.25L231.011 56.26ZM228.581 60.76V62.77H253.001V60.76H228.581ZM260.768 49.09L261.128 51.19L277.388 50.32C277.208 52.18 276.938 54.28 276.428 56.68L278.858 56.98C279.998 51.46 279.998 47.77 279.998 44.47V41.92H261.488V43.93H277.568V44.47C277.568 45.7 277.568 46.99 277.508 48.4L260.768 49.09ZM270.518 60.55V53.56H268.058V60.55H258.578V62.56H282.908V60.55H270.518ZM292.596 51.4H302.526V41.8H290.046V43.81H300.036V49.42H290.136V59.74H292.356C296.976 59.74 301.056 59.56 305.916 58.75L305.676 56.74C300.966 57.49 297.006 57.7 292.596 57.7V51.4ZM308.196 39.28V66.25H310.656V39.28H308.196ZM325.744 57.97C323.134 57.97 321.304 55.15 321.304 50.77C321.304 46.42 323.134 43.6 325.744 43.6C328.324 43.6 330.154 46.42 330.154 50.77C330.154 55.15 328.324 57.97 325.744 57.97ZM325.744 41.38C321.784 41.38 318.964 45.04 318.964 50.77C318.964 56.5 321.784 60.16 325.744 60.16C329.704 60.16 332.494 56.5 332.494 50.77C332.494 45.04 329.704 41.38 325.744 41.38ZM343.714 50.05H339.274V39.34H336.814V66.22H339.274V52.12H343.714V50.05ZM361.441 50.53C358.291 51.19 355.651 51.34 352.171 51.34V47.86H359.851V40.93H349.741V42.88H357.481V46H349.801V53.32H351.571C355.441 53.32 358.261 53.17 361.681 52.51L361.441 50.53ZM368.851 63.85H356.071V60.46H368.851V63.85ZM368.851 58.54H356.071V55.45H353.611V65.86H371.281V55.45H368.851V58.54ZM368.911 39.34V45.7H365.311V39.82H362.971V53.95H365.311V47.68H368.911V54.22H371.281V39.34H368.911Z" fill="white"/>
<path d="M41.0935 0H0V3.61115H41.0935V0Z" fill="white"/>
<path d="M80.0002 38.0591H0.274414V42.1321H80.0002V38.0591Z" fill="white"/>
<path d="M78.5838 120.389H37.4902V124H78.5838V120.389Z" fill="white"/>
<path d="M41.0967 124L41.0967 0L37.4902 0L37.4902 124H41.0967Z" fill="white"/>
<path d="M75.9287 38.0592V75.3625H79.9997V38.0592H75.9287Z" fill="white"/>
<path d="M79.7967 71.2861H37.4902V75.3624H79.7967V71.2861Z" fill="white"/>
<path d="M75.926 42.1191H41.0938V71.3055H75.926V42.1191Z" fill="#E03E40"/>
</svg>
