<svg width="188" height="435" viewBox="0 0 188 435" fill="none" xmlns="http://www.w3.org/2000/svg">
<g opacity="0.7">
<path opacity="0.7" d="M107.659 316.104C99.8031 322.717 93.1153 329.756 81.7037 335.235C70.2921 340.713 57.6066 345.234 48.4065 352.503C39.2064 359.773 33.9872 370.747 40.0026 381.226C46.5488 392.644 63.6928 399.718 79.616 404.398C86.1445 406.313 92.9738 408.068 99.5023 407.785C104.326 407.429 109.063 406.304 113.532 404.452C133.684 396.899 150.687 385.871 163.16 372.343C167.831 367.254 171.9 361.705 173.439 355.464C174.279 352.068 174.282 348.517 173.447 345.119C172.611 341.721 170.963 338.578 168.644 335.961C164.08 330.643 156.702 326.263 153.093 320.607C151.854 318.657 151.094 316.601 149.696 314.703C145.397 308.906 135.418 305.626 127.156 306.246C123.56 306.47 120.046 307.412 116.819 309.016C113.592 310.621 110.718 312.856 108.366 315.59" fill="#EBD9C3"/>
</g>
<path d="M82.1285 98.0456C79.4714 85.7683 79.3566 73.0753 81.7911 60.7517C84.2257 48.4282 89.1579 36.7364 96.2824 26.3996C101.13 19.3077 107.093 12.4818 114.559 8.22661C122.697 3.54595 132.499 3.54595 141.54 4.71612C149.915 5.68495 157.929 8.67851 164.894 13.4392C172.192 18.7083 177.543 26.2525 180.109 34.8922C182.568 43.135 183.878 51.6789 184.002 60.2812C184.14 80.339 178.233 99.9714 167.052 116.609C165.637 118.754 169.069 120.757 170.485 118.63C181.063 102.795 187.097 84.3534 187.929 65.3165C188.263 56.1332 187.311 46.9484 185.099 38.0304C184.13 33.5696 182.571 29.2585 180.463 25.2117C178.111 20.993 175.127 17.1603 171.617 13.847C165.134 7.92175 157.196 3.82846 148.617 1.98573C139.399 -0.177299 128.978 -0.992868 119.796 1.77298C110.949 4.37925 103.872 10.6379 97.9986 17.7298C92.2926 24.5518 87.6026 32.166 84.0746 40.3352C76.0208 58.828 73.9962 79.3962 78.2892 99.1094C78.8377 101.609 82.6769 100.563 82.1285 98.0456Z" fill="white"/>
<path d="M91.6117 128.009C91.3463 125.172 90.7448 121.52 91.6117 118.754C92.2664 116.804 94.3895 116.644 96.1764 116.307C97.9301 115.97 99.7026 115.739 101.484 115.616C108.933 115.084 116.098 116.697 123.281 118.488C126.833 119.209 130.327 120.186 133.737 121.413C135.326 122.104 136.874 122.886 138.373 123.754C140.043 124.492 141.588 125.485 142.955 126.697C143.762 127.758 144.259 129.023 144.39 130.35C144.521 131.678 144.282 133.015 143.698 134.214C143.13 136.327 141.887 138.195 140.16 139.533C137.913 140.774 139.93 144.232 142.159 142.973C145.892 140.881 148.192 135.385 148.422 131.307C148.811 124.552 142.743 121.396 137.541 118.896C131.137 115.775 123.582 114.375 116.629 112.956C109.57 111.417 102.276 111.291 95.1679 112.584C92.0187 113.187 88.9933 114.127 87.9317 117.495C87.1506 120.989 87.0484 124.601 87.6309 128.133C87.8609 130.668 91.8594 130.704 91.6117 128.133V128.009Z" fill="white"/>
<path d="M168.308 122.956C168.075 121.399 167.274 119.984 166.061 118.985C164.462 117.895 162.769 116.951 161.001 116.165C157.127 114.127 153.234 112.141 149.271 110.279C141.486 106.493 133.38 103.408 125.05 101.06C116.693 98.89 108.082 97.8583 99.4491 97.9925C94.8491 97.9925 90.196 97.9925 85.6136 98.4002C82.3228 98.6485 78.9967 99.73 78.059 103.276C77.9205 103.786 77.99 104.331 78.2521 104.789C78.5143 105.248 78.9475 105.584 79.4567 105.723C79.9658 105.861 80.509 105.792 80.9669 105.529C81.4248 105.266 81.7598 104.832 81.8982 104.322C82.4113 102.407 84.7998 102.425 86.4098 102.354C88.4267 102.248 90.4614 102.177 92.4783 102.123C96.2468 101.999 100.015 101.928 103.784 102.017C111.172 102.162 118.51 103.265 125.616 105.297C132.787 107.426 139.78 110.117 146.529 113.346C149.761 114.871 152.975 116.461 156.171 118.116C157.834 118.967 159.48 119.889 161.143 120.722C161.744 121.041 162.417 121.343 162.912 121.697C163.37 121.922 163.761 122.262 164.046 122.685C164.332 123.109 164.502 123.599 164.54 124.108C164.714 124.578 165.058 124.965 165.504 125.193C165.949 125.421 166.464 125.473 166.946 125.339C167.428 125.206 167.842 124.896 168.108 124.471C168.373 124.047 168.47 123.537 168.379 123.045L168.308 122.956Z" fill="white"/>
<path d="M51.8035 132.424C53.8571 131.213 56.1806 130.536 58.562 130.456C62.486 130.027 66.4364 129.891 70.3805 130.048C79.6803 130.325 88.9556 131.154 98.1577 132.53C109.198 134.043 120.077 136.566 130.659 140.065C136.444 141.998 142.159 144.179 147.838 146.412C153.74 148.481 159.432 151.105 164.841 154.249C169.986 157.717 174.559 161.97 178.393 166.855C180.622 169.514 179.95 172.351 179.508 175.596C179.065 178.84 178.588 181.73 178.021 184.797C175.778 196.914 172.383 208.788 167.884 220.257C166.751 223.111 165.566 225.931 164.345 228.732C163.909 229.414 163.569 230.154 163.337 230.93C163.337 231.71 162.717 230.93 163.549 231.143C162.169 230.788 160.789 228.891 159.727 227.987C155.869 224.776 151.654 222.021 147.166 219.778C137.438 215.177 127.109 211.978 116.487 210.275C102.932 207.776 89.2543 206 75.5113 204.956C60.8586 203.703 46.1208 203.834 31.4925 205.346L33.421 206.8C30.2894 193.095 31.5456 178.911 34.6595 165.33C35.8724 158.837 37.8809 152.519 40.6395 146.519C43.4386 141.156 47.2478 136.388 51.8565 132.477C53.8027 130.704 50.9719 127.991 49.0434 129.658C44.166 133.779 40.1289 138.806 37.1541 144.462C34.2061 150.751 32.0602 157.387 30.7671 164.213C27.494 178.521 26.2379 193.396 29.5287 207.811C29.6415 208.232 29.8898 208.605 30.2352 208.871C30.5806 209.137 31.0038 209.282 31.4394 209.282C58.6151 206.268 86.4453 208.928 113.285 213.591C124.396 215.541 135.613 218.2 145.715 223.395C150.679 226.011 155.298 229.239 159.462 233.005C161.072 234.423 163.461 235.859 165.495 234.334C166.202 233.73 166.744 232.955 167.07 232.083C167.866 230.31 168.627 228.537 169.37 226.888C174.446 215.063 178.339 202.764 180.994 190.17C182.498 183.972 183.503 177.664 184.001 171.305C184.06 169.957 183.843 168.611 183.366 167.349C182.888 166.087 182.159 164.936 181.224 163.965C179.171 161.571 176.995 159.249 174.731 157.033C165.389 147.973 152.686 143.877 140.761 139.427C128.996 134.894 116.811 131.545 104.385 129.427C93.499 127.599 82.5074 126.468 71.4775 126.041C66.8657 125.834 62.2448 126 57.6597 126.537C54.5284 126.721 51.5092 127.77 48.9373 129.569C46.9557 131.183 49.7865 134.002 51.7504 132.388L51.8035 132.424Z" fill="white"/>
<path d="M30.2722 208.999C31.2658 210.519 32.3843 211.955 33.6161 213.289C34.9239 214.495 36.3735 215.537 37.933 216.392C41.4777 218.418 45.2647 219.985 49.2031 221.055C53.1131 222.207 57.0232 223.324 60.9155 224.512C63.8027 225.606 66.8394 226.251 69.921 226.427C70.4165 226.38 70.8767 226.15 71.2117 225.781C71.5467 225.412 71.7323 224.931 71.7323 224.432C71.7323 223.934 71.5467 223.453 71.2117 223.084C70.8767 222.715 70.4165 222.485 69.921 222.438C67.1983 222.256 64.5194 221.658 61.977 220.665C58.5624 219.619 55.1124 218.626 51.68 217.615C48.1281 216.733 44.6861 215.454 41.4184 213.803C39.8019 213.028 38.2718 212.083 36.8538 210.984C35.6561 209.811 34.5992 208.502 33.7045 207.084C32.236 204.992 28.786 207.084 30.2722 209.087V208.999Z" fill="white"/>
<path d="M161.585 233.909V234.246C161.585 233.998 161.585 233.998 161.585 234.246V234.937V235.256C161.588 235.081 161.637 234.91 161.726 234.76C162.593 234.228 162.823 234.033 162.381 234.193L162.045 234.317C161.125 234.618 160.187 234.884 159.249 235.132C157.382 235.642 155.485 236.039 153.57 236.32C153.317 236.39 153.08 236.509 152.872 236.671C152.665 236.832 152.492 237.033 152.362 237.262C152.232 237.491 152.148 237.743 152.116 238.004C152.083 238.266 152.103 238.531 152.173 238.785C152.328 239.282 152.667 239.702 153.121 239.959C153.574 240.216 154.108 240.29 154.614 240.168C156.897 239.827 159.155 239.335 161.373 238.696L162.93 238.217C163.697 238.056 164.396 237.659 164.929 237.083C165.286 236.446 165.505 235.741 165.572 235.014C165.639 234.287 165.553 233.554 165.318 232.863C165.248 232.611 165.13 232.376 164.97 232.17C164.809 231.965 164.61 231.793 164.383 231.664C164.157 231.536 163.907 231.453 163.648 231.422C163.39 231.39 163.127 231.41 162.876 231.48C162.374 231.629 161.948 231.966 161.688 232.422C161.427 232.878 161.352 233.417 161.479 233.927L161.585 233.909Z" fill="white"/>
<path d="M69.7965 215.186C68.8412 222.704 67.6086 230.18 66.0988 237.614C65.5858 240.114 69.425 241.16 69.9381 238.66C71.5186 230.895 72.7984 223.07 73.7773 215.186C73.7306 214.69 73.5007 214.229 73.1326 213.893C72.7645 213.557 72.2847 213.371 71.7869 213.371C71.2892 213.371 70.8094 213.557 70.4413 213.893C70.0732 214.229 69.8433 214.69 69.7965 215.186Z" fill="white"/>
<path d="M71.7786 216.746C81.9695 215.984 92.5496 215.452 102.652 217.314C108.243 218.342 113.692 220.115 119.141 221.693L127.988 224.228C129.438 224.636 130.394 224.53 130.27 226.214C130.146 227.899 129.934 229.601 129.651 231.285C129.244 233.803 133.083 234.831 133.49 232.349C133.897 229.867 134.87 226.303 134.109 223.679C133.348 221.055 130.093 220.682 127.793 220.009C121.158 218.112 114.541 216.037 107.836 214.371C96.0881 211.463 83.7741 211.871 71.7963 212.757C69.2486 212.935 69.2309 216.924 71.7963 216.746H71.7786Z" fill="white"/>
<path d="M77.9888 103.631C77.6708 105.124 77.7683 106.676 78.2707 108.117C78.773 109.558 79.6608 110.834 80.8372 111.804C81.8073 112.804 82.8876 113.69 84.0573 114.446C85.3637 115.168 86.8017 115.62 88.2858 115.775C88.8018 115.894 89.3433 115.818 89.8073 115.563C90.0321 115.436 90.2293 115.266 90.3873 115.062C90.5454 114.858 90.661 114.624 90.7273 114.375C90.8637 113.867 90.7954 113.326 90.5373 112.868C90.2791 112.411 89.8517 112.073 89.3473 111.928C88.7635 111.839 88.1973 111.751 87.5781 111.627L86.6934 111.361C86.4281 111.361 87.065 111.556 86.6934 111.361L86.3219 111.166C86.0756 111.029 85.8391 110.875 85.6142 110.705C85.4727 110.616 85.3311 110.492 85.6142 110.705L85.2957 110.439L83.9865 109.286C83.5973 108.914 83.2257 108.506 82.8719 108.098C82.518 107.691 82.8719 108.258 82.8719 108.098C82.8719 107.939 82.7126 107.868 82.6419 107.762C82.5711 107.655 82.3588 107.301 82.2349 107.052C82.1111 106.804 82.0226 106.503 82.2349 106.928L82.1288 106.627C82.0735 106.47 82.0263 106.31 81.9873 106.148C81.9873 106.148 81.8988 105.634 81.9873 105.935C82.0757 106.237 81.9873 105.723 81.9873 105.705C81.9961 105.569 81.9961 105.433 81.9873 105.297C81.9873 105.067 81.9873 105.634 81.9873 105.297C82.0202 105.136 82.0616 104.976 82.1111 104.818C82.2475 104.311 82.1792 103.77 81.921 103.312C81.6629 102.854 81.2355 102.516 80.7311 102.372C80.2223 102.239 79.6821 102.309 79.2236 102.567C78.7652 102.825 78.4241 103.25 78.2718 103.755L77.9888 103.631Z" fill="white"/>
<path d="M11.801 410.586C17.9128 392.388 22.4819 373.705 25.4596 354.737C26.9104 345.435 27.9837 336.074 28.6796 326.653C28.9804 322.416 29.2812 318.728 26.5035 315.218C25.2214 313.75 24.0392 312.199 22.965 310.572C22.0473 308.936 21.306 307.207 20.7534 305.413C18.418 298.321 17.3211 290.804 11.518 285.432C8.59869 282.719 5.32559 280.45 4.44097 276.336C3.69253 272.438 4.45153 268.401 6.56406 265.042C10.7041 257.791 19.2672 253.766 26.5388 249.99C30.6435 247.862 34.8189 245.859 39.0651 244.05C43.2196 242.041 47.7159 240.838 52.3167 240.504C56.9876 240.398 61.5345 241.71 66.1346 242.277C68.3121 242.43 70.4693 242.798 72.5746 243.377C74.6446 244.068 76.52 245.291 78.537 246.125C86.4986 249.422 95.3448 248.554 103.572 246.798C111.799 245.043 120.097 242.171 128.695 241.799C132.754 241.518 136.828 242.06 140.673 243.394C144.512 244.83 148.811 247.596 149.82 251.851C150.828 256.107 149.36 260.716 149.82 265.096C150.261 269.292 151.291 273.404 152.881 277.311C154.46 281.325 156.304 285.228 158.401 288.995C160.435 292.683 163.248 296.424 164.328 300.537C165.478 305.023 162.7 309.314 161.603 313.533C160.575 317.877 160.082 322.331 160.135 326.795C160.135 329.082 160.135 331.369 160.135 333.657C160.135 335.944 160.435 338.32 158.772 340.11C156.065 343 152.279 344.915 149.36 347.645C146.513 350.345 144.343 353.68 143.026 357.379C141.611 361.209 140.867 365.287 139.311 369.063C136.267 376.474 129.367 380.818 123.033 385.179C116.646 389.382 111.021 394.646 106.403 400.746C99.4648 410.144 95.3796 421.348 94.6371 433.014C94.4602 435.567 98.441 435.567 98.6179 433.014C99.2064 424.801 101.551 416.811 105.492 409.585C109.433 402.359 114.878 396.068 121.459 391.137C127.704 386.545 134.781 382.75 139.576 376.492C141.852 373.335 143.536 369.791 144.547 366.031C145.804 361.865 146.724 357.468 149.201 353.833C151.678 350.199 155.446 347.769 158.843 345.163C162.24 342.557 164.027 340.305 164.151 335.961C164.257 331.299 163.956 326.636 164.292 321.955C164.792 317.275 165.898 312.679 167.583 308.285C168.303 306.272 168.605 304.133 168.472 301.999C168.338 299.865 167.77 297.781 166.805 295.874C164.929 291.868 162.435 288.127 160.347 284.191C156.065 276.07 152.916 267.613 153.748 258.287C154.137 253.979 154.119 249.954 151.43 246.337C148.892 243.198 145.509 240.853 141.681 239.582C133.879 236.71 125.157 237.809 117.23 239.423C108.384 241.302 99.821 244.405 90.6917 244.423C86.0368 244.448 81.444 243.353 77.2985 241.231C75.6264 240.308 73.8424 239.605 71.9907 239.139C69.6023 238.625 67.143 238.501 64.7368 238.093C60.1014 237.313 55.4483 236.161 50.7067 236.568C46.3043 237.089 42.0079 238.285 37.9682 240.114C29.4616 243.547 21.2786 247.737 13.5172 252.632C6.79406 257.188 1.00863 263.287 0.106317 271.638C-0.349141 275.278 0.490287 278.963 2.47711 282.045C4.81251 285.485 8.581 287.524 11.0579 290.91C15.6226 297.045 15.5341 305.449 19.1434 312.186C20.0489 313.769 21.1226 315.249 22.3457 316.601C23.2286 317.435 23.9187 318.453 24.368 319.584C24.8172 320.714 25.0147 321.928 24.9465 323.143C24.7519 327.859 24.2565 332.593 23.7611 337.327C21.6982 357.017 17.8911 376.484 12.3849 395.498C11.0226 400.214 9.55409 404.877 7.99715 409.54C7.1833 411.969 11.0226 413.086 11.8364 410.586H11.801Z" fill="white"/>
<g opacity="0.78">
<path opacity="0.78" d="M71.407 60.689C67.5323 61.5046 60.243 69.6603 55.2184 76.2558C41.8599 93.9934 32.4596 114.4 27.6535 136.094C25.2297 147.246 24.3097 159.462 28.9805 167.316C31.6343 171.766 35.7921 174.266 39.9321 176.482C45.0244 179.201 50.2635 181.633 55.6253 183.769C65.1615 187.563 75.5293 190.4 86.4102 186.996C89.2093 186.15 91.8383 184.818 94.1772 183.06C96.4894 181.186 98.5896 179.063 100.44 176.73C111.621 163.318 120.554 148.174 126.891 131.892C127.885 129.563 128.644 127.139 129.155 124.658C129.654 120.323 129.336 115.933 128.217 111.715C124.992 95.1227 123.117 78.295 122.609 61.3982C122.711 57.9218 122.263 54.4511 121.282 51.1149C119.247 45.796 114.329 43.7039 109.747 42.0018C105.695 40.4948 101.396 39.0055 96.831 40.5303C92.9564 41.8245 89.3648 45.14 85.9325 48.3668C81.7217 52.3206 77.0862 59.6607 71.46 60.689" fill="#D89999"/>
</g>
</svg>
