<svg width="935" height="435" viewBox="0 0 935 435" fill="none" xmlns="http://www.w3.org/2000/svg">
<rect width="935" height="435" rx="30" fill="white"/>
<path d="M110.64 33.26V51.78H113.32V33.26H110.64ZM112.72 40.16V42.36H116V40.16H112.72ZM99.36 34.72V47.5H108.36V34.72H105.72V39.22H102V34.72H99.36ZM102 41.28H105.72V45.36H102V41.28ZM117.218 47.58V49.74H133.978V47.58H117.218ZM124.238 44.08V48.46H126.898V44.08H124.238ZM119.098 34.46V36.56H129.458V38.54H119.138V43.74H121.778V40.62H132.098V34.46H119.098ZM119.138 42.68V44.82H132.518V42.68H119.138ZM147.437 33.24V51.76H150.117V33.24H147.437ZM149.417 40.32V42.5H152.677V40.32H149.417ZM142.577 35.16V35.62C142.577 40.64 140.277 44.04 135.417 46.56L136.897 48.58C143.057 45.48 145.177 40.72 145.177 35.16H142.577ZM136.437 35.16V37.3H143.937V35.16H136.437ZM166.755 33.26V51.78H169.435V33.26H166.755ZM161.295 35.18V35.66C161.295 40.62 159.375 43.98 154.055 46.54L155.435 48.66C162.015 45.48 163.935 40.84 163.935 35.18H161.295ZM155.035 35.18V37.28H162.555V35.18H155.035Z" fill="black"/>
<path d="M152.52 212.385C150.885 212.73 149.43 212.805 146.865 212.82V208.98H151.35V207.72H145.32V214.095H146.415C149.325 214.095 150.915 214.005 152.67 213.63L152.52 212.385ZM148.32 215.415H146.76V219.9H155.88V218.64H148.32V215.415ZM155.34 210.48V206.595H153.795V216.405H155.34V211.755H157.26V210.48H155.34ZM162.629 210.27H164.954V208.995H162.629V207.075H161.159V208.995H158.819V210.27H161.159V210.75C161.159 212.91 160.259 215.22 158.399 216.315L159.284 217.485C160.574 216.735 161.429 215.37 161.909 213.78C162.404 215.25 163.274 216.495 164.549 217.185L165.404 216.03C163.544 215.025 162.629 212.865 162.629 210.75V210.27ZM165.914 211.86H164.084V213.12H165.914V219.495H167.369V206.88H165.914V211.86ZM168.644 206.61V220.155H170.114V206.61H168.644ZM178.213 213.915C178.288 213.465 178.318 213 178.318 212.475C178.318 211.95 178.288 211.47 178.213 211.02H179.773V213.915H178.213ZM175.408 215.82C174.478 215.82 173.893 214.62 173.893 212.475C173.893 210.33 174.478 209.115 175.408 209.115C176.338 209.115 176.923 210.33 176.923 212.475C176.923 214.62 176.338 215.82 175.408 215.82ZM179.773 209.745H177.898C177.433 208.41 176.533 207.66 175.408 207.66C173.653 207.66 172.498 209.49 172.498 212.475C172.498 215.445 173.653 217.275 175.408 217.275C176.548 217.275 177.433 216.495 177.913 215.175H179.773V219.51H181.213V206.865H179.773V209.745ZM182.458 206.61V220.14H183.928V206.61H182.458ZM187.841 210.645C187.841 209.46 188.726 208.695 189.926 208.695C191.141 208.695 192.026 209.46 192.026 210.645C192.026 211.83 191.141 212.595 189.926 212.595C188.726 212.595 187.841 211.83 187.841 210.645ZM193.541 210.645C193.541 208.725 191.996 207.39 189.926 207.39C187.871 207.39 186.326 208.725 186.326 210.645C186.326 212.565 187.871 213.9 189.926 213.9C191.996 213.9 193.541 212.565 193.541 210.645ZM187.826 216.48H195.191V220.17H196.736V215.235H187.826V216.48ZM198.611 209.82V208.545H196.736V206.61H195.191V214.635H196.736V212.73H198.611V211.455H196.736V209.82H198.611Z" fill="black"/>
<g clip-path="url(#clip0_1234_1118)">
<path d="M173.304 162.328C176.287 164.353 178.378 167.097 178.378 170.756V177.289H187.089V170.756C187.089 166.008 179.314 163.199 173.304 162.328Z" fill="black"/>
<path d="M169.667 159.867C174.48 159.867 178.378 155.968 178.378 151.155C178.378 146.343 174.48 142.444 169.667 142.444C168.643 142.444 167.685 142.662 166.771 142.967C168.578 145.21 169.667 148.063 169.667 151.155C169.667 154.248 168.578 157.101 166.771 159.344C167.685 159.649 168.643 159.867 169.667 159.867Z" fill="black"/>
<path d="M156.6 159.867C161.413 159.867 165.311 155.968 165.311 151.155C165.311 146.343 161.413 142.444 156.6 142.444C151.787 142.444 147.889 146.343 147.889 151.155C147.889 155.968 151.787 159.867 156.6 159.867ZM156.6 146.8C158.995 146.8 160.955 148.76 160.955 151.155C160.955 153.551 158.995 155.511 156.6 155.511C154.204 155.511 152.244 153.551 152.244 151.155C152.244 148.76 154.204 146.8 156.6 146.8Z" fill="#11468F"/>
<path d="M156.6 162.044C150.785 162.044 139.178 164.963 139.178 170.756V177.289H174.022V170.756C174.022 164.963 162.415 162.044 156.6 162.044ZM169.667 172.933H143.533V170.777C143.969 169.209 150.72 166.4 156.6 166.4C162.48 166.4 169.231 169.209 169.667 170.756V172.933Z" fill="#11468F"/>
</g>
<path d="M196.5 120.667V128.833H185.031L184.343 129.522L183.666 130.198V120.667H196.5ZM197.666 118.333H182.5C181.858 118.333 181.333 118.858 181.333 119.5V135.833L186 131.167H197.666C198.308 131.167 198.833 130.642 198.833 130V119.5C198.833 118.858 198.308 118.333 197.666 118.333ZM203.5 123H201.166V133.5H186V135.833C186 136.475 186.525 137 187.166 137H200L204.666 141.667V124.167C204.666 123.525 204.141 123 203.5 123Z" fill="black"/>
<rect x="98.5" y="86.5" width="147" height="159" stroke="#AAAAAA"/>
<path d="M304.185 209.295C304.185 210.945 304.185 212.775 303.705 215.25L305.25 215.43C305.73 212.805 305.73 210.99 305.73 209.295V207.87H295.98V209.13H304.185V209.295ZM302.46 217.11V212.73H300.93V217.11H299.115V212.73H297.585V217.11H294.765V218.385H307.005V217.11H302.46ZM314.684 208.11C316.694 208.11 317.909 208.62 317.909 209.535C317.909 210.435 316.694 210.945 314.684 210.945C312.659 210.945 311.444 210.435 311.444 209.535C311.444 208.62 312.659 208.11 314.684 208.11ZM314.684 212.16C317.624 212.16 319.514 211.17 319.514 209.535C319.514 207.9 317.624 206.91 314.684 206.91C311.729 206.91 309.854 207.9 309.854 209.535C309.854 211.17 311.729 212.16 314.684 212.16ZM316.169 215.775H313.169V214.29H316.169V215.775ZM320.804 214.29V213.045H308.534V214.29H311.624V215.775H309.914V217.005H317.759V220.155H319.304V215.775H317.714V214.29H320.804ZM333.523 206.625H331.978V216.525H333.523V206.625ZM330.568 213.165C328.483 212.445 327.298 210.63 327.298 208.71V207.36H325.723V208.71C325.723 210.69 324.538 212.625 322.408 213.405L323.203 214.65C324.793 214.05 325.918 212.82 326.533 211.305C327.118 212.715 328.228 213.825 329.773 214.395L330.568 213.165ZM326.233 218.64V215.595H324.673V219.9H333.913V218.64H326.233ZM343.391 210.345V211.62H345.836V214.8H347.381V206.595H345.836V210.345H343.391ZM344.231 213.09C342.161 212.505 340.931 211.035 340.931 209.49V209.37H343.781V208.14H340.946V206.55H339.386V208.14H336.536V209.37H339.386V209.49C339.386 211.185 338.216 212.79 336.131 213.435L336.881 214.635C338.471 214.14 339.611 213.075 340.211 211.725C340.826 212.91 341.966 213.855 343.511 214.29L344.231 213.09ZM342.866 218.955C340.946 218.955 339.851 218.475 339.851 217.62C339.851 216.765 340.946 216.3 342.866 216.3C344.801 216.3 345.896 216.765 345.896 217.62C345.896 218.475 344.801 218.955 342.866 218.955ZM342.866 215.1C340.031 215.1 338.306 216.03 338.306 217.62C338.306 219.21 340.031 220.155 342.866 220.155C345.701 220.155 347.441 219.21 347.441 217.62C347.441 216.03 345.701 215.1 342.866 215.1Z" fill="black"/>
<g clip-path="url(#clip1_1234_1118)">
<path d="M331.018 149.713C330.097 149.25 329.137 148.864 328.138 148.535V171.755C325.905 170.964 323.613 170.558 321.282 170.558C317.56 170.558 313.877 171.601 310.507 173.608V150.253C307.334 148.458 303.671 147.397 299.733 147.397C296.227 147.397 292.916 148.246 289.997 149.713C289.351 150.022 288.959 150.697 288.959 151.411V174.728C288.959 175.847 289.88 176.638 290.918 176.638C291.231 176.638 291.545 176.561 291.858 176.407C294.229 175.191 296.893 174.419 299.733 174.419C303.788 174.419 307.53 176.001 310.507 178.279C313.485 176.001 317.227 174.419 321.282 174.419C324.122 174.419 326.786 175.191 329.157 176.426C329.47 176.58 329.784 176.658 330.097 176.658C331.116 176.658 332.056 175.866 332.056 174.747V151.411C332.056 150.697 331.664 150.022 331.018 149.713ZM306.59 171.755C304.356 170.964 302.064 170.558 299.733 170.558C297.402 170.558 295.11 170.964 292.877 171.755V152.627C295.051 151.72 297.343 151.257 299.733 151.257C302.084 151.257 304.415 151.739 306.59 152.647V171.755ZM324.22 140.641L314.425 150.292V168.628L324.22 159.943V140.641Z" fill="black"/>
</g>
<path d="M342.288 129.154L343.65 130.496L330.24 143.708H328.878V142.367L342.288 129.154ZM347.616 120.375C347.246 120.375 346.861 120.521 346.58 120.798L343.872 123.467L349.422 128.935L352.131 126.267C352.708 125.698 352.708 124.779 352.131 124.21L348.667 120.798C348.371 120.506 348.001 120.375 347.616 120.375ZM342.288 125.027L325.918 141.156V146.625H331.468L347.838 130.496L342.288 125.027Z" fill="#11468F"/>
<rect x="248.5" y="86.5" width="147" height="159" stroke="#AAAAAA"/>
<path d="M453.93 210.87H447.825V208.44H453.93V210.87ZM455.445 207.21H446.31V212.1H455.445V207.21ZM447.795 215.985H446.25V219.9H455.67V218.64H447.795V215.985ZM444.75 213.435V214.68H450.24V217.215H451.785V214.68H457.035V213.435H444.75ZM466.694 208.17H463.454V206.655H461.909V208.17H458.639V209.415H466.694V208.17ZM460.889 212.625C460.889 211.785 461.624 211.275 462.689 211.275C463.754 211.275 464.474 211.785 464.474 212.625C464.474 213.45 463.754 213.96 462.689 213.96C461.624 213.96 460.889 213.45 460.889 212.625ZM463.454 215.085C464.954 214.845 465.929 213.915 465.929 212.625C465.929 211.095 464.609 210.09 462.689 210.09C460.754 210.09 459.434 211.095 459.434 212.625C459.434 213.915 460.409 214.83 461.909 215.085V216.405C460.649 216.45 459.434 216.45 458.399 216.45L458.609 217.725C460.934 217.725 464.069 217.695 466.964 217.185L466.844 216.045C465.764 216.21 464.609 216.285 463.454 216.345V215.085ZM471.074 212.265H469.154V206.595H467.609V220.155H469.154V213.54H471.074V212.265ZM480.943 211.41H482.353V215.145H483.823V206.595H482.353V210.135H480.943V206.865H479.503V214.68H480.943V211.41ZM479.038 208.125H476.428V206.73H474.913V208.125H472.288V209.34H479.038V208.125ZM474.163 212.265C474.163 211.53 474.763 211.05 475.678 211.05C476.593 211.05 477.208 211.53 477.208 212.265C477.208 213 476.593 213.48 475.678 213.48C474.763 213.48 474.163 213 474.163 212.265ZM478.588 212.265C478.588 210.87 477.388 209.925 475.678 209.925C473.983 209.925 472.783 210.87 472.783 212.265C472.783 213.675 473.983 214.605 475.678 214.605C477.388 214.605 478.588 213.675 478.588 212.265ZM479.323 218.985C477.388 218.985 476.278 218.55 476.278 217.74C476.278 216.93 477.388 216.51 479.323 216.51C481.273 216.51 482.353 216.93 482.353 217.74C482.353 218.55 481.273 218.985 479.323 218.985ZM479.323 215.34C476.458 215.34 474.733 216.21 474.733 217.74C474.733 219.27 476.458 220.155 479.323 220.155C482.173 220.155 483.898 219.27 483.898 217.74C483.898 216.21 482.173 215.34 479.323 215.34ZM490.901 207.735H489.356V209.955C489.356 212.46 488.036 215.025 485.921 216.06L486.866 217.305C488.411 216.51 489.551 214.935 490.136 213.06C490.721 214.83 491.801 216.3 493.256 217.05L494.201 215.82C492.161 214.815 490.901 212.37 490.901 209.955V207.735ZM498.761 211.98H496.646V206.61H495.101V220.155H496.646V213.255H498.761V211.98Z" fill="black"/>
<path d="M487.167 138.5H485V134.167H480.667V138.5H463.333V134.167H459V138.5H456.833C454.45 138.5 452.5 140.45 452.5 142.833V173.167C452.5 175.55 454.45 177.5 456.833 177.5H487.167C489.55 177.5 491.5 175.55 491.5 173.167V142.833C491.5 140.45 489.55 138.5 487.167 138.5ZM487.167 173.167H456.833V151.5H487.167V173.167ZM456.833 147.167V142.833H487.167V147.167H456.833ZM468.88 169.83L481.728 156.982L479.432 154.685L468.88 165.237L464.308 160.665L462.012 162.962L468.88 169.83Z" fill="black"/>
<rect x="461.929" y="163.057" width="3.37239" height="9.71596" transform="rotate(-45.1637 461.929 163.057)" fill="#11468F"/>
<rect x="479.3" y="154.546" width="3.42986" height="17.4178" transform="rotate(44.9212 479.3 154.546)" fill="#11468F"/>
<rect x="398.5" y="86.5" width="147" height="159" stroke="#AAAAAA"/>
<path d="M602.775 207.93H599.55V206.535H598.005V207.93H594.78V209.16H602.775V207.93ZM596.97 212.22C596.97 211.41 597.69 210.93 598.77 210.93C599.85 210.93 600.585 211.41 600.585 212.22C600.585 213.015 599.85 213.495 598.77 213.495C597.69 213.495 596.97 213.015 596.97 212.22ZM602.055 212.22C602.055 210.735 600.72 209.745 598.77 209.745C596.82 209.745 595.485 210.735 595.485 212.22C595.485 213.69 596.82 214.68 598.77 214.68C600.72 214.68 602.055 213.69 602.055 212.22ZM596.43 216.99H603.795V220.155H605.34V215.745H596.43V216.99ZM607.26 210.24H605.34V206.61H603.795V215.085H605.34V211.515H607.26V210.24ZM620.174 210.18C617.459 209.91 615.479 208.575 615.479 207.06V206.67H613.889V207.06C613.889 208.575 611.909 209.91 609.194 210.18L609.719 211.365C611.969 211.095 613.814 210.165 614.684 208.815C615.554 210.165 617.399 211.095 619.649 211.365L620.174 210.18ZM620.819 213.33V212.1H608.549V213.33H613.889V214.47H610.004V215.64H617.759V216.645H610.034V220.035H619.664V218.85H611.564V217.74H619.274V214.47H615.449V213.33H620.819ZM630.943 211.41H632.353V215.145H633.823V206.595H632.353V210.135H630.943V206.865H629.503V214.68H630.943V211.41ZM629.038 208.125H626.428V206.73H624.913V208.125H622.288V209.34H629.038V208.125ZM624.163 212.265C624.163 211.53 624.763 211.05 625.678 211.05C626.593 211.05 627.208 211.53 627.208 212.265C627.208 213 626.593 213.48 625.678 213.48C624.763 213.48 624.163 213 624.163 212.265ZM628.588 212.265C628.588 210.87 627.388 209.925 625.678 209.925C623.983 209.925 622.783 210.87 622.783 212.265C622.783 213.675 623.983 214.605 625.678 214.605C627.388 214.605 628.588 213.675 628.588 212.265ZM629.323 218.985C627.388 218.985 626.278 218.55 626.278 217.74C626.278 216.93 627.388 216.51 629.323 216.51C631.273 216.51 632.353 216.93 632.353 217.74C632.353 218.55 631.273 218.985 629.323 218.985ZM629.323 215.34C626.458 215.34 624.733 216.21 624.733 217.74C624.733 219.27 626.458 220.155 629.323 220.155C632.173 220.155 633.898 219.27 633.898 217.74C633.898 216.21 632.173 215.34 629.323 215.34ZM640.901 207.735H639.356V209.955C639.356 212.46 638.036 215.025 635.921 216.06L636.866 217.305C638.411 216.51 639.551 214.935 640.136 213.06C640.721 214.83 641.801 216.3 643.256 217.05L644.201 215.82C642.161 214.815 640.901 212.37 640.901 209.955V207.735ZM648.761 211.98H646.646V206.61H645.101V220.155H646.646V213.255H648.761V211.98Z" fill="black"/>
<path d="M615.5 149.667V167L630.667 158.333L615.5 149.667ZM641.5 141H625.077L632.205 133.872L630.667 132.333L622 141H621.935L613.269 132.333L611.774 133.872L618.88 141H602.5C600.117 141 598.167 142.95 598.167 145.333V171.333C598.167 173.717 600.117 175.667 602.5 175.667H641.5C643.884 175.667 645.834 173.717 645.834 171.333V145.333C645.834 142.95 643.884 141 641.5 141ZM641.5 171.333H602.5V145.333H641.5V171.333Z" fill="black"/>
<path d="M632 158L615.5 167.526L615.5 148.474L632 158Z" fill="#11468F"/>
<rect x="548.5" y="86.5" width="147" height="159" stroke="#AAAAAA"/>
<path d="M746.73 209.475H750.225V208.215H745.215V216.93H746.115C748.02 216.93 749.415 216.87 751.05 216.555L750.915 215.28C749.52 215.565 748.29 215.64 746.73 215.655V209.475ZM754.845 206.595V211.95H753.24V206.88H751.785V219.48H753.24V213.21H754.845V220.14H756.315V206.595H754.845ZM765.719 212.415C766.049 210.66 766.049 209.325 766.049 208.41V207.63H759.239V208.89H764.534C764.519 209.73 764.474 210.795 764.204 212.25L765.719 212.415ZM766.844 213.09C765.509 213.3 764.054 213.39 762.644 213.45V210.72H761.114V213.495C760.154 213.525 759.224 213.525 758.414 213.525L758.579 214.785C760.934 214.785 764.129 214.71 766.949 214.215L766.844 213.09ZM762.014 215.88H760.454V219.9H769.664V218.64H762.014V215.88ZM769.229 210.9V206.61H767.669V216.78H769.229V212.175H771.029V210.9H769.229ZM783.523 206.625H781.978V216.525H783.523V206.625ZM780.568 213.165C778.483 212.445 777.298 210.63 777.298 208.71V207.36H775.723V208.71C775.723 210.69 774.538 212.625 772.408 213.405L773.203 214.65C774.793 214.05 775.918 212.82 776.533 211.305C777.118 212.715 778.228 213.825 779.773 214.395L780.568 213.165ZM776.233 218.64V215.595H774.673V219.9H783.913V218.64H776.233ZM793.391 210.345V211.62H795.836V214.8H797.381V206.595H795.836V210.345H793.391ZM794.231 213.09C792.161 212.505 790.931 211.035 790.931 209.49V209.37H793.781V208.14H790.946V206.55H789.386V208.14H786.536V209.37H789.386V209.49C789.386 211.185 788.216 212.79 786.131 213.435L786.881 214.635C788.471 214.14 789.611 213.075 790.211 211.725C790.826 212.91 791.966 213.855 793.511 214.29L794.231 213.09ZM792.866 218.955C790.946 218.955 789.851 218.475 789.851 217.62C789.851 216.765 790.946 216.3 792.866 216.3C794.801 216.3 795.896 216.765 795.896 217.62C795.896 218.475 794.801 218.955 792.866 218.955ZM792.866 215.1C790.031 215.1 788.306 216.03 788.306 217.62C788.306 219.21 790.031 220.155 792.866 220.155C795.701 220.155 797.441 219.21 797.441 217.62C797.441 216.03 795.701 215.1 792.866 215.1Z" fill="black"/>
<path d="M756.857 169.75H758.286V137.688C758.286 136.756 759.053 136 760 136H784C784.947 136 785.714 136.756 785.714 137.688V169.75H787.143C787.616 169.75 788 170.128 788 170.594V172H756V170.594C756 170.128 756.384 169.75 756.857 169.75ZM778.857 141.344C778.857 140.878 778.473 140.5 778 140.5H775.143C774.669 140.5 774.286 140.878 774.286 141.344V144.156C774.286 144.622 774.669 145 775.143 145H778C778.473 145 778.857 144.622 778.857 144.156V141.344ZM778.857 148.094C778.857 147.628 778.473 147.25 778 147.25H775.143C774.669 147.25 774.286 147.628 774.286 148.094V150.906C774.286 151.372 774.669 151.75 775.143 151.75H778C778.473 151.75 778.857 151.372 778.857 150.906V148.094ZM775.143 158.5H778C778.473 158.5 778.857 158.122 778.857 157.656V154.844C778.857 154.378 778.473 154 778 154H775.143C774.669 154 774.286 154.378 774.286 154.844V157.656C774.286 158.122 774.669 158.5 775.143 158.5ZM769.714 169.75H774.286V163.844C774.286 163.378 773.902 163 773.429 163H770.571C770.098 163 769.714 163.378 769.714 163.844V169.75ZM765.143 157.656C765.143 158.122 765.527 158.5 766 158.5H768.857C769.33 158.5 769.714 158.122 769.714 157.656V154.844C769.714 154.378 769.33 154 768.857 154H766C765.527 154 765.143 154.378 765.143 154.844V157.656ZM765.143 150.906C765.143 151.372 765.527 151.75 766 151.75H768.857C769.33 151.75 769.714 151.372 769.714 150.906V148.094C769.714 147.628 769.33 147.25 768.857 147.25H766C765.527 147.25 765.143 147.628 765.143 148.094V150.906ZM765.143 144.156C765.143 144.622 765.527 145 766 145H768.857C769.33 145 769.714 144.622 769.714 144.156V141.344C769.714 140.878 769.33 140.5 768.857 140.5H766C765.527 140.5 765.143 140.878 765.143 141.344V144.156Z" fill="#11468F"/>
<path d="M736.143 149.406V146.594C736.143 146.13 736.529 145.75 737 145.75H739.857C740.329 145.75 740.714 146.13 740.714 146.594V149.406C740.714 149.87 740.329 150.25 739.857 150.25H737C736.529 150.25 736.143 149.87 736.143 149.406ZM746.143 150.25H749C749.471 150.25 749.857 149.87 749.857 149.406V146.594C749.857 146.13 749.471 145.75 749 145.75H746.143C745.671 145.75 745.286 146.13 745.286 146.594V149.406C745.286 149.87 745.671 150.25 746.143 150.25ZM737 157H739.857C740.329 157 740.714 156.62 740.714 156.156V153.344C740.714 152.88 740.329 152.5 739.857 152.5H737C736.529 152.5 736.143 152.88 736.143 153.344V156.156C736.143 156.62 736.529 157 737 157ZM746.143 157H749C749.471 157 749.857 156.62 749.857 156.156V153.344C749.857 152.88 749.471 152.5 749 152.5H746.143C745.671 152.5 745.286 152.88 745.286 153.344V156.156C745.286 156.62 745.671 157 746.143 157ZM740.714 162.906V160.094C740.714 159.63 740.329 159.25 739.857 159.25H737C736.529 159.25 736.143 159.63 736.143 160.094V162.906C736.143 163.37 736.529 163.75 737 163.75H739.857C740.329 163.75 740.714 163.37 740.714 162.906ZM746.143 163.75H749C749.471 163.75 749.857 163.37 749.857 162.906V160.094C749.857 159.63 749.471 159.25 749 159.25H746.143C745.671 159.25 745.286 159.63 745.286 160.094V162.906C745.286 163.37 745.671 163.75 746.143 163.75ZM759 172.469V175H727V172.469C727 172.005 727.386 171.625 727.857 171.625H729.25V140.688C729.25 139.752 730.014 139 730.964 139H755.036C755.986 139 756.75 139.752 756.75 140.688V171.625H758.143C758.614 171.625 759 172.005 759 172.469ZM732.679 171.555H740.714V166.844C740.714 166.38 741.1 166 741.571 166H744.429C744.9 166 745.286 166.38 745.286 166.844V171.555H753.321V142.445L732.714 142.375L732.679 171.555Z" fill="black"/>
<path d="M794.143 149.406V146.594C794.143 146.13 794.529 145.75 795 145.75H797.857C798.329 145.75 798.714 146.13 798.714 146.594V149.406C798.714 149.87 798.329 150.25 797.857 150.25H795C794.529 150.25 794.143 149.87 794.143 149.406ZM804.143 150.25H807C807.471 150.25 807.857 149.87 807.857 149.406V146.594C807.857 146.13 807.471 145.75 807 145.75H804.143C803.671 145.75 803.286 146.13 803.286 146.594V149.406C803.286 149.87 803.671 150.25 804.143 150.25ZM795 157H797.857C798.329 157 798.714 156.62 798.714 156.156V153.344C798.714 152.88 798.329 152.5 797.857 152.5H795C794.529 152.5 794.143 152.88 794.143 153.344V156.156C794.143 156.62 794.529 157 795 157ZM804.143 157H807C807.471 157 807.857 156.62 807.857 156.156V153.344C807.857 152.88 807.471 152.5 807 152.5H804.143C803.671 152.5 803.286 152.88 803.286 153.344V156.156C803.286 156.62 803.671 157 804.143 157ZM798.714 162.906V160.094C798.714 159.63 798.329 159.25 797.857 159.25H795C794.529 159.25 794.143 159.63 794.143 160.094V162.906C794.143 163.37 794.529 163.75 795 163.75H797.857C798.329 163.75 798.714 163.37 798.714 162.906ZM804.143 163.75H807C807.471 163.75 807.857 163.37 807.857 162.906V160.094C807.857 159.63 807.471 159.25 807 159.25H804.143C803.671 159.25 803.286 159.63 803.286 160.094V162.906C803.286 163.37 803.671 163.75 804.143 163.75ZM817 172.469V175H785V172.469C785 172.005 785.386 171.625 785.857 171.625H787.25V140.688C787.25 139.752 788.014 139 788.964 139H813.036C813.986 139 814.75 139.752 814.75 140.688V171.625H816.143C816.614 171.625 817 172.005 817 172.469ZM790.679 171.555H798.714V166.844C798.714 166.38 799.1 166 799.571 166H802.429C802.9 166 803.286 166.38 803.286 166.844V171.555H811.321V142.445L790.714 142.375L790.679 171.555Z" fill="black"/>
<rect x="698.5" y="86.5" width="147" height="159" stroke="#AAAAAA"/>
<path d="M137.76 374.895C135.705 374.34 134.535 372.9 134.535 371.4V371.295H137.385V370.065H134.55V368.565H132.99V370.065H130.14V371.295H132.99V371.4C132.99 373.035 131.805 374.55 129.72 375.135L130.44 376.335C132.045 375.87 133.185 374.865 133.8 373.575C134.385 374.745 135.51 375.66 137.055 376.095L137.76 374.895ZM140.535 378.3V377.07H131.595V378.3H135.21C134.94 379.53 133.335 380.625 131.025 380.925L131.61 382.11C133.68 381.795 135.3 380.895 136.08 379.635C136.845 380.88 138.465 381.825 140.52 382.125L141.075 380.955C138.81 380.625 137.205 379.5 136.92 378.3H140.535ZM140.34 371.82V368.61H138.795V376.41H140.34V373.095H142.26V371.82H140.34ZM147.164 377.775C145.979 377.775 145.169 376.5 145.169 374.385C145.169 372.27 145.979 370.995 147.164 370.995C148.334 370.995 149.159 372.27 149.159 374.385C149.159 376.5 148.334 377.775 147.164 377.775ZM147.164 369.6C145.139 369.6 143.684 371.46 143.684 374.385C143.684 377.31 145.139 379.155 147.164 379.155C149.189 379.155 150.644 377.31 150.644 374.385C150.644 371.46 149.189 369.6 147.164 369.6ZM156.164 373.905H154.049V368.61H152.504V382.17H154.049V375.18H156.164V373.905ZM160.003 373.035C160.003 371.565 161.458 370.635 163.483 370.635C165.493 370.635 166.948 371.565 166.948 373.035C166.948 374.505 165.493 375.435 163.483 375.435C161.458 375.435 160.003 374.505 160.003 373.035ZM164.248 379.23V376.65C166.723 376.425 168.463 375.045 168.463 373.035C168.463 370.83 166.348 369.405 163.483 369.405C160.603 369.405 158.503 370.83 158.503 373.035C158.503 375.045 160.228 376.41 162.703 376.635V379.23H157.363V380.49H169.633V379.23H164.248ZM176.156 369.735H174.611V371.955C174.611 374.565 173.201 377.16 171.041 378.135L171.956 379.425C173.591 378.63 174.791 377.025 175.406 375.06C176.021 376.89 177.206 378.39 178.766 379.125L179.666 377.895C177.536 376.935 176.156 374.445 176.156 371.955V369.735ZM180.746 368.595V382.185H182.306V368.595H180.746ZM195.835 372.495H188.08V369.09H186.535V373.755H195.835V372.495ZM187.99 377.865H186.445V381.855H195.91V380.61H187.99V377.865ZM184.945 375.375V376.62H197.245V375.375H184.945ZM213.288 368.61H211.743V375.48H213.288V368.61ZM203.028 369.195V370.455H207.543C207.348 372.36 205.698 373.815 202.338 374.505L202.878 375.75C206.988 374.85 209.238 372.75 209.238 369.195H203.028ZM205.983 380.805V379.545H213.288V376.08H204.408V377.28H211.743V378.42H204.438V382.035H213.693V380.805H205.983Z" fill="black"/>
<g clip-path="url(#clip2_1234_1118)">
<path d="M191.395 311.761C191.257 311.761 191.115 311.787 190.976 311.842L179.014 316.193H179.013L166.913 311.988C166.454 311.838 165.974 311.761 165.49 311.761C165.019 311.761 164.549 311.834 164.096 311.979L153.415 315.636C152.998 315.8 152.64 316.084 152.387 316.451C152.135 316.817 152 317.25 152 317.693V341.675C152 342.311 152.53 342.784 153.125 342.784C153.263 342.784 153.404 342.758 153.544 342.704L165.506 338.352L177.606 342.556C178.52 342.856 179.507 342.86 180.423 342.567L191.104 338.91C191.522 338.745 191.88 338.461 192.132 338.095C192.385 337.728 192.519 337.295 192.519 336.852V312.871C192.519 312.234 191.99 311.761 191.395 311.761ZM167.758 315.807L176.762 318.936V338.739L167.758 335.609V315.807ZM155.377 338.494V318.483L164.381 315.399V335.218L164.336 335.234L155.377 338.494ZM189.143 336.061L180.139 339.145V319.327L180.184 319.311L189.143 316.051V336.061Z" fill="black"/>
</g>
<g clip-path="url(#clip3_1234_1118)">
<path d="M173.301 306.468C180.967 295.355 182.39 294.214 182.39 290.13C182.39 284.535 177.854 280 172.26 280C166.665 280 162.13 284.535 162.13 290.13C162.13 294.214 163.553 295.355 171.219 306.468C171.722 307.195 172.798 307.195 173.301 306.468ZM172.26 294.351C169.929 294.351 168.039 292.461 168.039 290.13C168.039 287.799 169.929 285.909 172.26 285.909C174.591 285.909 176.481 287.799 176.481 290.13C176.481 292.461 174.591 294.351 172.26 294.351Z" fill="#11468F"/>
</g>
<rect x="98.5" y="248.5" width="147" height="159" stroke="#AAAAAA"/>
<path d="M301.92 374.415C302.25 372.66 302.25 371.325 302.25 370.41V369.63H295.44V370.89H300.735C300.72 371.73 300.675 372.795 300.405 374.25L301.92 374.415ZM303.045 375.09C301.71 375.3 300.255 375.39 298.845 375.45V372.72H297.315V375.495C296.355 375.525 295.425 375.525 294.615 375.525L294.78 376.785C297.135 376.785 300.33 376.71 303.15 376.215L303.045 375.09ZM298.215 377.88H296.655V381.9H305.865V380.64H298.215V377.88ZM305.43 372.9V368.61H303.87V378.78H305.43V374.175H307.23V372.9H305.43ZM316.439 374.385C314.579 374.73 312.944 374.805 310.619 374.82V373.215H315.224V369.315H309.074V370.575H313.694V372.03H309.104V376.08H310.199C312.794 376.08 314.564 376.005 316.604 375.645L316.439 374.385ZM311.999 378.525H317.624V380.76H311.999V378.525ZM310.484 381.99H319.139V377.31H310.484V381.99ZM321.059 371.97H319.139V368.625H317.594V376.68H319.139V373.245H321.059V371.97ZM324.043 372.9C324.043 371.67 324.943 370.86 326.128 370.86C327.313 370.86 328.228 371.67 328.228 372.9C328.228 374.145 327.313 374.955 326.128 374.955C324.943 374.955 324.043 374.145 324.043 372.9ZM329.743 372.9C329.743 370.92 328.183 369.525 326.128 369.525C324.088 369.525 322.528 370.92 322.528 372.9C322.528 374.88 324.088 376.29 326.128 376.29C328.183 376.29 329.743 374.88 329.743 372.9ZM325.918 377.52H324.358V381.9H333.478V380.64H325.918V377.52ZM332.938 372.63V368.61H331.393V378.54H332.938V373.905H334.858V372.63H332.938ZM338.306 370.17H336.761V378.735H337.661C339.071 378.735 340.631 378.66 342.446 378.33L342.281 377.01C340.811 377.28 339.506 377.385 338.306 377.415V370.17ZM346.211 368.61V373.995H344.606V368.88H343.151V381.48H344.606V375.27H346.211V382.155H347.681V368.61H346.211Z" fill="black"/>
<path d="M340.682 299.613C338.384 299.57 336.503 301.472 336.503 303.743V312.575H335.684V294.73C335.684 292.459 333.803 290.557 331.506 290.6C329.279 290.642 327.487 292.439 327.487 294.65V312.575H326.668V290.781C326.668 288.509 324.787 286.607 322.489 286.651C320.263 286.693 318.471 288.49 318.471 290.701V312.575H317.652V294.831C317.652 292.56 315.771 290.658 313.473 290.701C311.247 290.744 309.455 292.541 309.455 294.751V318.65L306.213 314.243C304.881 312.434 302.318 312.034 300.488 313.35C298.657 314.665 298.253 317.199 299.584 319.008L312.452 336.498C312.909 337.118 313.507 337.623 314.198 337.97C314.889 338.318 315.654 338.5 316.43 338.5H336.674C338.956 338.5 340.938 336.948 341.461 334.752L344.177 323.343C344.524 321.884 344.7 320.389 344.7 318.89V303.663C344.7 301.452 342.908 299.655 340.682 299.613Z" fill="black"/>
<g clip-path="url(#clip4_1234_1118)">
<path d="M306.945 311.3V335.1H345.904V311.3H306.945ZM342.008 332.125H310.841V314.275H342.008V332.125Z" fill="#11468F"/>
<path d="M342.007 314.275H310.841V332.125H342.007V314.275Z" fill="white"/>
</g>
<rect x="248.5" y="248.5" width="147" height="159" stroke="#AAAAAA"/>
<rect width="30" height="30" transform="translate(436 284.49)" fill="black"/>
<path d="M457.891 291.274H454.375V308.29H457.891V299.923H459.648V297.462H457.891V291.274ZM451.984 291.802H443.582V294.263H449.559C449.723 297.31 449.16 299.712 447.871 301.47C446.605 303.204 444.766 304.423 442.352 305.126L444.109 307.06C447.273 306.31 449.547 304.856 450.93 302.7C452.336 300.544 453.039 297.802 453.039 294.474V292.856C453.039 292.505 452.945 292.247 452.758 292.083C452.594 291.896 452.336 291.802 451.984 291.802Z" fill="white"/>
<rect width="30" height="30" transform="translate(436 319.49)" fill="black"/>
<path d="M457.891 326.063H454.375V339.282H447.133V329.017H453.004V326.556H443.617V340.267C443.617 340.712 443.746 341.063 444.004 341.321C444.285 341.603 444.648 341.743 445.094 341.743H454.375V343.36H457.891V334.079H459.648V331.618H457.891V326.063Z" fill="white"/>
<rect width="30" height="30" transform="translate(471 319.49)" fill="black"/>
<path d="M492.891 326.099H489.375V339.388H481.852V334.817H487.652V326.696H478.406V329.157H484.137V332.356H478.336V340.372C478.336 340.817 478.465 341.169 478.723 341.427C479.004 341.708 479.367 341.849 479.812 341.849H489.375V343.325H492.891V334.853H494.648V332.392H492.891V326.099Z" fill="white"/>
<rect width="30" height="30" transform="translate(467.51 291) rotate(-30)" fill="#11468F"/>
<path d="M489.754 285.747L486.709 287.505L493.266 298.862L486.903 302.535L480.61 291.636L477.565 293.393L484.35 305.146C484.573 305.531 484.86 305.771 485.212 305.866C485.597 305.969 485.982 305.909 486.367 305.686L494.496 300.993L495.252 302.302L498.297 300.544L493.709 292.598L495.231 291.719L494.001 289.588L492.478 290.466L489.754 285.747Z" fill="white"/>
<path d="M447.81 368.55V378.81H449.385V368.55H447.81ZM448.92 372.9V374.205H451.32V372.9H448.92ZM438.705 370.11V371.355H446.775V370.11H438.705ZM442.74 371.985C440.775 371.985 439.41 373.035 439.41 374.58C439.41 376.14 440.775 377.175 442.74 377.175C444.69 377.175 446.055 376.14 446.055 374.58C446.055 373.035 444.69 371.985 442.74 371.985ZM442.74 373.2C443.82 373.2 444.555 373.725 444.555 374.58C444.555 375.45 443.82 375.96 442.74 375.96C441.66 375.96 440.925 375.45 440.925 374.58C440.925 373.725 441.66 373.2 442.74 373.2ZM441.96 368.535V370.725H443.52V368.535H441.96ZM440.715 380.7V381.975H449.94V380.7H440.715ZM440.715 378.015V381.24H442.29V378.015H440.715ZM454.034 369.105V370.35H462.794V369.105H454.034ZM452.489 373.515V374.775H464.909V373.515H452.489ZM461.819 369.105V370.005C461.819 370.965 461.819 372.12 461.459 373.74L463.004 373.89C463.364 372.255 463.364 370.995 463.364 370.005V369.105H461.819ZM453.914 375.945V377.175H461.804V378.405H453.929V381.27H455.504V379.59H463.364V375.945H453.914ZM453.929 380.88V382.11H463.724V380.88H453.929ZM467.893 371.52V372.78H477.253V371.52H467.893ZM466.273 374.085V375.345H478.693V374.085H466.273ZM467.893 368.715V372.195H469.438V368.715H467.893ZM467.758 376.305V377.505H475.603V378.555H467.773V381.24H469.348V379.665H477.163V376.305H467.758ZM467.773 380.865V382.08H477.598V380.865H467.773ZM471.703 372.27V374.805H473.263V372.27H471.703ZM489.791 368.52V382.26H491.366V368.52H489.791ZM484.061 369.54C482.021 369.54 480.536 371.415 480.536 374.37C480.536 377.325 482.021 379.215 484.061 379.215C486.116 379.215 487.601 377.325 487.601 374.37C487.601 371.415 486.116 369.54 484.061 369.54ZM484.061 370.965C485.261 370.965 486.086 372.24 486.086 374.37C486.086 376.515 485.261 377.805 484.061 377.805C482.861 377.805 482.036 376.515 482.036 374.37C482.036 372.24 482.861 370.965 484.061 370.965ZM503.695 368.52V382.26H505.255V368.52H503.695ZM501.07 373.545V374.835H503.905V373.545H501.07ZM494.5 377.775V379.05H495.565C498.055 379.05 499.765 378.99 501.745 378.66L501.595 377.4C499.66 377.73 498.01 377.775 495.565 377.775H494.5ZM494.5 369.735V378.195H496.06V371.025H500.845V369.735H494.5ZM495.685 373.575V374.82H500.305V373.575H495.685Z" fill="black"/>
<rect x="398.5" y="248.5" width="147" height="159" stroke="#AAAAAA"/>
<path d="M599.505 371.235H602.37V369.96H595.005V371.235H597.96V372.54C597.96 374.79 596.58 377.355 594.51 378.345L595.395 379.575C596.955 378.81 598.155 377.19 598.755 375.3C599.37 377.01 600.525 378.51 602.04 379.23L602.895 378.015C600.84 377.04 599.505 374.64 599.505 372.54V371.235ZM607.365 373.95H605.25V368.61H603.705V382.155H605.25V375.225H607.365V373.95ZM615.584 376.56V377.64H618.239V378.9H619.784V368.595H618.239V376.56H615.584ZM612.884 370.26C613.994 370.26 614.759 370.74 614.759 371.505C614.759 372.27 613.994 372.75 612.884 372.75C611.759 372.75 610.994 372.27 610.994 371.505C610.994 370.74 611.759 370.26 612.884 370.26ZM612.884 373.89C614.864 373.89 616.229 372.945 616.229 371.505C616.229 370.065 614.864 369.12 612.884 369.12C610.889 369.12 609.524 370.065 609.524 371.505C609.524 372.945 610.889 373.89 612.884 373.89ZM612.269 378.465H613.814V375.855C614.969 375.78 616.154 375.66 617.294 375.465L617.174 374.355C614.309 374.715 610.979 374.745 608.489 374.76L608.684 376.02C609.764 376.02 610.979 376.005 612.269 375.945V378.465ZM611.864 380.64V377.895H610.319V381.9H620.099V380.64H611.864ZM628.453 380.985C626.473 380.985 625.363 380.565 625.363 379.77C625.363 378.975 626.473 378.555 628.453 378.555C630.448 378.555 631.558 378.975 631.558 379.77C631.558 380.565 630.448 380.985 628.453 380.985ZM628.453 377.385C625.543 377.385 623.803 378.24 623.803 379.77C623.803 381.3 625.543 382.155 628.453 382.155C631.378 382.155 633.118 381.3 633.118 379.77C633.118 378.24 631.378 377.385 628.453 377.385ZM625.468 371.505H631.498V372.81H625.468V371.505ZM629.248 375.285V374.04H633.028V368.985H631.498V370.32H625.468V368.985H623.938V374.04H627.688V375.285H622.333V376.53H634.618V375.285H629.248ZM640.901 369.735H639.356V371.955C639.356 374.46 638.036 377.025 635.921 378.06L636.866 379.305C638.411 378.51 639.551 376.935 640.136 375.06C640.721 376.83 641.801 378.3 643.256 379.05L644.201 377.82C642.161 376.815 640.901 374.37 640.901 371.955V369.735ZM648.761 373.98H646.646V368.61H645.101V382.155H646.646V375.255H648.761V373.98Z" fill="black"/>
<path d="M609.72 322.45C608.544 321.321 606.314 321.089 604.75 321.938C603.186 322.786 602.864 324.396 604.04 325.525L608.267 329.593C608.799 330.105 608.722 330.818 608.1 331.267L606.68 332.292C605.937 332.828 604.728 332.788 604.062 332.204L594.1 323.571V311.688C594.1 310.27 592.514 309.125 590.55 309.125C588.586 309.125 587 310.27 587 311.688V329.177C587 330.049 587.41 330.898 588.165 331.579L599.713 342.333C600.268 342.854 600.645 343.446 600.867 344.071C601.067 344.624 601.766 345 602.565 345H617.175C618.151 345 618.95 344.423 618.95 343.719V334.75C618.95 332.532 617.952 330.378 616.11 328.6L609.72 322.45ZM654.45 309.125C652.486 309.125 650.9 310.27 650.9 311.688V323.571L640.938 332.204C640.272 332.78 639.052 332.82 638.32 332.292L636.9 331.267C636.278 330.818 636.201 330.105 636.733 329.593L640.96 325.525C642.136 324.396 641.814 322.786 640.25 321.938C638.686 321.089 636.456 321.321 635.28 322.45L628.89 328.6C627.048 330.378 626.05 332.532 626.05 334.75V343.719C626.05 344.423 626.849 345 627.825 345H642.435C643.223 345 643.933 344.624 644.133 344.071C644.355 343.446 644.732 342.854 645.287 342.333L656.835 331.579C657.59 330.898 658 330.049 658 329.177V311.688C658 310.27 656.414 309.125 654.45 309.125Z" fill="#11468F"/>
<path d="M645.928 291.268L624.64 301.598C624.527 294.682 629.563 291.424 633.236 289.641C640.22 286.252 644.456 288.927 645.928 291.268Z" fill="black" stroke="black"/>
<path d="M624.94 302.961L646.199 292.552C646.351 299.458 641.325 302.734 637.657 304.53C630.682 307.945 626.427 305.292 624.94 302.961Z" fill="black" stroke="black"/>
<path d="M598.055 291.611L620.103 301.49C619.811 294.502 614.547 291.342 610.743 289.638C603.51 286.397 599.401 289.209 598.055 291.611Z" fill="black" stroke="black"/>
<path d="M619.881 302.873L597.858 292.914C598.11 299.893 603.364 303.07 607.164 304.789C614.389 308.056 618.52 305.266 619.881 302.873Z" fill="black" stroke="black"/>
<line x1="622.644" y1="303.197" x2="622.644" y2="321.434" stroke="black"/>
<rect x="548.5" y="248.5" width="147" height="159" stroke="#AAAAAA"/>
<circle cx="772.5" cy="294" r="9" stroke="black" stroke-width="4"/>
<path d="M765 300C762.778 300.778 758.067 303.467 757 308" stroke="black" stroke-width="4"/>
<path d="M781 300C782.389 300.778 785.333 303.467 786 308" stroke="black" stroke-width="4"/>
<path d="M772.5 315.5L752 306V333.5L772.5 342M772.5 315.5V342M772.5 315.5L791.5 306V333.5L772.5 342" stroke="#11468F" stroke-width="4"/>
<path d="M779 320V317.9L787 314V316.1L779 320Z" fill="#11468F" stroke="#11468F" stroke-width="4"/>
<path d="M729.675 375.72V376.98H742.065V375.72H729.675ZM735.09 373.74V376.32H736.65V373.74H735.09ZM731.235 380.7V381.975H740.685V380.7H731.235ZM731.235 378V381.12H732.81V378H731.235ZM735.87 368.91C732.915 368.91 730.995 369.975 730.995 371.685C730.995 373.425 732.915 374.46 735.87 374.46C738.825 374.46 740.76 373.425 740.76 371.685C740.76 369.975 738.825 368.91 735.87 368.91ZM735.87 370.17C737.895 370.17 739.14 370.725 739.14 371.685C739.14 372.66 737.895 373.2 735.87 373.2C733.86 373.2 732.615 372.66 732.615 371.685C732.615 370.725 733.86 370.17 735.87 370.17ZM752.549 368.52V382.26H754.109V368.52H752.549ZM753.749 373.86V375.165H756.239V373.86H753.749ZM744.044 377.715V379.02H745.154C747.674 379.02 749.519 378.915 751.619 378.54L751.469 377.265C749.414 377.64 747.614 377.715 745.154 377.715H744.044ZM744.014 369.75V371.025H748.694V373.575H744.044V378.225H745.589V374.85H750.254V369.75H744.014ZM767.008 368.55V378.48H768.583V368.55H767.008ZM759.628 380.7V381.975H768.973V380.7H759.628ZM759.628 377.475V381.18H761.203V377.475H759.628ZM761.188 369.465C759.118 369.465 757.543 370.875 757.543 372.885C757.543 374.865 759.118 376.305 761.188 376.305C763.258 376.305 764.818 374.865 764.818 372.885C764.818 370.875 763.258 369.465 761.188 369.465ZM761.188 370.815C762.388 370.815 763.288 371.625 763.288 372.885C763.288 374.115 762.388 374.925 761.188 374.925C759.988 374.925 759.073 374.115 759.073 372.885C759.073 371.625 759.988 370.815 761.188 370.815ZM774.456 379.245V380.535H786.876V379.245H774.456ZM779.811 376.05V379.635H781.371V376.05H779.811ZM779.766 369.375V370.41C779.766 372.51 777.576 374.565 774.846 375.03L775.506 376.335C778.626 375.72 781.131 373.335 781.131 370.41V369.375H779.766ZM780.051 369.375V370.41C780.051 373.35 782.556 375.72 785.691 376.335L786.351 375.03C783.621 374.565 781.431 372.54 781.431 370.41V369.375H780.051ZM791.659 369.18V370.5C791.659 372.405 790.459 374.25 788.284 375L789.064 376.245C791.539 375.375 792.964 373.095 792.964 370.5V369.18H791.659ZM791.959 369.18V370.5C791.959 373.035 793.354 375.165 795.799 376.005L796.579 374.76C794.449 374.07 793.249 372.345 793.249 370.5V369.18H791.959ZM790.309 377.4V378.675H797.974V382.245H799.549V377.4H790.309ZM797.974 368.535V376.755H799.549V368.535H797.974ZM805.533 370.59V372.51C805.533 374.85 804.108 377.415 801.993 378.39L802.893 379.635C805.248 378.51 806.793 375.525 806.793 372.51V370.59H805.533ZM805.863 370.59V372.51C805.863 375.45 807.408 378.225 809.793 379.29L810.663 378.045C808.518 377.145 807.108 374.775 807.108 372.51V370.59H805.863ZM802.488 369.9V371.205H810.153V369.9H802.488ZM811.758 368.535V382.245H813.333V368.535H811.758Z" fill="black"/>
<rect x="698.5" y="248.5" width="147" height="159" stroke="#AAAAAA"/>
<defs>
<clipPath id="clip0_1234_1118">
<rect width="52.2667" height="52.2667" fill="white" transform="translate(137 133.733)"/>
</clipPath>
<clipPath id="clip1_1234_1118">
<rect width="47.0149" height="46.3235" fill="white" transform="translate(287 139.676)"/>
</clipPath>
<clipPath id="clip2_1234_1118">
<rect width="40.5195" height="35.4545" fill="white" transform="translate(152 309.545)"/>
</clipPath>
<clipPath id="clip3_1234_1118">
<rect width="20.2597" height="27.013" fill="white" transform="matrix(-1 0 0 1 182.39 280)"/>
</clipPath>
<clipPath id="clip4_1234_1118">
<rect width="46.7499" height="35.6999" fill="white" transform="translate(303.05 305.35)"/>
</clipPath>
</defs>
</svg>
