<svg width="50" height="50" viewBox="0 0 50 50" fill="none" xmlns="http://www.w3.org/2000/svg">
<circle cx="25" cy="25" r="25" fill="#696969"/>
<path d="M16.522 40H15.262V31.11H12.14V30.004H19.63V31.11H16.522V40ZM29.5859 34.988C29.5859 35.7627 29.4879 36.4673 29.2919 37.102C29.0959 37.7273 28.8019 38.2687 28.4099 38.726C28.0272 39.1833 27.5465 39.5333 26.9679 39.776C26.3985 40.0187 25.7359 40.14 24.9799 40.14C24.1959 40.14 23.5145 40.0187 22.9359 39.776C22.3572 39.524 21.8765 39.174 21.4939 38.726C21.1112 38.2687 20.8265 37.7227 20.6399 37.088C20.4532 36.4533 20.3599 35.7487 20.3599 34.974C20.3599 33.9473 20.5279 33.0513 20.8639 32.286C21.1999 31.5207 21.7085 30.9233 22.3899 30.494C23.0805 30.0647 23.9485 29.85 24.9939 29.85C25.9925 29.85 26.8325 30.0647 27.5139 30.494C28.1952 30.914 28.7085 31.5113 29.0539 32.286C29.4085 33.0513 29.5859 33.952 29.5859 34.988ZM21.6899 34.988C21.6899 35.828 21.8065 36.5513 22.0399 37.158C22.2732 37.7647 22.6325 38.2313 23.1179 38.558C23.6125 38.8847 24.2332 39.048 24.9799 39.048C25.7359 39.048 26.3519 38.8847 26.8279 38.558C27.3132 38.2313 27.6725 37.7647 27.9059 37.158C28.1392 36.5513 28.2559 35.828 28.2559 34.988C28.2559 33.728 27.9945 32.7433 27.4719 32.034C26.9492 31.3153 26.1232 30.956 24.9939 30.956C24.2379 30.956 23.6125 31.1193 23.1179 31.446C22.6325 31.7633 22.2732 32.2253 22.0399 32.832C21.8065 33.4293 21.6899 34.148 21.6899 34.988ZM34.4474 30.004C35.754 30.004 36.706 30.2607 37.3034 30.774C37.9007 31.2873 38.1994 32.0107 38.1994 32.944C38.1994 33.3547 38.1294 33.7513 37.9894 34.134C37.8587 34.5073 37.6394 34.8433 37.3314 35.142C37.0234 35.4407 36.6127 35.6787 36.0994 35.856C35.586 36.024 34.956 36.108 34.2094 36.108H33.0614V40H31.8014V30.004H34.4474ZM34.3354 31.082H33.0614V35.03H34.0694C34.704 35.03 35.2314 34.9647 35.6514 34.834C36.0714 34.694 36.384 34.4747 36.5894 34.176C36.7947 33.8773 36.8974 33.4853 36.8974 33C36.8974 32.356 36.692 31.8753 36.2814 31.558C35.8707 31.2407 35.222 31.082 34.3354 31.082Z" fill="white"/>
<path d="M24.1721 8.23265L16.2071 16.5922C16.0742 16.7316 16 16.9169 16 17.1097C16 17.3024 16.0742 17.4877 16.2071 17.6271L16.2161 17.6362C16.2806 17.704 16.3582 17.758 16.4442 17.795C16.5302 17.8319 16.6228 17.8509 16.7164 17.8509C16.81 17.8509 16.9026 17.8319 16.9886 17.795C17.0746 17.758 17.1522 17.704 17.2166 17.6362L24.7166 9.76415L32.2136 17.6362C32.2781 17.704 32.3557 17.758 32.4417 17.795C32.5277 17.8319 32.6203 17.8509 32.7139 17.8509C32.8075 17.8509 32.9001 17.8319 32.9861 17.795C33.0721 17.758 33.1497 17.704 33.2141 17.6362L33.2231 17.6271C33.3561 17.4877 33.4303 17.3024 33.4303 17.1097C33.4303 16.9169 33.3561 16.7316 33.2231 16.5922L25.2581 8.23265C25.1881 8.15913 25.1039 8.1006 25.0105 8.06061C24.9172 8.02062 24.8167 8 24.7151 8C24.6136 8 24.5131 8.02062 24.4198 8.06061C24.3264 8.1006 24.2422 8.15913 24.1721 8.23265Z" fill="white"/>
</svg>
