<svg width="251" height="43" viewBox="0 0 251 43" fill="none" xmlns="http://www.w3.org/2000/svg">
<path d="M28.184 20.736C27.48 20.672 26.584 20.64 25.496 20.64C24.44 20.608 23.48 20.608 22.616 20.64C22.84 20.992 22.952 21.408 22.952 21.888C22.952 22.272 22.936 22.688 22.904 23.136C22.904 23.552 22.872 23.952 22.808 24.336C22.776 24.656 22.728 25.04 22.664 25.488C22.632 25.904 22.52 26.24 22.328 26.496C21.848 27.168 21.192 27.504 20.36 27.504C20.264 27.504 20.168 27.52 20.072 27.552C20.008 27.552 19.944 27.536 19.88 27.504C19.72 27.504 19.544 27.552 19.352 27.648C18.968 27.808 18.488 28.016 17.912 28.272C17.368 28.496 16.808 28.768 16.232 29.088C15.656 29.376 15.112 29.696 14.6 30.048C14.088 30.368 13.688 30.688 13.4 31.008C14.2 30.944 15.128 30.832 16.184 30.672C17.272 30.512 18.232 30.272 19.064 29.952L20.264 29.52C20.52 29.36 20.696 29.264 20.792 29.232C20.92 29.168 21.032 29.136 21.128 29.136C21.384 29.104 21.624 29.12 21.848 29.184C22.104 29.248 22.312 29.312 22.472 29.376C22.824 29.536 23.112 29.664 23.336 29.76C23.592 29.856 23.832 29.984 24.056 30.144C24.248 30.304 24.456 30.512 24.68 30.768C24.904 30.992 25.096 31.248 25.256 31.536C25.32 31.664 25.352 31.808 25.352 31.968C25.384 32.096 25.416 32.24 25.448 32.4C25.48 32.656 25.496 32.896 25.496 33.12C25.496 33.344 25.496 33.6 25.496 33.888V36.864C25.528 37.728 25.4 38.384 25.112 38.832C24.824 39.28 24.456 39.728 24.008 40.176C23.24 40.944 22.552 41.488 21.944 41.808L20.744 42.432C20.648 42.496 20.568 42.496 20.504 42.432C20.44 42.368 20.456 42.288 20.552 42.192C20.648 42.128 20.776 42 20.936 41.808C21.128 41.616 21.272 41.424 21.368 41.232C21.528 40.88 21.624 40.416 21.656 39.84C21.72 39.264 21.736 38.656 21.704 38.016C21.672 37.376 21.624 36.752 21.56 36.144C21.496 35.568 21.448 35.072 21.416 34.656C21.352 34.048 21.256 33.536 21.128 33.12C21 32.672 20.808 32.368 20.552 32.208C20.424 32.144 20.216 32.128 19.928 32.16C19.64 32.16 19.4 32.192 19.208 32.256C18.376 32.512 17.48 32.768 16.52 33.024C15.56 33.248 14.664 33.488 13.832 33.744C13.608 33.84 13.288 33.936 12.872 34.032C12.488 34.128 12.168 34.208 11.912 34.272C11.752 34.336 11.528 34.384 11.24 34.416C10.984 34.416 10.744 34.384 10.52 34.32C10.264 34.224 10.12 34.112 10.088 33.984C10.056 33.824 10.056 33.648 10.088 33.456C10.152 32.976 10.184 32.576 10.184 32.256C10.216 31.904 10.264 31.616 10.328 31.392C10.36 31.136 10.472 30.944 10.664 30.816C10.728 30.752 10.808 30.72 10.904 30.72C11.032 30.688 11.16 30.656 11.288 30.624C11.352 30.592 11.48 30.592 11.672 30.624C11.896 30.656 12.04 30.64 12.104 30.576C12.52 30.256 13.032 29.92 13.64 29.568C14.248 29.216 14.888 28.848 15.56 28.464C16.232 28.08 16.888 27.712 17.528 27.36C18.168 27.008 18.728 26.672 19.208 26.352C19.112 26.032 19.064 25.728 19.064 25.44C19.032 24.8 18.952 24.096 18.824 23.328C18.728 22.528 18.6 21.76 18.44 21.024C16.68 21.28 15.048 21.616 13.544 22.032C12.04 22.416 10.584 22.832 9.176 23.28C8.792 23.44 8.424 23.616 8.072 23.808C7.752 24 7.448 24.16 7.16 24.288C6.648 24.512 6.04 24.672 5.336 24.768C4.664 24.864 4.168 24.928 3.848 24.96C3.304 25.024 2.712 25.04 2.072 25.008C1.464 24.944 1.08 24.896 0.92 24.864C0.824 24.832 0.728 24.784 0.632 24.72C0.536 24.624 0.472 24.496 0.44 24.336C0.408 24.112 0.536 23.808 0.824 23.424C0.984 23.2 1.192 22.848 1.448 22.368C1.736 21.888 2.056 21.424 2.408 20.976C2.536 20.752 2.712 20.608 2.936 20.544C3.096 20.48 3.256 20.48 3.416 20.544C3.576 20.608 3.704 20.656 3.8 20.688C4.056 20.784 4.488 20.88 5.096 20.976C5.704 21.04 6.312 21.056 6.92 21.024C7.208 21.024 7.528 21.024 7.88 21.024C8.232 21.024 8.616 20.992 9.032 20.928L9.896 20.736C10.856 20.32 11.752 19.888 12.584 19.44C13.448 18.96 14.248 18.448 14.984 17.904C16.84 16.56 18.344 15.104 19.496 13.536C19.816 13.12 20.072 12.624 20.264 12.048C20.456 11.472 20.552 10.96 20.552 10.512C20.552 10.384 20.472 10.272 20.312 10.176C20.152 10.08 19.944 10.016 19.688 9.984C19.464 9.92 19.224 9.872 18.968 9.84C18.712 9.808 18.488 9.792 18.296 9.792C17.752 9.792 17.096 9.792 16.328 9.792C15.56 9.792 14.92 9.728 14.408 9.6C13.768 9.44 13.192 9.264 12.68 9.072C12.168 8.848 11.704 8.56 11.288 8.208C11.128 8.048 11 7.952 10.904 7.92C10.84 7.888 10.808 7.84 10.808 7.776C10.84 7.648 10.92 7.536 11.048 7.44C11.208 7.344 11.368 7.28 11.528 7.248C12.456 6.8 13.464 6.416 14.552 6.096C15.672 5.744 16.68 5.488 17.576 5.328C17.992 5.264 18.44 5.216 18.92 5.184C19.432 5.12 19.912 5.088 20.36 5.088C20.84 5.088 21.272 5.104 21.656 5.136C22.072 5.168 22.392 5.232 22.616 5.328C23.864 5.872 24.808 6.976 25.448 8.64C25.704 9.248 25.768 9.84 25.64 10.416C25.512 10.992 25.288 11.472 24.968 11.856C24.456 12.496 23.816 13.152 23.048 13.824C22.312 14.496 21.496 15.168 20.6 15.84C19.736 16.512 18.824 17.168 17.864 17.808C16.904 18.448 15.96 19.04 15.032 19.584L14.552 19.872C16.312 19.52 18.008 19.232 19.64 19.008C21.272 18.752 22.616 18.56 23.672 18.432C23.832 18.4 24.04 18.368 24.296 18.336C24.552 18.272 24.776 18.208 24.968 18.144C25.48 17.984 25.96 17.808 26.408 17.616C26.888 17.392 27.416 17.184 27.992 16.992C28.184 16.928 28.424 16.88 28.712 16.848C29 16.784 29.256 16.768 29.48 16.8C30.024 16.896 30.664 17.168 31.4 17.616C32.136 18.032 32.728 18.528 33.176 19.104C33.336 19.328 33.464 19.6 33.56 19.92C33.688 20.208 33.752 20.448 33.752 20.64C33.752 20.96 33.528 21.2 33.08 21.36C32.792 21.488 32.472 21.552 32.12 21.552C31.8 21.552 31.56 21.552 31.4 21.552C31.24 21.552 31.016 21.52 30.728 21.456C30.472 21.36 30.184 21.264 29.864 21.168C29.544 21.072 29.224 20.992 28.904 20.928C28.616 20.832 28.376 20.768 28.184 20.736ZM54.824 26.544C54.664 26.48 54.552 26.4 54.488 26.304C54.424 26.176 54.568 26.112 54.92 26.112C55.464 26.08 56.12 26.16 56.888 26.352C57.688 26.544 58.504 26.864 59.336 27.312C59.88 27.568 60.232 27.84 60.392 28.128C60.584 28.384 60.696 28.64 60.728 28.896C60.76 29.248 60.744 29.616 60.68 30C60.648 30.384 60.616 30.704 60.584 30.96L60.44 36.768C60.376 37.344 60.264 37.824 60.104 38.208C61.288 38.4 61.896 38.832 61.928 39.504C61.928 40.016 61.592 40.368 60.92 40.56C59.768 40.944 58.92 41.136 58.376 41.136C57.768 41.136 57.192 41.072 56.648 40.944C56.104 40.848 55.544 40.72 54.968 40.56L52.808 40.08C52.488 39.984 52.152 39.872 51.8 39.744C51.48 39.648 51.128 39.52 50.744 39.36C50.552 39.296 50.44 39.248 50.408 39.216L50.216 40.8C50.12 41.088 49.992 41.344 49.832 41.568C49.704 41.792 49.496 41.952 49.208 42.048C48.952 41.888 48.728 41.664 48.536 41.376C48.344 41.12 48.168 40.864 48.008 40.608C47.752 40.224 47.464 39.568 47.144 38.64C46.856 37.712 46.744 36.656 46.808 35.472C46.84 34.704 46.888 33.92 46.952 33.12C47.016 32.32 47.16 31.568 47.384 30.864C47.576 30.224 47.8 29.632 48.056 29.088C48.344 28.512 48.744 27.952 49.256 27.408C49.832 26.8 50.488 26.208 51.224 25.632C51.96 25.056 52.728 24.512 53.528 24C54.328 23.488 55.128 23.024 55.928 22.608C56.728 22.192 57.496 21.808 58.232 21.456C58.136 21.2 58.056 20.912 57.992 20.592C57.96 20.272 57.912 19.984 57.848 19.728C57.112 20.08 56.136 20.464 54.92 20.88C53.704 21.296 52.184 21.68 50.36 22.032C49.72 22.128 48.952 22.256 48.056 22.416C47.192 22.544 46.296 22.672 45.368 22.8C44.472 22.928 43.576 23.024 42.68 23.088C41.816 23.12 41.08 23.104 40.472 23.04C39.8 22.944 39.464 22.512 39.464 21.744C39.464 21.488 39.448 21.216 39.416 20.928C39.384 20.64 39.368 20.4 39.368 20.208C39.368 19.856 39.4 19.6 39.464 19.44C39.528 19.28 39.624 19.12 39.752 18.96C39.976 18.736 40.184 18.528 40.376 18.336C40.6 18.144 40.84 17.952 41.096 17.76C41.384 17.536 41.72 17.296 42.104 17.04C42.488 16.752 42.968 16.4 43.544 15.984C43.384 16.08 43.176 16.144 42.92 16.176C42.696 16.176 42.504 16.176 42.344 16.176C41.992 16.176 41.672 16.064 41.384 15.84C41.128 15.616 40.92 15.456 40.76 15.36C40.568 15.264 40.344 15.152 40.088 15.024C39.832 14.864 39.576 14.72 39.32 14.592C39.096 14.432 38.888 14.304 38.696 14.208C38.536 14.08 38.44 13.984 38.408 13.92C38.344 13.856 38.264 13.76 38.168 13.632C38.104 13.504 38.104 13.392 38.168 13.296C38.2 13.232 38.264 13.216 38.36 13.248C38.488 13.28 38.584 13.312 38.648 13.344C39 13.504 39.432 13.616 39.944 13.68C40.488 13.712 40.872 13.728 41.096 13.728C41.352 13.728 41.688 13.728 42.104 13.728C42.52 13.696 42.872 13.568 43.16 13.344C43.448 13.216 43.8 13.072 44.216 12.912C44.664 12.752 45.096 12.656 45.512 12.624H46.232C46.2 12.528 46.184 12.4 46.184 12.24L45.56 10.272C45.528 10.208 45.464 10.096 45.368 9.936C45.304 9.744 45.224 9.664 45.128 9.696C44.904 9.76 44.616 9.808 44.264 9.84C43.912 9.872 43.576 9.904 43.256 9.936C42.872 10 42.488 10.032 42.104 10.032C41.72 10 41.304 9.872 40.856 9.648C40.824 9.616 40.632 9.536 40.28 9.408C39.928 9.248 39.528 9.072 39.08 8.88C38.664 8.688 38.264 8.496 37.88 8.304C37.496 8.112 37.256 7.968 37.16 7.872C36.904 7.68 36.824 7.552 36.92 7.488C37.016 7.392 37.144 7.36 37.304 7.392L38.888 7.488C39.016 7.488 39.224 7.472 39.512 7.44C39.8 7.408 40.104 7.376 40.424 7.344C40.744 7.312 41.048 7.28 41.336 7.248C41.656 7.184 41.896 7.152 42.056 7.152C42.248 7.12 42.456 7.088 42.68 7.056C42.936 6.992 43.176 6.944 43.4 6.912C43.656 6.848 43.88 6.8 44.072 6.768C44.264 6.704 44.392 6.656 44.456 6.624C44.616 6.56 44.824 6.496 45.08 6.432C45.368 6.336 45.768 6.32 46.28 6.384C46.632 6.384 47.032 6.464 47.48 6.624C47.928 6.752 48.312 6.912 48.632 7.104C48.984 7.296 49.24 7.648 49.4 8.16C49.592 8.64 49.672 9.104 49.64 9.552C49.64 9.84 49.56 10.336 49.4 11.04C49.24 11.744 49.064 12.336 48.872 12.816C49.096 12.88 49.304 12.944 49.496 13.008C49.688 13.04 49.832 13.088 49.928 13.152C50.088 13.408 50.136 13.616 50.072 13.776C50.04 13.936 49.992 14.064 49.928 14.16C49.864 14.256 49.72 14.416 49.496 14.64C49.272 14.864 49 15.04 48.68 15.168C48.328 15.328 48.024 15.44 47.768 15.504C47.448 15.696 47.064 15.936 46.616 16.224C46.2 16.512 45.768 16.816 45.32 17.136C44.904 17.424 44.504 17.728 44.12 18.048C43.768 18.368 43.496 18.656 43.304 18.912C43.208 19.072 43.112 19.216 43.016 19.344C42.952 19.472 42.936 19.584 42.968 19.68C43.032 19.84 43.176 19.92 43.4 19.92C44.136 20.08 45.544 20.016 47.624 19.728C48.008 19.664 48.616 19.536 49.448 19.344C50.312 19.152 51.224 18.928 52.184 18.672C53.144 18.416 54.088 18.128 55.016 17.808C55.976 17.456 56.744 17.104 57.32 16.752L57.128 14.064C57.128 13.84 57.112 13.44 57.08 12.864C57.048 12.288 57.016 11.696 56.984 11.088C56.952 10.448 56.92 9.856 56.888 9.312C56.888 8.768 56.888 8.4 56.888 8.208C56.92 7.696 56.904 7.168 56.84 6.624C56.776 6.048 56.616 5.536 56.36 5.088C56.168 4.736 55.944 4.416 55.688 4.128C55.432 3.84 55.08 3.44 54.632 2.928C54.28 2.544 53.928 2.24 53.576 2.016C53.224 1.76 52.824 1.472 52.376 1.152C52.312 1.088 52.296 1.04 52.328 1.008C52.392 0.943999 52.44 0.912 52.472 0.912C53.016 0.943999 53.624 1.024 54.296 1.152C55 1.28 55.528 1.392 55.88 1.488C56.36 1.648 56.856 1.856 57.368 2.112C57.88 2.368 58.376 2.656 58.856 2.976C59.336 3.296 59.768 3.648 60.152 4.032C60.536 4.384 60.856 4.736 61.112 5.088C61.4 5.568 61.432 6.24 61.208 7.104C61.112 7.456 61.048 7.872 61.016 8.352C61.016 8.832 61.016 9.216 61.016 9.504C61.016 11.136 61.016 12.704 61.016 14.208C61.048 15.68 61.064 17.232 61.064 18.864C61.064 19.504 61.064 20.096 61.064 20.64C61.096 21.184 61.096 21.664 61.064 22.08C61.032 22.624 60.76 22.976 60.248 23.136C59.768 23.264 59.4 23.216 59.144 22.992C56.84 23.632 54.824 24.576 53.096 25.824C51.368 27.04 50.136 28.304 49.4 29.616C49.272 29.84 49.176 30.128 49.112 30.48C49.08 30.832 49.128 31.28 49.256 31.824C49.448 32.656 49.72 33.488 50.072 34.32C50.424 35.152 50.584 35.984 50.552 36.816C50.52 37.072 50.504 37.392 50.504 37.776C50.504 38.16 50.472 38.544 50.408 38.928C50.472 38.928 50.52 38.912 50.552 38.88C50.616 38.88 50.68 38.896 50.744 38.928C50.904 38.96 51.192 38.96 51.608 38.928C52.056 38.928 52.552 38.896 53.096 38.832C53.832 38.736 54.568 38.64 55.304 38.544C56.072 38.448 56.824 38.32 57.56 38.16C57.464 38 57.368 37.792 57.272 37.536C57.208 37.312 57.144 36.768 57.08 35.904C57.016 35.36 56.984 34.928 56.984 34.608C56.984 34.256 56.968 33.936 56.936 33.648H56.216C55.96 33.648 55.672 33.648 55.352 33.648C55.064 33.648 54.616 33.632 54.008 33.6C53.336 33.536 52.68 33.472 52.04 33.408C51.4 33.312 50.84 33.232 50.36 33.168C50.072 33.168 49.928 33.088 49.928 32.928C49.864 32.736 49.992 32.608 50.312 32.544C50.6 32.512 50.888 32.464 51.176 32.4C51.464 32.336 51.736 32.272 51.992 32.208C52.44 32.048 52.968 31.84 53.576 31.584C54.216 31.328 54.616 31.184 54.776 31.152C55.064 31.088 55.336 31.04 55.592 31.008C55.88 30.944 56.28 30.944 56.792 31.008H56.888C56.856 30.464 56.824 30.032 56.792 29.712C56.76 29.392 56.696 29.056 56.6 28.704C56.504 28.224 56.312 27.776 56.024 27.36C55.768 26.944 55.368 26.672 54.824 26.544ZM97.961 22.608C98.153 22.352 98.345 22.112 98.537 21.888C98.729 21.664 98.889 21.472 99.017 21.312C99.369 20.8 99.769 20.544 100.217 20.544C100.473 20.544 100.777 20.672 101.129 20.928C101.417 21.088 101.753 21.328 102.137 21.648C102.521 21.936 102.857 22.144 103.145 22.272C104.137 22.656 104.505 23.12 104.249 23.664C104.185 23.824 104.073 23.984 103.913 24.144C103.785 24.304 103.497 24.432 103.049 24.528C101.705 24.848 100.457 25.152 99.305 25.44C98.185 25.728 97.065 26.096 95.945 26.544C93.225 27.664 90.793 28.96 88.649 30.432C86.505 31.904 84.777 33.248 83.465 34.464C83.305 34.624 83.177 34.832 83.081 35.088C82.985 35.312 82.921 35.488 82.889 35.616C82.825 35.872 82.825 36.08 82.889 36.24C82.985 36.4 83.097 36.56 83.225 36.72C83.289 36.784 83.433 36.848 83.657 36.912C83.881 37.008 84.153 37.072 84.473 37.104C84.825 37.168 85.209 37.2 85.625 37.2C86.041 37.232 86.457 37.216 86.873 37.152C87.737 36.992 88.521 36.8 89.225 36.576C89.929 36.352 90.649 36.208 91.385 36.144C92.569 36.048 93.641 36.384 94.601 37.152C94.793 37.312 94.889 37.52 94.889 37.776C94.921 38.064 94.889 38.336 94.793 38.592C94.697 38.848 94.569 39.088 94.409 39.312C94.249 39.536 94.089 39.696 93.929 39.792C93.865 39.856 93.689 39.968 93.401 40.128C93.113 40.32 92.745 40.512 92.297 40.704C91.849 40.896 91.353 41.072 90.809 41.232C90.265 41.392 89.689 41.488 89.081 41.52C88.505 41.552 87.897 41.536 87.257 41.472C86.617 41.408 86.009 41.296 85.433 41.136C84.857 41.008 84.329 40.848 83.849 40.656C83.369 40.496 82.969 40.304 82.649 40.08C82.265 39.824 81.913 39.552 81.593 39.264C81.273 38.976 81.081 38.704 81.017 38.448C80.921 38.16 80.857 37.728 80.825 37.152C80.793 36.576 80.841 36.16 80.969 35.904C81.033 35.744 81.161 35.456 81.353 35.04C81.577 34.624 82.057 34.096 82.793 33.456C83.849 32.528 85.129 31.504 86.633 30.384C88.137 29.232 89.801 28.08 91.625 26.928C91.305 26.512 91.049 26.064 90.857 25.584C90.633 24.976 90.489 24.32 90.425 23.616C90.393 22.88 90.345 22.048 90.281 21.12C90.121 19.104 89.993 17.136 89.897 15.216C89.833 13.296 89.769 11.68 89.705 10.368L89.609 7.968C89.577 7.456 89.513 7.072 89.417 6.816C89.353 6.56 89.289 6.4 89.225 6.336C89.033 6.08 88.761 5.808 88.409 5.52C88.089 5.2 87.817 4.912 87.593 4.656C87.049 4.016 86.585 3.504 86.201 3.12C85.817 2.704 85.529 2.368 85.337 2.112C85.049 1.76 84.873 1.44 84.809 1.152C84.809 1.056 84.825 0.991999 84.857 0.959999C84.921 0.895998 85.001 0.895998 85.097 0.959999L85.961 1.392C86.249 1.552 86.569 1.744 86.921 1.968C87.273 2.192 87.769 2.432 88.409 2.688L90.809 3.648C91.161 3.808 91.497 3.968 91.817 4.128C92.169 4.288 92.521 4.448 92.873 4.608C93.161 4.768 93.385 4.976 93.545 5.232C93.705 5.456 93.833 5.696 93.929 5.952C94.089 6.496 94.153 7.184 94.121 8.016C94.089 8.816 94.041 9.584 93.977 10.32C93.977 10.448 93.977 10.944 93.977 11.808C93.977 12.672 93.977 13.616 93.977 14.64C93.977 15.664 93.977 16.64 93.977 17.568C94.009 18.464 94.025 19.024 94.025 19.248C94.025 19.312 94.025 19.584 94.025 20.064C94.057 20.544 94.073 21.104 94.073 21.744C94.105 22.384 94.105 23.056 94.073 23.76C94.073 24.432 94.041 25.024 93.977 25.536C95.193 24.832 96.121 24.224 96.761 23.712C97.401 23.2 97.801 22.832 97.961 22.608ZM72.473 6.336C72.665 6.528 72.953 6.704 73.337 6.864C73.753 7.024 74.185 7.152 74.633 7.248C75.113 7.344 75.545 7.424 75.929 7.488C76.313 7.552 76.585 7.6 76.745 7.632C77.353 7.696 77.849 7.728 78.233 7.728C78.617 7.728 78.953 7.728 79.241 7.728C79.529 7.728 79.801 7.76 80.057 7.824C80.345 7.888 80.681 7.984 81.065 8.112C81.417 8.272 81.769 8.56 82.121 8.976C82.505 9.392 82.761 9.744 82.889 10.032C82.953 10.192 82.937 10.368 82.841 10.56C82.777 10.72 82.569 10.864 82.217 10.992C81.993 11.088 81.769 11.168 81.545 11.232C81.353 11.264 81.145 11.312 80.921 11.376L80.201 11.52C80.137 11.52 79.897 11.632 79.481 11.856C79.097 12.08 78.665 12.32 78.185 12.576C77.705 12.832 77.257 13.072 76.841 13.296C76.457 13.52 76.249 13.648 76.217 13.68C75.737 13.936 75.481 14.112 75.449 14.208C75.417 14.304 75.673 14.32 76.217 14.256C77.273 14.224 78.313 13.984 79.337 13.536C79.625 13.408 79.881 13.28 80.105 13.152C80.329 13.024 80.617 12.832 80.969 12.576C81.129 12.416 81.305 12.288 81.497 12.192C81.721 12.064 82.009 12.064 82.361 12.192C82.617 12.288 82.889 12.432 83.177 12.624C83.465 12.784 83.785 12.96 84.137 13.152C84.809 13.376 85.113 13.664 85.049 14.016C84.985 14.368 84.713 14.656 84.233 14.88C83.977 15.008 83.721 15.088 83.465 15.12C83.209 15.12 82.937 15.152 82.649 15.216C82.105 15.312 81.257 15.632 80.105 16.176C79.657 16.4 79.225 16.672 78.809 16.992C78.393 17.312 78.009 17.6 77.657 17.856C77.209 18.208 76.825 18.528 76.505 18.816C76.217 19.072 75.881 19.424 75.497 19.872C74.953 20.512 74.825 21.104 75.113 21.648C75.433 22.192 75.945 22.752 76.649 23.328C77.257 23.84 77.913 24.144 78.617 24.24C79.353 24.336 79.977 24.176 80.489 23.76C80.777 23.536 80.985 23.344 81.113 23.184C81.241 22.992 81.337 22.784 81.401 22.56C81.497 22.208 81.529 21.84 81.497 21.456C81.497 21.072 81.465 20.704 81.401 20.352C81.241 19.712 81.017 19.216 80.729 18.864C80.473 18.512 79.913 18.272 79.049 18.144C78.185 17.856 78.057 17.664 78.665 17.568L80.249 17.28C80.793 17.216 81.257 17.248 81.641 17.376C82.057 17.504 82.473 17.648 82.889 17.808C83.529 18.096 84.057 18.496 84.473 19.008C84.889 19.488 85.129 20.144 85.193 20.976C85.225 21.52 85.161 22.016 85.001 22.464C84.873 22.912 84.681 23.328 84.425 23.712C84.169 24.096 83.881 24.448 83.561 24.768C83.241 25.056 82.937 25.312 82.649 25.536C82.329 25.76 81.897 25.968 81.353 26.16C80.809 26.352 80.217 26.496 79.577 26.592C78.969 26.656 78.345 26.656 77.705 26.592C77.097 26.528 76.553 26.352 76.073 26.064C75.049 25.424 74.281 24.88 73.769 24.432C73.289 23.952 72.889 23.312 72.569 22.512C72.377 21.968 72.345 21.44 72.473 20.928C72.601 20.384 72.825 19.936 73.145 19.584C73.497 19.104 73.881 18.704 74.297 18.384C74.745 18.032 75.177 17.68 75.593 17.328C76.041 17.04 76.505 16.736 76.985 16.416C77.465 16.096 77.881 15.808 78.233 15.552C78.489 15.36 78.617 15.248 78.617 15.216C78.649 15.152 78.521 15.184 78.233 15.312C77.753 15.568 77.065 15.84 76.169 16.128C75.305 16.384 74.537 16.592 73.865 16.752C73.609 16.816 73.353 16.912 73.097 17.04C72.841 17.136 72.585 17.184 72.329 17.184C71.977 17.184 71.721 17.088 71.561 16.896C71.401 16.704 71.321 16.528 71.321 16.368C71.321 16.176 71.353 15.904 71.417 15.552C71.513 15.2 71.593 14.928 71.657 14.736C71.785 14.32 71.945 14.064 72.137 13.968C72.361 13.872 72.665 13.808 73.049 13.776C73.529 13.744 73.945 13.664 74.297 13.536C74.681 13.376 74.985 13.248 75.209 13.152C75.305 13.088 75.449 13.008 75.641 12.912C75.865 12.784 76.089 12.64 76.313 12.48C76.569 12.288 76.777 12.096 76.937 11.904C77.129 11.712 77.257 11.52 77.321 11.328C76.809 11.232 76.329 11.056 75.881 10.8C75.401 10.512 74.969 10.272 74.585 10.08C74.233 9.856 73.913 9.6 73.625 9.312C73.337 9.024 73.065 8.672 72.809 8.256C72.553 7.84 72.265 7.312 71.945 6.672C71.625 6.096 71.513 5.808 71.609 5.808C71.673 5.776 71.753 5.792 71.849 5.856C71.977 5.92 72.185 6.08 72.473 6.336ZM137.155 19.968C136.899 20.256 136.627 20.464 136.339 20.592C136.083 20.688 135.779 20.752 135.427 20.784C135.011 20.848 134.611 20.832 134.227 20.736C133.715 20.736 133.219 20.752 132.739 20.784C132.291 20.816 131.859 20.896 131.443 21.024C130.611 21.312 129.731 21.648 128.802 22.032C127.875 22.384 126.947 22.784 126.019 23.232C125.123 23.68 124.243 24.144 123.379 24.624C122.515 25.072 121.731 25.536 121.027 26.016C121.603 25.92 122.259 25.824 122.995 25.728C123.731 25.632 124.403 25.52 125.011 25.392L126.643 25.104C126.739 24.88 126.915 24.768 127.171 24.768C127.427 24.8 127.699 24.928 127.987 25.152C128.307 25.376 128.547 25.536 128.707 25.632C128.931 25.824 129.219 25.984 129.571 26.112C129.923 26.208 130.179 26.336 130.339 26.496C130.627 26.752 130.723 27.088 130.627 27.504C130.563 27.728 130.451 27.968 130.291 28.224C130.163 28.48 129.955 28.672 129.667 28.8C129.283 28.96 128.851 29.12 128.371 29.28C127.891 29.44 127.475 29.616 127.123 29.808C126.387 30.224 125.715 30.576 125.107 30.864C124.499 31.12 123.891 31.424 123.283 31.776L125.587 31.44C125.939 31.376 126.291 31.344 126.643 31.344C126.995 31.312 127.347 31.312 127.699 31.344C127.795 31.184 127.923 31.104 128.083 31.104C128.307 31.104 128.659 31.232 129.139 31.488C129.651 31.712 130.05 31.904 130.339 32.064C130.499 32.16 130.611 32.336 130.675 32.592C130.771 32.816 130.803 33.04 130.771 33.264C130.739 33.424 130.627 33.6 130.435 33.792C130.243 33.952 130.019 34.08 129.763 34.176C128.483 34.688 127.187 35.184 125.875 35.664C124.563 36.112 123.443 36.64 122.515 37.248C122.195 37.472 122.083 37.648 122.179 37.776C122.211 37.84 122.307 37.888 122.467 37.92C122.659 37.984 122.867 38.032 123.091 38.064C123.315 38.128 123.539 38.176 123.763 38.208C124.019 38.24 124.227 38.256 124.387 38.256C124.643 38.256 124.947 38.224 125.299 38.16C125.651 38.128 126.003 38.08 126.355 38.016C126.739 37.952 127.091 37.872 127.411 37.776C127.731 37.712 127.987 37.632 128.179 37.536C128.531 37.376 128.931 37.28 129.379 37.248C129.859 37.248 130.211 37.28 130.435 37.344C130.659 37.408 130.867 37.488 131.059 37.584C131.283 37.712 131.459 37.888 131.587 38.112C131.811 38.432 131.795 38.832 131.539 39.312C131.347 39.664 131.059 39.984 130.675 40.272C130.323 40.592 129.907 40.864 129.427 41.088C128.947 41.344 128.435 41.536 127.891 41.664C127.379 41.824 126.883 41.904 126.403 41.904C125.443 41.904 124.531 41.856 123.667 41.76C122.835 41.664 122.243 41.536 121.891 41.376C121.603 41.216 121.267 40.992 120.883 40.704C120.531 40.416 120.227 40.096 119.971 39.744C119.651 39.328 119.491 38.896 119.491 38.448C119.523 38 119.763 37.552 120.211 37.104C120.435 36.88 120.659 36.688 120.883 36.528C121.107 36.368 121.299 36.256 121.459 36.192C121.811 36 122.195 35.808 122.611 35.616C123.059 35.424 123.491 35.216 123.907 34.992C124.323 34.768 124.707 34.56 125.059 34.368C125.443 34.144 125.747 33.936 125.971 33.744C126.259 33.52 126.499 33.28 126.691 33.024C126.243 32.992 125.795 32.992 125.347 33.024C124.931 33.056 124.499 33.104 124.051 33.168C123.731 33.232 123.331 33.328 122.851 33.456C122.371 33.584 121.875 33.728 121.363 33.888C120.883 34.048 120.403 34.224 119.923 34.416C119.443 34.608 119.043 34.784 118.723 34.944C118.563 35.008 118.435 35.056 118.339 35.088C118.243 35.12 118.163 35.152 118.099 35.184C117.811 35.216 117.635 35.168 117.571 35.04C117.507 34.976 117.475 34.848 117.475 34.656C117.507 34.432 117.555 34.272 117.619 34.176C117.683 34.08 117.763 33.904 117.859 33.648C117.987 33.392 118.131 33.168 118.291 32.976C118.515 32.656 118.819 32.448 119.203 32.352L120.595 32.064C121.331 31.52 122.147 30.944 123.043 30.336C123.939 29.728 124.659 29.104 125.203 28.464C125.363 28.304 125.507 28.096 125.635 27.84C125.763 27.584 125.907 27.312 126.067 27.024C125.331 27.088 124.611 27.184 123.907 27.312C123.203 27.408 122.547 27.552 121.939 27.744C121.107 28 120.259 28.352 119.395 28.8C118.563 29.248 117.827 29.552 117.187 29.712C117.123 29.744 117.027 29.776 116.898 29.808C116.771 29.808 116.643 29.792 116.515 29.76C116.419 29.728 116.355 29.664 116.323 29.568C116.291 29.44 116.323 29.264 116.419 29.04C116.547 28.752 116.643 28.464 116.707 28.176C116.771 27.856 116.835 27.616 116.898 27.456C116.995 27.2 117.091 27.008 117.187 26.88C117.315 26.72 117.523 26.608 117.811 26.544C118.707 26 119.667 25.472 120.691 24.96C121.747 24.416 122.819 23.872 123.907 23.328C125.027 22.784 126.147 22.24 127.267 21.696C128.387 21.12 129.475 20.544 130.531 19.968C130.467 19.968 130.387 19.968 130.291 19.968C130.227 19.936 130.163 19.92 130.099 19.92C129.939 19.888 129.587 19.888 129.043 19.92C128.531 19.92 127.955 19.952 127.315 20.016C126.707 20.048 126.115 20.096 125.539 20.16C124.963 20.192 124.547 20.24 124.291 20.304C122.659 20.656 121.011 21.024 119.347 21.408C117.715 21.792 116.035 22.24 114.307 22.752C113.443 23.008 112.515 23.248 111.523 23.472C110.563 23.696 109.523 23.872 108.403 24C107.763 24.096 107.411 24 107.347 23.712C107.283 23.552 107.267 23.392 107.299 23.232C107.363 23.04 107.427 22.864 107.491 22.704C107.555 22.544 107.619 22.432 107.683 22.368C107.779 22.304 107.875 22.224 107.971 22.128C108.067 22.032 108.179 21.904 108.307 21.744C108.435 21.552 108.563 21.296 108.691 20.976C108.755 20.752 108.851 20.496 108.979 20.208C109.107 19.92 109.267 19.68 109.459 19.488C109.747 19.2 110.019 19.024 110.275 18.96C110.627 18.896 110.947 18.944 111.235 19.104C111.555 19.264 111.859 19.408 112.147 19.536C112.467 19.632 112.771 19.68 113.059 19.68C113.603 19.648 114.339 19.584 115.267 19.488C116.227 19.36 117.219 19.232 118.243 19.104C118.691 18.848 119.123 18.592 119.539 18.336C119.987 18.048 120.403 17.76 120.787 17.472C121.715 16.768 122.595 15.92 123.427 14.928C124.291 13.936 125.059 12.928 125.731 11.904C126.019 11.488 126.211 10.976 126.307 10.368C126.435 9.76 126.483 9.248 126.451 8.832C126.451 8.576 126.339 8.416 126.115 8.352C125.891 8.288 125.603 8.304 125.251 8.4C124.899 8.496 124.499 8.576 124.051 8.64C123.571 8.704 123.027 8.704 122.419 8.64C121.811 8.544 121.251 8.416 120.739 8.256C120.195 8.096 119.603 7.888 118.963 7.632C118.355 7.376 117.795 7.12 117.283 6.864C116.963 6.704 116.803 6.56 116.803 6.432C116.835 6.304 116.947 6.208 117.139 6.144C117.331 6.08 117.539 6 117.763 5.904C118.499 5.584 119.363 5.28 120.355 4.992C121.347 4.672 122.339 4.416 123.331 4.224C124.355 4.032 125.283 3.904 126.115 3.84C126.979 3.776 127.635 3.84 128.083 4.032C128.723 4.32 129.347 4.64 129.955 4.992C130.563 5.344 130.947 5.968 131.107 6.864C131.171 7.12 131.219 7.36 131.251 7.584C131.283 7.776 131.299 7.968 131.299 8.16C131.299 8.672 131.187 9.216 130.963 9.792C130.739 10.368 130.451 10.944 130.099 11.52C129.779 12.096 129.411 12.64 128.995 13.152C128.611 13.632 128.227 14.048 127.843 14.4C127.043 15.136 126.115 15.872 125.059 16.608C124.003 17.312 122.899 17.984 121.747 18.624C122.579 18.496 123.507 18.352 124.531 18.192C125.555 18.032 126.451 17.92 127.219 17.856C127.731 17.824 128.259 17.744 128.802 17.616C129.347 17.488 129.843 17.36 130.291 17.232C130.771 17.072 131.187 16.944 131.539 16.848C131.923 16.72 132.211 16.624 132.403 16.56C132.691 16.496 132.995 16.464 133.315 16.464C133.667 16.432 134.003 16.496 134.323 16.656C134.739 16.88 135.139 17.136 135.523 17.424C135.939 17.712 136.419 18.032 136.963 18.384C137.283 18.576 137.427 18.848 137.395 19.2C137.395 19.552 137.315 19.808 137.155 19.968ZM172.339 16.368C172.403 16.24 172.499 16.08 172.627 15.888C172.787 15.696 172.947 15.6 173.107 15.6C173.235 15.568 173.427 15.616 173.683 15.744L174.931 16.512C175.187 16.672 175.507 16.896 175.891 17.184C176.307 17.472 176.643 17.648 176.899 17.712C177.123 17.776 177.283 17.936 177.379 18.192C177.475 18.416 177.523 18.608 177.523 18.768C177.523 18.928 177.443 19.056 177.283 19.152C177.155 19.248 176.963 19.376 176.707 19.536C176.451 19.696 176.067 19.84 175.555 19.968C175.043 20.096 174.579 20.208 174.163 20.304C173.107 20.56 171.779 20.976 170.179 21.552C168.611 22.128 166.947 22.8 165.187 23.568C163.427 24.304 161.667 25.104 159.907 25.968C158.147 26.8 156.595 27.6 155.251 28.368C154.995 28.528 154.867 28.688 154.867 28.848C154.867 29.008 155.011 29.104 155.299 29.136C155.587 29.136 155.763 29.136 155.827 29.136C156.019 29.136 156.339 29.12 156.787 29.088C157.235 29.024 157.715 28.944 158.227 28.848C158.739 28.752 159.235 28.64 159.715 28.512C160.227 28.352 160.627 28.176 160.915 27.984C161.203 27.696 161.507 27.504 161.827 27.408C162.083 27.312 162.323 27.264 162.547 27.264C162.771 27.232 163.011 27.232 163.267 27.264C163.587 27.328 163.891 27.376 164.179 27.408C164.499 27.44 164.787 27.504 165.043 27.6C165.587 27.792 166.035 28 166.387 28.224C166.739 28.416 166.995 28.688 167.155 29.04C167.283 29.328 167.363 29.68 167.395 30.096C167.427 30.512 167.443 30.992 167.443 31.536V35.712C167.443 36.864 167.171 37.776 166.627 38.448C166.115 39.12 165.379 39.776 164.419 40.416C164.163 40.576 163.811 40.8 163.363 41.088C162.915 41.376 162.323 41.584 161.587 41.712C161.171 41.776 160.947 41.792 160.915 41.76C160.723 41.696 160.723 41.6 160.915 41.472C161.235 41.216 161.555 40.912 161.875 40.56C162.227 40.24 162.563 39.856 162.883 39.408C163.107 39.088 163.283 38.736 163.411 38.352C163.571 38 163.651 37.632 163.651 37.248C163.651 36.48 163.603 35.632 163.507 34.704C163.411 33.776 163.299 32.736 163.171 31.584C163.139 31.36 163.091 31.168 163.027 31.008C162.963 30.816 162.835 30.672 162.643 30.576C162.355 30.48 162.099 30.448 161.875 30.48C161.203 30.544 160.467 30.704 159.667 30.96C158.867 31.184 158.083 31.44 157.315 31.728C157.027 31.824 156.611 31.968 156.067 32.16C155.523 32.32 154.947 32.464 154.339 32.592C153.763 32.72 153.203 32.816 152.659 32.88C152.115 32.912 151.699 32.848 151.411 32.688C151.283 32.592 151.187 32.464 151.123 32.304C151.091 32.208 151.091 32.048 151.123 31.824C151.155 31.6 151.187 31.344 151.219 31.056C151.283 30.768 151.347 30.48 151.411 30.192C151.507 29.872 151.603 29.584 151.699 29.328C151.827 29.04 151.923 28.832 151.987 28.704C152.083 28.576 152.291 28.512 152.611 28.512C152.995 28.512 153.283 28.464 153.475 28.368C153.667 28.24 153.891 28.096 154.147 27.936C155.715 27.008 157.427 26.064 159.283 25.104C161.171 24.144 162.995 23.168 164.755 22.176C164.307 21.44 163.955 20.576 163.699 19.584C163.475 18.56 163.331 17.648 163.267 16.848C163.139 15.632 163.043 14.4 162.979 13.152C162.915 11.904 162.883 10.592 162.883 9.216C162.883 8.48 162.819 7.76 162.691 7.056C162.563 6.352 162.451 5.808 162.355 5.424C162.195 4.88 161.939 4.304 161.587 3.696C161.235 3.088 160.643 2.464 159.811 1.824C159.555 1.632 159.283 1.472 158.995 1.344C158.707 1.184 158.563 1.04 158.563 0.912C158.627 0.847999 158.819 0.831998 159.139 0.863997C159.459 0.895999 159.955 1.024 160.627 1.248C161.523 1.536 162.227 1.776 162.739 1.968C163.251 2.16 163.779 2.368 164.323 2.592C165.027 2.912 165.587 3.216 166.003 3.504C166.451 3.792 166.787 4.16 167.01 4.608C167.235 5.056 167.347 5.632 167.347 6.336C167.379 7.008 167.347 7.84 167.251 8.832C167.155 9.728 167.107 10.752 167.107 11.904C167.107 13.056 167.123 14.08 167.155 14.976C167.187 16.064 167.203 17.072 167.203 18C167.203 18.896 167.187 19.84 167.155 20.832C168.019 20.288 168.803 19.776 169.507 19.296C170.243 18.784 170.883 18.288 171.427 17.808C171.651 17.616 171.827 17.392 171.955 17.136C172.083 16.88 172.211 16.624 172.339 16.368ZM151.219 21.12C150.739 20.896 150.275 20.688 149.827 20.496C149.411 20.304 148.883 20.032 148.243 19.68C148.211 20.352 148.131 20.896 148.003 21.312C147.875 21.696 147.699 22.112 147.475 22.56C147.411 22.688 147.331 22.816 147.235 22.944C147.139 23.072 147.043 23.136 146.947 23.136C146.723 23.136 146.499 22.96 146.275 22.608C146.083 22.352 145.923 22.128 145.795 21.936C145.667 21.744 145.555 21.552 145.459 21.36C145.363 21.136 145.283 20.88 145.219 20.592C145.155 20.304 145.075 19.952 144.979 19.536C144.723 18.032 144.563 16.768 144.499 15.744C144.435 14.688 144.371 14.08 144.307 13.92C144.243 13.6 144.179 13.376 144.115 13.248C144.051 13.12 143.955 12.96 143.827 12.768L141.715 9.168C141.555 9.04 141.523 8.928 141.619 8.832C141.683 8.768 141.763 8.752 141.859 8.784C141.955 8.816 142.147 8.928 142.435 9.12C142.755 9.28 143.107 9.488 143.491 9.744C143.875 9.968 144.275 10.208 144.691 10.464C145.107 10.72 145.491 10.928 145.843 11.088C146.067 11.216 146.275 11.344 146.467 11.472C146.691 11.568 146.915 11.648 147.139 11.712C147.299 11.776 147.427 11.872 147.523 12C147.651 12.096 147.763 12.224 147.859 12.384C147.923 12.544 147.955 12.704 147.955 12.864C147.987 13.024 148.003 13.2 148.003 13.392L148.531 13.008C148.755 12.848 149.011 12.688 149.299 12.528C149.619 12.368 149.923 12.24 150.211 12.144C150.467 12.016 150.659 11.936 150.787 11.904C150.947 11.872 151.155 11.84 151.411 11.808C152.051 11.712 152.723 11.888 153.427 12.336C153.395 11.696 153.363 11.264 153.331 11.04C153.331 10.816 153.315 10.56 153.283 10.272C153.251 9.92 153.203 9.664 153.139 9.504C153.075 9.312 152.995 9.136 152.898 8.976C152.771 8.784 152.547 8.576 152.227 8.352C151.907 8.096 151.555 7.856 151.171 7.632C150.819 7.408 150.451 7.2 150.067 7.008C149.715 6.816 149.411 6.672 149.155 6.576C148.739 6.416 148.579 6.288 148.675 6.192C148.771 6.064 148.931 6.016 149.155 6.048C149.219 6.048 149.379 6.064 149.635 6.096C149.923 6.096 150.243 6.112 150.595 6.144C150.947 6.176 151.299 6.224 151.651 6.288C152.035 6.32 152.355 6.352 152.611 6.384C152.963 6.448 153.395 6.544 153.907 6.672C154.419 6.768 154.899 6.912 155.347 7.104C155.891 7.296 156.323 7.6 156.643 8.016C156.963 8.432 157.155 8.96 157.219 9.6C157.251 9.888 157.267 10.24 157.267 10.656C157.267 11.04 157.251 11.456 157.219 11.904C157.219 12.32 157.219 12.736 157.219 13.152C157.219 13.536 157.219 13.888 157.219 14.208C157.251 14.752 157.283 15.232 157.315 15.648C157.347 16.064 157.331 16.512 157.267 16.992C157.203 17.696 156.979 18.288 156.595 18.768C156.915 18.896 157.123 18.992 157.219 19.056C157.475 19.248 157.635 19.44 157.699 19.632C157.795 19.792 157.843 19.952 157.843 20.112C157.843 20.496 157.699 20.8 157.411 21.024C157.155 21.248 156.819 21.408 156.403 21.504C156.019 21.6 155.603 21.664 155.155 21.696C154.707 21.728 154.307 21.744 153.955 21.744C153.379 21.744 152.867 21.68 152.419 21.552C152.003 21.424 151.603 21.28 151.219 21.12ZM148.051 14.4C148.115 15.168 148.163 15.968 148.195 16.8C148.259 17.632 148.275 18.448 148.243 19.248C148.499 19.184 148.803 19.12 149.155 19.056C149.539 18.96 149.923 18.88 150.307 18.816C150.691 18.72 151.059 18.64 151.411 18.576C151.763 18.48 152.051 18.416 152.275 18.384C152.563 18.32 152.899 18.288 153.283 18.288C153.667 18.256 154.035 18.256 154.387 18.288C154.195 17.936 154.067 17.584 154.003 17.232C153.843 16.784 153.731 16.304 153.667 15.792C153.635 15.28 153.603 14.736 153.571 14.16C153.379 14.288 153.139 14.416 152.851 14.544C152.563 14.704 152.275 14.784 151.987 14.784C151.699 14.784 151.411 14.784 151.123 14.784L149.107 14.544L148.051 14.4ZM202.748 19.2C202.3 19.2 201.82 19.2 201.308 19.2C200.828 19.2 200.348 19.232 199.868 19.296C199.996 19.552 200.06 19.808 200.06 20.064V21.12C200.06 21.664 200.06 22.144 200.06 22.56C200.06 22.976 199.98 23.392 199.82 23.808C199.756 24 199.66 24.16 199.532 24.288C199.404 24.416 199.276 24.528 199.148 24.624C198.988 24.72 198.828 24.784 198.668 24.816C198.508 24.848 198.364 24.864 198.236 24.864C198.044 24.864 197.852 24.864 197.66 24.864C197.5 24.864 197.356 24.848 197.228 24.816C197.068 24.816 196.956 24.832 196.892 24.864C196.284 25.216 195.676 25.584 195.068 25.968C194.46 26.352 193.932 26.768 193.484 27.216L193.052 27.648C193.788 27.552 194.588 27.44 195.452 27.312C196.348 27.184 197.132 27.056 197.804 26.928C197.964 26.896 198.204 26.848 198.524 26.784C198.844 26.72 199.148 26.672 199.436 26.64C199.468 26.32 199.644 26.16 199.964 26.16C200.22 26.192 200.492 26.32 200.78 26.544C201.1 26.736 201.34 26.88 201.5 26.976C201.756 27.136 202.028 27.28 202.316 27.408C202.604 27.536 202.876 27.68 203.132 27.84C203.42 28.096 203.516 28.432 203.42 28.848C203.324 29.296 203.004 29.632 202.46 29.856C202.076 30.016 201.644 30.192 201.164 30.384C200.684 30.544 200.268 30.704 199.916 30.864L196.988 32.16C197.34 32.128 197.66 32.096 197.948 32.064C198.236 32.032 198.508 31.984 198.764 31.92C199.148 31.856 199.532 31.824 199.916 31.824C200.332 31.792 200.78 31.792 201.26 31.824C201.484 31.824 201.836 31.904 202.316 32.064C202.828 32.224 203.228 32.384 203.516 32.544C203.676 32.64 203.804 32.8 203.9 33.024C203.996 33.216 203.996 33.424 203.9 33.648C203.836 33.808 203.724 33.984 203.564 34.176C203.404 34.336 203.196 34.464 202.94 34.56C201.66 35.072 200.396 35.504 199.148 35.856C197.9 36.176 196.812 36.64 195.884 37.248C195.564 37.472 195.452 37.664 195.548 37.824C195.612 37.92 195.836 38.016 196.22 38.112C196.636 38.24 197.004 38.304 197.324 38.304C197.868 38.304 198.508 38.224 199.244 38.064C199.98 37.904 200.54 37.744 200.924 37.584C201.276 37.424 201.676 37.328 202.124 37.296C202.604 37.296 202.956 37.328 203.18 37.392C203.404 37.456 203.612 37.536 203.804 37.632C204.028 37.76 204.204 37.936 204.332 38.16C204.556 38.48 204.54 38.864 204.284 39.312C203.9 40.016 203.228 40.624 202.268 41.136C201.308 41.648 200.332 41.904 199.34 41.904C198.604 41.904 197.836 41.856 197.036 41.76C196.236 41.664 195.66 41.536 195.308 41.376C195.02 41.216 194.684 40.992 194.3 40.704C193.916 40.416 193.596 40.096 193.34 39.744C193.02 39.328 192.86 38.896 192.86 38.448C192.892 38.032 193.132 37.6 193.58 37.152C193.804 36.928 194.028 36.784 194.252 36.72C194.476 36.656 194.668 36.56 194.828 36.432C195.148 36.208 195.5 36 195.884 35.808C196.3 35.616 196.7 35.424 197.084 35.232C197.5 35.04 197.884 34.864 198.236 34.704C198.62 34.512 198.924 34.32 199.148 34.128C199.532 33.84 199.804 33.616 199.964 33.456C199.42 33.392 198.86 33.376 198.284 33.408C197.74 33.44 197.228 33.488 196.748 33.552C196.428 33.616 196.044 33.712 195.596 33.84C195.18 33.936 194.748 34.064 194.3 34.224C193.852 34.352 193.404 34.512 192.956 34.704C192.54 34.864 192.172 35.024 191.852 35.184C191.692 35.248 191.564 35.296 191.468 35.328C191.372 35.36 191.292 35.392 191.228 35.424C190.94 35.456 190.764 35.408 190.7 35.28C190.636 35.216 190.604 35.104 190.604 34.944C190.636 34.784 190.684 34.656 190.748 34.56C190.812 34.4 190.94 34.176 191.132 33.888C191.324 33.6 191.516 33.376 191.708 33.216C191.868 33.088 192.14 32.96 192.524 32.832C192.908 32.704 193.404 32.608 194.012 32.544C194.652 32.096 195.308 31.648 195.98 31.2C196.652 30.72 197.308 30.224 197.948 29.712C198.108 29.584 198.252 29.408 198.38 29.184C198.54 28.928 198.7 28.656 198.86 28.368C198.124 28.432 197.388 28.528 196.652 28.656C195.948 28.752 195.292 28.896 194.684 29.088C193.852 29.344 193.052 29.664 192.284 30.048C191.516 30.4 190.732 30.736 189.932 31.056C189.868 31.088 189.772 31.12 189.644 31.152C189.516 31.152 189.388 31.136 189.26 31.104C189.164 31.04 189.1 30.96 189.068 30.864C189.036 30.736 189.068 30.56 189.164 30.336L189.5 29.472C189.532 29.28 189.564 29.104 189.596 28.944C189.66 28.752 189.708 28.608 189.74 28.512C189.836 28.224 190.06 28.064 190.412 28.032C190.636 28 190.844 27.968 191.036 27.936C191.26 27.872 191.5 27.744 191.756 27.552C191.884 27.456 192.044 27.328 192.236 27.168C192.46 27.008 192.652 26.848 192.812 26.688C193.164 26.336 193.644 25.936 194.252 25.488C194.892 25.04 195.532 24.56 196.172 24.048C196.236 23.856 196.268 23.648 196.268 23.424C196.268 23.2 196.268 23.024 196.268 22.896L195.932 19.824C194.396 20.08 192.94 20.4 191.564 20.784C190.22 21.136 189.02 21.488 187.964 21.84L185.708 22.848C185.196 23.072 184.588 23.232 183.884 23.328C183.212 23.424 182.716 23.488 182.396 23.52C181.852 23.584 181.26 23.6 180.62 23.568C180.012 23.504 179.628 23.456 179.468 23.424C179.372 23.392 179.276 23.344 179.18 23.28C179.084 23.184 179.02 23.056 178.988 22.896C178.956 22.672 179.084 22.368 179.372 21.984C179.532 21.76 179.74 21.44 179.996 21.024C180.284 20.608 180.604 20.176 180.956 19.728C181.084 19.504 181.26 19.36 181.484 19.296C181.644 19.232 181.82 19.232 182.012 19.296C182.236 19.36 182.396 19.408 182.492 19.44C182.844 19.536 183.276 19.632 183.788 19.728C184.3 19.792 184.86 19.808 185.468 19.776C185.756 19.776 186.076 19.776 186.428 19.776C186.78 19.776 187.164 19.744 187.58 19.68C188.796 19.424 190.076 19.184 191.42 18.96C192.764 18.704 194.06 18.48 195.308 18.288C196.588 18.064 197.756 17.888 198.812 17.76C199.868 17.6 200.732 17.472 201.404 17.376C202.492 17.248 203.196 17.12 203.516 16.992C204.028 16.832 204.492 16.672 204.908 16.512C205.356 16.32 205.868 16.128 206.444 15.936C206.636 15.872 206.876 15.824 207.164 15.792C207.452 15.728 207.708 15.712 207.932 15.744C208.476 15.84 209.116 16.096 209.852 16.512C210.588 16.896 211.18 17.376 211.628 17.952C212.012 18.432 212.204 18.864 212.204 19.248C212.204 19.568 211.98 19.808 211.532 19.968C211.244 20.096 210.924 20.16 210.572 20.16C210.252 20.16 210.012 20.16 209.852 20.16C209.532 20.128 209.02 20.016 208.316 19.824C207.612 19.6 207.052 19.456 206.636 19.392C206.092 19.328 205.468 19.28 204.764 19.248C204.092 19.216 203.42 19.2 202.748 19.2ZM188.876 6.432C188.524 5.856 188.188 5.344 187.868 4.896C187.548 4.416 187.228 3.952 186.908 3.504C186.748 3.28 186.636 3.056 186.572 2.832C186.508 2.608 186.508 2.464 186.572 2.4C187.052 2.656 187.532 2.96 188.012 3.312C188.492 3.664 189.004 4.032 189.548 4.416C190.188 4.96 190.796 5.424 191.372 5.808C191.948 6.192 192.38 6.512 192.668 6.768C192.924 7.024 193.1 7.36 193.196 7.776C193.26 8.064 193.292 8.352 193.292 8.64C193.292 8.896 193.292 9.184 193.292 9.504V12.384C193.548 12.384 193.9 12.368 194.348 12.336C194.796 12.304 195.356 12.24 196.028 12.144C197.02 12.048 197.804 11.952 198.38 11.856C198.988 11.728 199.436 11.632 199.724 11.568C199.788 11.568 199.868 11.568 199.964 11.568C200.092 11.536 200.236 11.52 200.396 11.52L200.252 11.04C200.124 10.528 199.996 10 199.868 9.456C199.772 8.912 199.692 8.368 199.628 7.824C199.564 7.376 199.468 7.024 199.34 6.768C199.212 6.48 199.1 6.288 199.004 6.192C198.844 6.032 198.636 5.936 198.38 5.904C198.092 5.84 197.644 5.856 197.036 5.952C196.46 6.016 196.076 6.064 195.884 6.096C195.532 6.128 195.052 6.176 194.444 6.24C193.868 6.272 193.436 6.288 193.148 6.288C192.796 6.288 192.332 6.128 191.756 5.808C191.372 5.648 191.18 5.52 191.18 5.424C191.244 5.392 191.308 5.36 191.372 5.328C191.468 5.296 191.564 5.264 191.66 5.232C192.044 5.136 192.428 5.04 192.812 4.944C193.196 4.816 193.58 4.72 193.964 4.656C194.38 4.56 194.78 4.4 195.164 4.176C195.548 3.952 195.98 3.76 196.46 3.6C196.588 3.568 196.812 3.536 197.132 3.504C197.452 3.472 197.82 3.456 198.236 3.456C198.652 3.424 199.052 3.424 199.436 3.456C199.852 3.456 200.188 3.472 200.444 3.504C200.956 3.568 201.388 3.728 201.74 3.984C202.124 4.24 202.508 4.512 202.892 4.8C203.628 5.344 203.996 6.496 203.996 8.256C203.996 8.896 203.9 9.536 203.708 10.176C203.548 10.816 203.372 11.36 203.18 11.808C203.596 11.968 203.916 12.192 204.14 12.48C204.396 12.768 204.524 12.992 204.524 13.152C204.524 13.44 204.412 13.68 204.188 13.872C203.996 14.064 203.74 14.224 203.42 14.352C203.132 14.448 202.78 14.512 202.364 14.544C201.98 14.576 201.596 14.592 201.212 14.592C200.092 14.592 199.02 14.528 197.996 14.4C196.972 14.24 195.916 13.952 194.828 13.536C194.572 13.472 194.3 13.392 194.012 13.296C193.756 13.168 193.5 13.072 193.244 13.008V13.344C193.212 13.792 193.148 14.304 193.052 14.88C192.988 15.456 192.828 15.952 192.572 16.368C192.54 16.496 192.476 16.608 192.38 16.704C192.316 16.8 192.236 16.912 192.14 17.04C192.108 17.04 192.012 16.96 191.852 16.8C191.724 16.608 191.644 16.496 191.612 16.464C191.42 16.208 191.244 15.904 191.084 15.552C190.956 15.2 190.812 14.832 190.652 14.448C190.428 13.936 190.284 13.504 190.22 13.152C190.188 12.8 190.108 12.304 189.98 11.664C189.82 10.928 189.708 10.24 189.644 9.6C189.612 8.928 189.532 8.256 189.404 7.584C189.372 7.424 189.308 7.248 189.212 7.056C189.116 6.864 189.004 6.656 188.876 6.432ZM218.876 17.376C219.228 17.44 219.5 17.536 219.692 17.664C219.916 17.792 220.108 17.872 220.268 17.904C220.716 17.936 221.196 17.984 221.708 18.048C222.252 18.08 222.716 18.224 223.1 18.48C223.932 18.992 224.412 19.696 224.54 20.592C224.604 21.072 224.604 21.6 224.54 22.176C224.508 22.752 224.364 23.36 224.108 24C224.204 24 224.284 23.984 224.348 23.952L227.42 23.28C228.572 23.024 229.916 22.8 231.452 22.608C233.02 22.384 234.572 22.208 236.108 22.08C236.044 20.928 235.996 19.792 235.964 18.672C235.932 17.552 235.884 16.416 235.82 15.264C235.788 14.592 235.756 13.856 235.724 13.056C235.692 12.224 235.644 11.392 235.58 10.56C235.548 9.696 235.5 8.88 235.436 8.112C235.404 7.344 235.34 6.688 235.244 6.144C235.116 5.312 234.78 4.528 234.236 3.792C233.692 3.056 233.004 2.352 232.172 1.68C231.788 1.392 231.596 1.184 231.596 1.056C231.564 0.895998 231.868 0.927999 232.508 1.152C233.052 1.344 233.708 1.536 234.476 1.728C235.276 1.92 235.948 2.128 236.492 2.352C236.844 2.512 237.18 2.688 237.5 2.88C237.852 3.072 238.236 3.328 238.652 3.648C239.1 4 239.452 4.352 239.708 4.704C239.996 5.024 240.124 5.408 240.092 5.856V6.864C240.06 8.144 240.028 9.536 239.996 11.04C239.996 12.512 239.996 14.032 239.996 15.6C239.996 17.168 239.996 18.72 239.996 20.256C239.996 21.792 239.996 23.232 239.996 24.576C239.996 24.896 239.98 25.232 239.948 25.584C239.916 25.936 239.868 26.288 239.804 26.64L241.772 25.68C242.348 25.392 242.812 25.12 243.164 24.864C243.548 24.576 243.804 24.368 243.932 24.24C244.188 23.984 244.412 23.728 244.604 23.472C244.796 23.184 244.924 22.992 244.988 22.896C245.18 22.672 245.372 22.496 245.564 22.368C245.788 22.208 246.012 22.128 246.236 22.128C246.492 22.128 246.796 22.256 247.148 22.512C247.404 22.704 247.724 22.96 248.108 23.28C248.524 23.568 248.876 23.776 249.164 23.904C249.644 24.096 249.964 24.288 250.124 24.48C250.348 24.768 250.396 25.04 250.268 25.296C250.204 25.456 250.092 25.616 249.932 25.776C249.804 25.936 249.516 26.064 249.068 26.16C248.332 26.32 247.644 26.496 247.004 26.688C246.396 26.848 245.772 27.008 245.132 27.168C243.692 27.552 242.236 28 240.764 28.512C239.292 28.992 237.852 29.552 236.444 30.192C235.068 30.8 233.74 31.472 232.46 32.208C231.212 32.912 230.076 33.68 229.052 34.512C228.86 34.672 228.636 34.864 228.38 35.088C228.156 35.28 228.028 35.44 227.996 35.568C227.9 36.112 228.012 36.496 228.332 36.72C228.684 36.976 229.244 37.168 230.012 37.296C230.78 37.424 231.596 37.408 232.46 37.248C233.324 37.088 234.14 36.88 234.908 36.624C235.676 36.4 236.428 36.24 237.164 36.144C237.804 36.08 238.38 36.144 238.892 36.336C239.436 36.528 239.932 36.8 240.38 37.152C240.572 37.312 240.668 37.536 240.668 37.824C240.7 38.112 240.668 38.4 240.572 38.688C240.476 38.976 240.348 39.232 240.188 39.456C240.028 39.712 239.868 39.888 239.708 39.984C239.644 40.048 239.468 40.16 239.18 40.32C238.892 40.512 238.524 40.704 238.076 40.896C237.628 41.088 237.116 41.264 236.54 41.424C235.996 41.584 235.42 41.68 234.812 41.712C234.236 41.744 233.596 41.728 232.892 41.664C232.188 41.6 231.5 41.488 230.828 41.328C230.188 41.2 229.596 41.04 229.052 40.848C228.508 40.688 228.076 40.496 227.756 40.272C227.372 40.016 227.004 39.744 226.652 39.456C226.332 39.168 226.14 38.896 226.076 38.64C226.012 38.48 225.964 38.272 225.932 38.016C225.9 37.76 225.884 37.488 225.884 37.2C225.884 36.944 225.884 36.688 225.884 36.432C225.916 36.176 225.964 35.984 226.028 35.856C226.092 35.696 226.3 35.424 226.652 35.04C227.036 34.656 227.612 34.176 228.38 33.6C229.596 32.672 230.876 31.776 232.22 30.912C233.596 30.016 235.196 29.072 237.02 28.08C236.7 27.024 236.476 25.92 236.348 24.768C234.908 24.832 233.468 24.944 232.028 25.104C230.588 25.232 229.132 25.424 227.66 25.68C227.212 25.776 226.7 25.904 226.124 26.064C225.548 26.224 224.956 26.4 224.348 26.592C223.772 26.784 223.212 26.992 222.668 27.216C222.156 27.408 221.74 27.6 221.42 27.792C220.716 28.208 220.028 28.496 219.356 28.656C218.684 28.784 217.996 28.896 217.292 28.992C216.908 29.056 216.652 28.976 216.524 28.752C216.428 28.624 216.364 28.464 216.332 28.272C216.332 28.048 216.316 27.808 216.284 27.552C216.252 27.232 216.252 26.864 216.284 26.448C216.316 26.032 216.364 25.584 216.428 25.104C216.524 24.816 216.684 24.56 216.908 24.336C217.068 24.208 217.292 24.16 217.58 24.192C217.868 24.224 218.3 24.288 218.876 24.384C219.228 24.448 219.692 24.464 220.268 24.432C220.876 24.4 221.5 24.352 222.14 24.288L221.948 22.8C221.884 22.544 221.788 22.272 221.66 21.984C221.564 21.664 221.436 21.392 221.276 21.168C220.86 20.784 220.476 20.4 220.124 20.016C219.804 19.632 219.516 19.2 219.26 18.72C219.132 18.496 219.02 18.304 218.924 18.144C218.828 17.984 218.732 17.84 218.636 17.712C218.476 17.456 218.556 17.344 218.876 17.376ZM217.1 9.744C218.636 9.68 220.028 9.552 221.276 9.36C222.524 9.136 223.708 8.8 224.828 8.352C225.212 8.192 225.548 8.112 225.836 8.112C226.572 8.112 227.18 8.16 227.66 8.256C228.14 8.352 228.54 8.48 228.86 8.64C229.18 8.8 229.5 9.072 229.82 9.456C230.172 9.84 230.38 10.112 230.444 10.272C230.572 10.528 230.668 10.816 230.732 11.136C230.828 11.424 230.892 11.744 230.924 12.096C230.988 12.768 231.02 13.424 231.02 14.064C231.02 14.672 231.036 15.376 231.068 16.176C231.068 16.976 230.94 17.664 230.684 18.24C230.524 18.56 230.348 18.816 230.156 19.008C229.996 19.2 229.836 19.376 229.676 19.536L228.284 20.784C228.188 20.848 228.108 20.864 228.044 20.832C228.012 20.768 228.012 20.704 228.044 20.64C228.204 20.128 228.236 19.664 228.14 19.248C228.076 18.992 228.012 18.752 227.948 18.528C227.884 18.272 227.836 18.016 227.804 17.76C227.708 16.544 227.612 15.44 227.516 14.448C227.42 13.424 227.276 12.64 227.084 12.096C226.988 11.84 226.844 11.696 226.652 11.664C226.46 11.6 226.284 11.568 226.124 11.568C225.58 11.568 224.972 11.712 224.3 12C223.66 12.288 222.972 12.592 222.236 12.912C221.884 13.04 221.532 12.992 221.18 12.768C220.828 12.544 220.492 12.336 220.172 12.144C219.852 11.92 219.484 11.68 219.068 11.424C218.876 11.296 218.588 11.184 218.204 11.088C217.852 10.96 217.548 10.848 217.292 10.752C217.068 10.688 216.908 10.592 216.812 10.464C216.748 10.304 216.732 10.144 216.764 9.984C216.764 9.888 216.876 9.808 217.1 9.744Z" fill="#ACACAC" fill-opacity="0.51"/>
</svg>
