<svg width="70" height="70" viewBox="0 0 70 70" fill="none" xmlns="http://www.w3.org/2000/svg">
<g clip-path="url(#clip0_835_525)">
<path d="M36.3036 46.3276C39.2871 48.353 41.3778 51.097 41.3778 54.7556V61.289H50.0889V54.7556C50.0889 50.0081 42.3142 47.1987 36.3036 46.3276Z" fill="black"/>
<path d="M32.6666 43.8666C37.4795 43.8666 41.3778 39.9683 41.3778 35.1554C41.3778 30.3426 37.4795 26.4443 32.6666 26.4443C31.6431 26.4443 30.6849 26.6621 29.7702 26.967C31.5778 29.2101 32.6666 32.063 32.6666 35.1554C32.6666 38.2479 31.5778 41.1008 29.7702 43.3439C30.6849 43.6488 31.6431 43.8666 32.6666 43.8666Z" fill="black"/>
<path d="M19.6 43.8666C24.4129 43.8666 28.3111 39.9683 28.3111 35.1554C28.3111 30.3426 24.4129 26.4443 19.6 26.4443C14.7871 26.4443 10.8889 30.3426 10.8889 35.1554C10.8889 39.9683 14.7871 43.8666 19.6 43.8666ZM19.6 30.7999C21.9956 30.7999 23.9556 32.7599 23.9556 35.1554C23.9556 37.551 21.9956 39.511 19.6 39.511C17.2044 39.511 15.2444 37.551 15.2444 35.1554C15.2444 32.7599 17.2044 30.7999 19.6 30.7999Z" fill="#11468F"/>
<path d="M19.6 46.0444C13.7853 46.0444 2.17776 48.9627 2.17776 54.7555V61.2889H37.0222V54.7555C37.0222 48.9627 25.4147 46.0444 19.6 46.0444ZM32.6667 56.9333H6.53332V54.7773C6.96888 53.2093 13.72 50.4 19.6 50.4C25.48 50.4 32.2311 53.2093 32.6667 54.7555V56.9333Z" fill="#11468F"/>
</g>
<path d="M59.5 4.66683V12.8335H48.0317L47.3433 13.5218L46.6667 14.1985V4.66683H59.5ZM60.6667 2.3335H45.5C44.8583 2.3335 44.3333 2.8585 44.3333 3.50016V19.8335L49 15.1668H60.6667C61.3083 15.1668 61.8333 14.6418 61.8333 14.0002V3.50016C61.8333 2.8585 61.3083 2.3335 60.6667 2.3335ZM66.5 7.00016H64.1667V17.5002H49V19.8335C49 20.4752 49.525 21.0002 50.1667 21.0002H63L67.6667 25.6668V8.16683C67.6667 7.52516 67.1417 7.00016 66.5 7.00016Z" fill="black"/>
<defs>
<clipPath id="clip0_835_525">
<rect width="52.2667" height="52.2667" fill="white" transform="translate(0 17.7334)"/>
</clipPath>
</defs>
</svg>
